<svg width="250" height="250" viewBox="0 0 250 250" fill="none" xmlns="http://www.w3.org/2000/svg">
<g clip-path="url(#clip0_101_51402)">
<rect x="5" y="5" width="240" height="240" rx="35" fill="white" stroke="url(#paint0_linear_101_51402)" stroke-width="10"/>
<path d="M39.6024 83.6682C54.1113 53.2238 97.6383 39.2916 119.126 66.812C122.065 70.596 128.309 70.596 131.248 66.812C152.736 39.2916 196.263 53.2238 210.772 83.8402C239.973 145.073 141.716 197.19 125.187 197.19C108.658 197.19 10.4007 144.901 39.6024 83.6682Z" fill="url(#paint1_radial_101_51402)"/>
<path d="M119.124 66.812C122.063 70.596 128.307 70.596 131.245 66.812C152.733 39.2916 196.26 53.2238 210.769 83.8402C215.912 94.3324 217.197 104.653 215.728 114.457C215.728 114.457 193.873 145.589 125.185 145.589C56.4966 145.589 34.6412 114.457 34.6412 114.457C33.172 104.653 34.4576 94.3324 39.4164 83.6682C54.109 53.2238 97.636 39.2916 119.124 66.812Z" fill="url(#paint2_radial_101_51402)"/>
<path opacity="0.44" d="M61.8208 118.585C71.7384 125.637 86.982 122.369 95.9813 111.361C104.981 100.353 104.43 85.5605 94.512 78.5084C84.5945 71.4563 69.3508 74.7243 60.3516 85.7325C51.3523 96.7407 52.087 111.533 61.8208 118.585Z" fill="url(#paint3_radial_101_51402)"/>
</g>
<defs>
<linearGradient id="paint0_linear_101_51402" x1="0" y1="125" x2="250" y2="125" gradientUnits="userSpaceOnUse">
<stop stop-color="#977C3F"/>
<stop offset="0.527416" stop-color="#F4EAC1"/>
<stop offset="1" stop-color="#977C3F"/>
</linearGradient>
<radialGradient id="paint1_radial_101_51402" cx="0" cy="0" r="1" gradientUnits="userSpaceOnUse" gradientTransform="translate(48.58 90.0696) rotate(29.5022) scale(259.519 232.996)">
<stop stop-color="#E95F70"/>
<stop offset="0.765625" stop-color="#E01840"/>
<stop offset="0.9739" stop-color="#D85264"/>
<stop offset="1" stop-color="#E95F70"/>
</radialGradient>
<radialGradient id="paint2_radial_101_51402" cx="0" cy="0" r="1" gradientUnits="userSpaceOnUse" gradientTransform="translate(126.875 219.681) rotate(-180) scale(181.074 130.358)">
<stop stop-color="white"/>
<stop offset="1" stop-color="white" stop-opacity="0"/>
</radialGradient>
<radialGradient id="paint3_radial_101_51402" cx="0" cy="0" r="1" gradientUnits="userSpaceOnUse" gradientTransform="translate(78.2308 98.4898) rotate(129.215) scale(25.9084 21.8836)">
<stop stop-color="white"/>
<stop offset="1" stop-color="white" stop-opacity="0"/>
</radialGradient>
<clipPath id="clip0_101_51402">
<rect width="250" height="250" fill="white"/>
</clipPath>
</defs>
</svg>
