<svg width="65" height="59" viewBox="0 0 65 59" fill="none" xmlns="http://www.w3.org/2000/svg">
<path d="M68.4216 98.2052C65.0211 99.7945 60.8444 97.7986 59.1811 93.8437L45.0617 60.2084C43.0288 55.3664 44.9508 50.007 49.2384 48.4915C53.3412 47.05 57.9614 49.7113 59.6247 54.4424L71.6742 88.8908C73.0048 92.6609 71.6003 96.7267 68.4216 98.2052Z" fill="#FFC5BB"/>
<path d="M-3.65399 98.2054C-0.253499 99.7948 3.92318 97.7988 5.58647 93.8439L19.7059 60.2087C21.7388 55.3667 19.8168 50.0072 15.5292 48.4918C11.4264 47.0503 6.76924 49.7115 5.14292 54.4426L-6.94359 88.8541C-8.27421 92.6611 -6.8327 96.7269 -3.65399 98.2054Z" fill="#FFC5BB"/>
<path d="M58.7006 58.9149L54.9674 67.8596L54.0064 74.6606L51.7148 90.4802L12.2396 90.1476L10.3545 74.8084L9.57835 68.414L5.88217 58.73C3.92319 53.5924 7.6933 48.122 13.2006 48.122L51.4561 48.122C57.0743 48.085 60.8444 53.7772 58.7006 58.9149Z" fill="#033A38"/>
<path d="M17.1186 63.2399C15.3444 68.1559 12.9049 72.2956 10.3915 74.8829L9.57835 68.4146L5.88217 58.7306C3.9232 53.5929 7.6933 48.1226 13.2006 48.1226L19.0406 48.1226C19.8168 51.8187 19.1884 57.4 17.1186 63.2399Z" fill="#FFC5BB" stroke="#FFC5BB" stroke-width="0.5" stroke-miterlimit="10"/>
<path d="M58.7005 58.915L54.9674 67.8598L54.0064 74.6607C51.5669 72.0734 49.1644 68.0076 47.4272 63.2026C45.3573 57.3626 44.729 51.7814 45.5052 48.0852L51.456 48.0852C57.0742 48.0852 60.8443 53.7773 58.7005 58.915Z" fill="#FFC5BB" stroke="#FFC5BB" stroke-width="0.5" stroke-miterlimit="10"/>
<path d="M53.8215 20.4586C53.2897 13.1541 44.5141 1.78228 40.5251 3.02747C33.2121 -3.61303 24.1706 2.52941 22.575 3.8575C19.5834 6.34764 14.5972 12.1581 13.2676 17.9685C11.9379 23.7788 10.6083 43.7002 10.6083 49.5106C10.6083 54.1589 18.1429 57.5345 19.9158 57.8112H45.1789C47.8382 57.8112 56.4808 52.8308 56.4808 46.1903C56.4808 39.5499 54.4864 29.5892 53.8215 20.4586Z" fill="#A03000"/>
<path d="M40.8932 51.0997C41.0552 55.5144 37.4911 59.1999 33.036 59.1999C28.7024 59.1999 25.1788 55.6764 25.1788 51.3427C25.1788 51.2617 25.1788 51.1807 25.1788 51.0592L26.0698 39.3544L26.3128 36.0738L26.7178 30.6062L39.3542 30.6062L39.7997 36.3979L40.0427 39.7999L40.8932 51.0997Z" fill="#FFC5BB"/>
<path d="M39.7592 36.4386C38.6657 38.7877 36.1141 40.4482 33.0765 40.4482C29.9175 40.4482 27.2849 38.6257 26.2724 36.1146L26.6774 30.647L39.3137 30.647L39.7592 36.4386Z" fill="#E59191"/>
<path d="M47.296 16.8359C47.62 17.3624 47.8225 19.5494 46.891 21.8985C46.6075 22.587 46.7695 24.0451 45.757 25.0576C43.1244 27.6497 42.7599 21.939 43.1244 20.5215C43.6104 18.6989 45.7165 14.3653 47.296 16.8359Z" fill="#FFC5BB"/>
<path d="M45.4329 17.1194C45.7165 17.0384 46.0405 17.0789 46.324 17.2409C46.6075 17.4029 46.8505 17.6459 46.972 17.9294C47.0935 18.2129 47.134 18.5774 47.0935 18.9014C47.0125 19.2254 46.8505 19.5089 46.6075 19.6709C46.648 19.3874 46.648 19.1039 46.6075 18.8609C46.567 18.6179 46.5265 18.3749 46.4455 18.1724C46.3645 17.9699 46.2025 17.7674 46.0405 17.6054C45.919 17.4434 45.7165 17.2814 45.4329 17.1194Z" fill="#E59191"/>
<path d="M44.7444 19.3875C45.0279 19.59 45.2709 19.914 45.3519 20.2785C45.4735 20.643 45.4734 21.048 45.3924 21.4125C45.3114 21.777 45.1089 22.1415 44.8659 22.425C44.6229 22.7085 44.2989 22.911 43.9344 22.992C44.1774 22.7085 44.3394 22.425 44.5014 22.182C44.6634 21.8985 44.7444 21.615 44.8254 21.3315C44.9064 21.048 44.9064 20.724 44.9064 20.4C44.9064 20.0355 44.8254 19.7115 44.7444 19.3875Z" fill="#E59191"/>
<path d="M18.4961 16.8359C18.1721 17.3624 17.9696 19.5494 18.9011 21.8985C19.1846 22.587 19.0226 24.0451 20.0351 25.0576C22.6677 27.6497 23.0322 21.939 22.6677 20.5215C22.1817 18.6989 20.0756 14.3653 18.4961 16.8359Z" fill="#FFC5BB"/>
<path d="M20.3591 17.1194C20.0756 17.0384 19.7515 17.0789 19.468 17.2409C19.1845 17.4029 18.9415 17.6459 18.82 17.9294C18.6985 18.2129 18.658 18.5774 18.6985 18.9014C18.7795 19.2254 18.9415 19.5089 19.1845 19.6709C19.144 19.3874 19.144 19.1039 19.1845 18.8609C19.225 18.6179 19.2655 18.3749 19.3465 18.1724C19.4275 17.9699 19.5895 17.7674 19.7515 17.6054C19.873 17.4434 20.0756 17.2814 20.3591 17.1194Z" fill="#E59191"/>
<path d="M21.0476 19.3875C20.7641 19.59 20.5211 19.914 20.4401 20.2785C20.2781 20.643 20.2781 21.0075 20.3591 21.4125C20.4401 21.777 20.6426 22.1415 20.8856 22.425C21.1286 22.7085 21.4526 22.911 21.8171 22.992C21.5741 22.7085 21.4121 22.425 21.2501 22.182C21.0881 21.8985 21.0071 21.615 20.9261 21.3315C20.8451 21.048 20.8451 20.724 20.8451 20.4C20.8856 20.0355 20.9666 19.7115 21.0476 19.3875Z" fill="#E59191"/>
<path d="M44.2198 18.4559L44.1438 19.3469L44.1057 19.7924L44.0677 20.4404C44.0297 20.8454 44.0297 21.2504 43.9916 21.6554C43.9916 21.8984 43.9536 22.1415 43.9536 22.425C43.9155 23.4375 43.8395 24.4095 43.7254 25.422V25.4625C43.6873 25.665 43.6873 25.8271 43.6493 26.0296C43.6113 26.2321 43.5732 26.4346 43.5352 26.6371C43.4972 26.9206 43.4211 27.2446 43.307 27.5281C43.2689 27.6496 43.2689 27.7306 43.2309 27.8521C43.1548 28.0546 43.0788 28.2976 43.0027 28.5406C42.7745 29.1076 42.5463 29.6747 42.242 30.2417C41.0249 32.5907 39.1611 34.7373 37.2974 36.1953L37.2594 36.2358C37.0312 36.3978 36.803 36.6003 36.5747 36.7218C34.2926 38.2609 31.6302 38.3419 29.272 37.0053C28.7775 36.7218 28.3211 36.3978 27.8647 36.0333C27.8647 36.0333 27.8647 36.0333 27.8266 36.0333C26.039 34.6158 24.4795 32.5097 23.3004 30.2417C23.2244 30.0797 23.1483 29.9177 23.0722 29.7557C23.0342 29.6747 22.9962 29.5936 22.9581 29.5126C22.8821 29.3506 22.844 29.2291 22.7679 29.0671C22.5778 28.6621 22.4256 28.2571 22.2735 27.8521C22.2355 27.7306 22.1974 27.6496 22.1594 27.5281C21.6269 25.9081 21.3987 24.126 21.2846 22.3845C21.2465 22.101 21.2465 21.8174 21.2085 21.5744C21.1705 21.2504 21.1705 20.9669 21.1324 20.6429L21.0564 19.8329C21.0564 19.7519 21.0183 19.6709 21.0183 19.5494C20.9803 19.4684 20.9803 19.3469 20.9803 19.2659C20.9423 19.0229 20.9042 18.8204 20.9042 18.5774C20.9042 18.4964 20.9042 18.4559 20.9423 18.3749C21.2085 16.2688 21.8171 14.3247 22.6919 12.6237C22.9201 12.1782 23.1483 11.7732 23.3765 11.3682C24.2133 10.0316 25.2402 8.89761 26.3813 8.00659C26.4574 7.92558 26.5334 7.88508 26.6475 7.80408C26.7616 7.72308 26.8377 7.64208 26.9518 7.56107C27.3702 7.27757 27.7886 7.03456 28.207 6.79155C29.4622 6.14354 30.8314 5.77903 32.2387 5.73853C32.2387 5.73853 32.2387 5.73853 32.2768 5.73853C32.3528 5.73853 32.4289 5.73853 32.505 5.73853H32.581C32.7712 5.73853 32.9614 5.73853 33.1516 5.77903C33.3798 5.77903 33.608 5.81953 33.8362 5.86003C33.9503 5.86003 34.1025 5.90053 34.2166 5.90053C34.3307 5.90053 34.4067 5.94103 34.5208 5.94103C35.3576 6.10303 36.1183 6.38654 36.879 6.75105C37.4496 7.03456 38.0201 7.35857 38.5526 7.76358C38.5906 7.76358 38.5906 7.80408 38.6286 7.84458C38.971 8.08759 39.2752 8.37109 39.5795 8.6546C40.7586 9.74813 41.7475 11.1252 42.5082 12.6642C42.5463 12.7452 42.5843 12.8262 42.6604 12.9477C43.4211 14.5678 43.9536 16.3498 44.2198 18.2939V18.3344C44.2198 18.3749 44.2198 18.4154 44.2198 18.4559Z" fill="#FFC5BB"/>
<path d="M35.6685 32.3479C36.033 32.1049 36.9645 30.9304 36.9645 30.9304C36.9645 30.9304 35.2229 30.5659 34.1294 30.3634C33.4004 30.2014 32.6309 30.2419 31.9019 30.4039L29.3908 30.9709C29.3908 30.9709 30.2818 32.1049 30.3628 32.1859C30.7273 32.5099 31.2133 32.6314 31.6589 32.7124C32.7119 32.8745 33.8054 32.8745 34.8584 32.6719C35.2229 32.5504 35.466 32.4694 35.6685 32.3479Z" fill="#F5978A"/>
<path d="M35.79 30.2824C35.385 29.9989 35.0205 29.5129 34.575 29.3509C34.1295 29.1889 33.603 29.2294 33.1979 29.5534C32.7929 29.2294 32.2664 29.1889 31.8209 29.3509C31.3349 29.5129 31.0109 29.9989 30.6059 30.2824C30.0794 30.6469 29.5124 30.8089 28.9048 30.8089C29.9579 31.3354 31.1324 30.9304 31.9829 31.0519C32.1044 31.0519 32.3069 31.1734 32.4689 31.2544C32.7119 31.4164 32.9549 31.4569 33.1979 31.4569C33.441 31.4569 33.684 31.3759 33.927 31.2544C34.1295 31.1329 34.2915 31.0519 34.413 31.0519C35.223 30.9304 36.438 31.3354 37.4911 30.8089C36.8835 30.8089 36.3165 30.6469 35.79 30.2824Z" fill="#DB6C5D"/>
<path d="M31.416 34.8998C31.659 34.6971 31.9425 34.535 32.226 34.4539C32.5095 34.3728 32.8335 34.3323 33.117 34.3323C33.441 34.3323 33.7245 34.3728 34.008 34.4944C34.2915 34.616 34.575 34.7376 34.8181 34.9403C34.494 34.9403 34.2105 34.9403 33.927 34.9403H33.117L32.307 34.9403C32.0235 34.8998 31.74 34.9403 31.416 34.8998Z" fill="#FFE2DE" fill-opacity="0.22"/>
<path d="M30.2306 20.2013C30.1091 20.0178 29.9876 19.8344 29.8661 19.6968L29.5421 19.1923L29.2181 18.6878C29.0966 18.5044 28.9751 18.3668 28.8941 18.1375C29.0966 18.1833 29.2991 18.275 29.4611 18.4126C29.6231 18.5502 29.7851 18.6878 29.9066 18.9171C30.0281 19.1006 30.1091 19.3299 30.1901 19.5592C30.2306 19.6968 30.2711 19.9261 30.2306 20.2013Z" fill="#FFE2DE" fill-opacity="0.22"/>
<path d="M30.2711 21.531C30.2711 22.0813 29.866 22.54 29.38 22.54C28.894 22.54 28.489 22.0813 28.489 21.531C28.489 20.9806 28.894 20.522 29.38 20.522C29.866 20.522 30.2711 20.9806 30.2711 21.531Z" fill="#FFE2DE" fill-opacity="0.22"/>
<path d="M28.0031 17.8627C27.8005 17.8168 27.6385 17.7249 27.4765 17.679C27.3145 17.6331 27.1525 17.5872 26.95 17.5413C26.626 17.4954 26.2615 17.4495 25.9375 17.4495C25.6135 17.4495 25.249 17.4954 24.925 17.5872C24.601 17.679 24.2364 17.8168 23.9124 17.9545C24.439 17.3577 25.2085 17.0364 25.9375 16.9905C26.302 16.9905 26.707 17.0364 27.0715 17.1741C27.2335 17.22 27.436 17.3577 27.598 17.4495C27.7195 17.6331 27.8815 17.7249 28.0031 17.8627Z" fill="#E2A499"/>
<path d="M29.7445 21.7604C29.7445 21.7604 29.38 18.8711 27.6385 18.3207C25.1274 17.4952 23.7504 20.3845 23.7504 20.3845C23.7504 20.3845 24.9654 22.0815 26.6664 22.3108C28.327 22.586 29.7445 21.7604 29.7445 21.7604Z" fill="#AC665C"/>
<path d="M29.7445 21.7607C29.7445 21.7607 28.3269 22.5404 26.6664 22.3111C25.0058 22.0817 23.7503 20.3848 23.7503 20.3848L24.5198 19.8344C26.0994 18.6879 28.1649 19.1924 29.218 20.9352L29.7445 21.7607Z" fill="#FBFBFB"/>
<path d="M25.5729 20.4307C25.6134 19.6969 26.1804 19.1465 26.8284 19.2383C27.4764 19.2841 27.9624 19.9262 27.8814 20.66C27.8409 21.3938 27.2739 21.9442 26.6259 21.8525C26.0184 21.8066 25.5324 21.1645 25.5729 20.4307Z" fill="#330404"/>
<path d="M26.2209 20.4768C26.2614 20.1554 26.5044 19.88 26.8284 19.9259C27.1119 19.9718 27.3549 20.2473 27.3144 20.6145C27.2739 20.9358 27.0309 21.2112 26.7069 21.1653C26.3829 21.1194 26.1804 20.844 26.2209 20.4768Z" fill="black"/>
<path d="M25.9813 20.1327C26.0006 19.9798 26.1162 19.8487 26.2704 19.8706C26.4054 19.8924 26.521 20.0234 26.5018 20.1982C26.4825 20.3511 26.3668 20.4821 26.2126 20.4603C26.0584 20.4384 25.962 20.3074 25.9813 20.1327Z" fill="white"/>
<path d="M22.6566 20.018C22.4136 19.9263 22.1706 19.6969 22.0086 19.4676C22.2516 19.6052 22.4946 19.6511 22.6971 19.6969C22.9401 19.7428 23.1831 19.7428 23.4261 19.7428C23.6691 19.7428 23.9121 19.6969 24.1956 19.6511C24.4791 19.6052 24.7626 19.5135 25.0461 19.33C25.1271 19.2842 25.1676 19.2842 25.2486 19.2383C25.8157 18.9631 26.4637 18.9631 27.0712 19.0549C27.6787 19.1924 28.2457 19.5135 28.6912 20.018C28.9342 20.2473 29.0962 20.5225 29.2582 20.8435C29.4203 21.1646 29.5823 21.4398 29.7038 21.7608C29.2987 21.2563 28.9747 20.6601 28.5292 20.2473C28.0837 19.8345 27.5572 19.5594 26.9902 19.4218C26.4232 19.2842 25.8562 19.33 25.2891 19.5135C24.9246 19.6052 24.6006 19.7887 24.2766 20.018C24.1146 20.1556 23.9121 20.339 23.7096 20.4308C23.5071 20.4766 23.3046 20.5683 23.1021 20.5225C22.8996 20.5225 22.6971 20.4308 22.5351 20.2932C22.9401 20.339 23.2641 20.2932 23.6286 20.1097H23.6691C23.5881 20.1097 23.5071 20.1556 23.4261 20.1556C23.1831 20.1556 22.8996 20.1097 22.6566 20.018Z" fill="black"/>
<path d="M35.7387 20.2013C35.6982 19.9719 35.7387 19.7426 35.7792 19.5133C35.8197 19.284 35.9412 19.0547 36.0627 18.8712C36.1842 18.6878 36.3462 18.5043 36.5082 18.3667C36.6702 18.2291 36.8727 18.1374 37.0752 18.0916C36.9537 18.275 36.8322 18.4585 36.7512 18.6419L36.4272 19.1464L36.1032 19.6509C36.0222 19.8344 35.9007 20.0178 35.7387 20.2013Z" fill="#FFE2DE" fill-opacity="0.22"/>
<path d="M37.3183 21.5315C37.3183 22.0818 36.9133 22.5404 36.4273 22.5404C35.9412 22.5404 35.5362 22.0818 35.5362 21.5315C35.5362 20.9811 35.9412 20.5225 36.4273 20.5225C36.9133 20.5225 37.3183 20.9811 37.3183 21.5315Z" fill="#FFE2DE" fill-opacity="0.22"/>
<path d="M37.6423 17.8629C37.7638 17.7252 37.9258 17.5875 38.0878 17.4957C38.2498 17.4039 38.4118 17.312 38.6143 17.2202C38.9788 17.0825 39.3434 17.0366 39.7484 17.0366C40.5179 17.0366 41.2874 17.358 41.7734 18.0006C41.4089 17.8629 41.0849 17.7252 40.7609 17.6334C40.4369 17.5416 40.0724 17.4957 39.7484 17.4957C39.4244 17.4957 39.0599 17.4957 38.7358 17.5875C38.5738 17.6334 38.4118 17.6793 38.2093 17.7252C38.0068 17.7711 37.8448 17.817 37.6423 17.8629Z" fill="#E2A499"/>
<path d="M36.3463 21.7604C36.3463 21.7604 36.7108 18.8711 38.4523 18.3207C40.9634 17.4952 42.3404 20.3845 42.3404 20.3845C42.3404 20.3845 41.1254 22.0815 39.4244 22.3108C37.7638 22.586 36.3463 21.7604 36.3463 21.7604Z" fill="#AC665C"/>
<path d="M36.3463 21.7605C36.3463 21.7605 37.7639 22.5401 39.4244 22.3108C41.0849 22.0815 42.3405 20.3846 42.3405 20.3846L41.571 19.8342C39.9914 18.6876 37.9259 19.1921 36.8728 20.9349L36.3463 21.7605Z" fill="#FBFBFB"/>
<path d="M40.4774 20.4305C40.4369 19.6967 39.8699 19.1463 39.2218 19.238C38.5738 19.2839 38.0878 19.926 38.1688 20.6598C38.2093 21.3936 38.7763 21.944 39.4243 21.8522C40.0724 21.8064 40.5179 21.1643 40.4774 20.4305Z" fill="#330404"/>
<path d="M39.8698 20.4768C39.8293 20.1554 39.5863 19.88 39.2623 19.9259C38.9788 19.9718 38.7358 20.2473 38.7763 20.6145C38.8168 20.9358 39.0598 21.2112 39.3838 21.1653C39.6673 21.1194 39.9103 20.844 39.8698 20.4768Z" fill="black"/>
<path d="M39.193 20.1209C39.1737 19.9679 39.058 19.8367 38.9037 19.8586C38.7687 19.8805 38.653 20.0116 38.6723 20.1865C38.6915 20.3395 38.8073 20.4707 38.9616 20.4488C39.0966 20.427 39.2123 20.2958 39.193 20.1209Z" fill="white"/>
<path d="M43.3935 20.018C43.6365 19.9263 43.8795 19.6969 44.0415 19.4676C43.7985 19.6052 43.5555 19.6511 43.353 19.6969C43.11 19.7428 42.867 19.7428 42.624 19.7428C42.381 19.7428 42.138 19.6969 41.8545 19.6511C41.571 19.6052 41.2875 19.5135 41.0039 19.33C40.9229 19.2842 40.8824 19.2842 40.8014 19.2383C40.2344 18.9631 39.5864 18.9631 38.9789 19.0549C38.3714 19.1924 37.8044 19.5135 37.3589 20.018C37.1158 20.2473 36.9538 20.5225 36.7918 20.8435C36.6298 21.1646 36.4678 21.4398 36.3463 21.7608C36.7513 21.2563 37.0753 20.6601 37.5209 20.2473C37.9664 19.8345 38.4929 19.5594 39.0599 19.4218C39.6269 19.2842 40.1939 19.33 40.7609 19.5135C41.1255 19.6052 41.4495 19.7887 41.7735 20.018C41.9355 20.1556 42.138 20.339 42.3405 20.4308C42.543 20.4766 42.7455 20.5683 42.948 20.5225C43.1505 20.5225 43.353 20.4308 43.515 20.2932C43.11 20.339 42.786 20.2932 42.4215 20.1097H42.381C42.462 20.1097 42.543 20.1556 42.624 20.1556C42.867 20.1556 43.1505 20.1097 43.3935 20.018Z" fill="black"/>
<path d="M36.0624 16.1164C36.5033 15.8795 36.9442 15.6954 37.4529 15.5375C37.6903 15.4585 37.9616 15.4059 38.199 15.3533C38.3347 15.327 38.4704 15.3007 38.606 15.2744C38.7417 15.248 38.9452 15.248 39.0808 15.248C39.6913 15.2744 40.1661 15.4059 40.6749 15.5638C41.1497 15.7217 41.6245 15.9059 42.0315 16.169C41.4888 16.1953 40.9801 16.169 40.4714 16.169C39.9626 16.169 39.4878 16.1164 39.0469 16.1427C38.7078 16.169 38.233 16.3005 37.7582 16.3795C37.2833 16.4847 36.8085 16.5637 36.2998 16.6163C36.0963 16.6426 35.8928 16.511 35.8928 16.3532C35.8928 16.2742 35.9606 16.169 36.0624 16.1164Z" fill="#A03000"/>
<path d="M29.3846 16.4843C28.8957 16.4197 28.4393 16.3228 27.9829 16.1936C27.5266 16.0643 27.0702 15.9351 26.7442 15.9028C26.353 15.8704 25.8641 15.9351 25.3751 15.9351C24.8861 15.9674 24.3972 15.9674 23.8756 15.9351C24.2668 15.612 24.7231 15.3858 25.1795 15.1919C25.6359 14.9981 26.1248 14.8365 26.7116 14.8042C26.842 14.8042 27.0376 14.8042 27.168 14.8365C27.2984 14.8688 27.4614 14.9011 27.5592 14.9334C27.8199 14.9981 28.0481 15.0627 28.2763 15.1596C28.7327 15.3535 29.189 15.5797 29.6128 15.8704C29.7758 15.9997 29.8084 16.2259 29.678 16.3874C29.6454 16.452 29.515 16.4843 29.3846 16.4843Z" fill="#A03000"/>
<path d="M35.0205 26.0698C35.061 26.3128 34.98 26.5558 34.8585 26.7583C34.737 26.9608 34.5345 27.1229 34.332 27.2444C33.927 27.4874 33.441 27.6089 32.9549 27.6089C32.4689 27.6089 31.9829 27.4874 31.5779 27.2444C31.3754 27.1229 31.1729 26.9608 31.0514 26.7583C30.9299 26.5558 30.8489 26.3128 30.8894 26.0698C30.9704 26.5153 31.3349 26.7988 31.7399 26.9608C32.1044 27.1229 32.5499 27.2039 32.9549 27.2039C33.36 27.2039 33.8055 27.1229 34.17 26.9608C34.575 26.7988 34.9395 26.5558 35.0205 26.0698Z" fill="#C96A67"/>
<path d="M32.955 1L32.955 5.73862H32.874C32.793 5.73862 32.712 5.73862 32.631 5.73862C32.631 5.73862 32.631 5.73862 32.5905 5.73862C31.0515 5.77912 29.6339 6.14363 28.2974 6.79165C27.8519 6.99416 27.4064 7.27766 26.9609 7.56117C26.8394 7.64217 26.7584 7.72318 26.6369 7.80418C26.5559 7.88518 26.4749 7.92568 26.3534 8.00668C25.1383 8.89771 24.0448 10.0317 23.1538 11.3683C22.8703 11.7733 22.6273 12.1783 22.4248 12.6238C21.4932 14.3248 20.8452 16.2689 20.5617 18.375C20.5617 18.456 20.5617 18.4965 20.5212 18.5775C20.4807 18.4155 20.4807 18.2535 20.4807 18.132C20.4402 17.4839 20.3997 16.8359 20.3997 16.1474C20.3997 16.1069 20.3997 16.0259 20.3997 15.9854C20.3997 15.5399 20.3997 15.1349 20.4402 14.7299C20.4807 14.3654 20.5212 14.0413 20.5617 13.6768C20.8452 11.5708 21.4932 9.62673 22.4248 7.92568C22.6678 7.48017 22.9108 7.07516 23.1538 6.67015C24.0448 5.33361 25.1383 4.19958 26.3534 3.30856C26.4344 3.22756 26.5154 3.18706 26.6369 3.10605C26.7584 3.02505 26.8394 2.94405 26.9609 2.86305C27.4064 2.57954 27.8519 2.33653 28.2974 2.09353C29.6339 1.44551 31.092 1.081 32.5905 1.0405C32.5905 1.0405 32.5905 1.0405 32.631 1.0405C32.712 1.0405 32.793 1.0405 32.874 1.0405L32.955 1.0405C32.955 1 32.955 1 32.955 1Z" fill="#A03000"/>
<path d="M44.2352 18.2182C44.2352 18.4208 44.2352 18.6233 44.2352 18.8258C44.1947 19.4333 44.1542 20.0003 44.1137 20.6078C44.1137 20.5673 44.1137 20.5268 44.1137 20.4863V20.4458C43.8301 18.5018 43.2631 16.7197 42.4531 15.0997C42.4126 15.0187 42.3721 14.8972 42.2911 14.8162C41.4811 13.2771 40.3876 11.9001 39.1725 10.8066C38.8485 10.523 38.484 10.2395 38.16 9.99653C38.1195 9.95603 38.1195 9.95603 38.079 9.91553C37.512 9.51052 36.9045 9.18651 36.2969 8.90301C35.4869 8.5385 34.6769 8.25499 33.7859 8.09298C33.6644 8.09298 33.5834 8.05248 33.4619 8.05248C33.3404 8.01198 33.1784 8.01198 33.0569 8.01198C32.8139 7.97148 32.5708 7.97148 32.3278 7.93098C32.1253 7.93098 31.9228 7.89048 31.7203 7.89048L31.7203 3.15186C31.9228 3.15186 32.1253 3.15186 32.3278 3.19236C32.5708 3.19236 32.8139 3.23286 33.0569 3.27336C33.1784 3.27336 33.3404 3.31386 33.4619 3.31386C33.5834 3.31386 33.6644 3.35436 33.7859 3.35436C34.6769 3.51636 35.4869 3.79987 36.2969 4.16438C36.9045 4.44789 37.512 4.7719 38.079 5.17691C38.1195 5.17691 38.1195 5.21741 38.16 5.25791C38.5245 5.50092 38.8485 5.78442 39.1725 6.06793C40.4281 7.16146 41.4811 8.498 42.2911 10.0775C42.3316 10.1585 42.3721 10.2395 42.4531 10.361C43.2631 11.9811 43.8301 13.7631 44.1137 15.7072V15.7477C44.1542 16.0717 44.1947 16.4362 44.2352 16.8007C44.2757 17.2057 44.2757 17.6512 44.2757 18.0562C44.2352 18.0967 44.2352 18.1777 44.2352 18.2182Z" fill="#A03000"/>
<path d="M20.9221 18.3777C20.9221 18.5802 20.9221 18.7827 20.9221 18.9852C20.9626 19.5927 21.0031 20.1597 21.0436 20.7672C21.0436 20.7267 21.0436 20.6862 21.0436 20.6457V20.6052C21.3271 18.6612 21.8942 16.8791 22.7042 15.2591C22.7447 15.1781 22.7852 15.0566 22.8662 14.9756C23.6762 13.4365 24.7697 12.0595 25.9848 10.966C26.3088 10.6825 26.6733 10.399 26.9973 10.156C27.0378 10.1155 27.0378 10.1155 27.0783 10.075C27.6453 9.66994 28.2528 9.34594 28.8603 9.06243C29.6704 8.69792 30.4804 8.41441 31.3714 8.25241C31.4929 8.25241 31.5739 8.21191 31.6954 8.21191C31.8169 8.17141 31.9789 8.17141 32.1004 8.17141C32.3434 8.13091 32.5864 8.1309 32.8294 8.0904C33.0319 8.0904 33.2345 8.0499 33.437 8.0499L33.437 3.31128C33.2345 3.31128 33.0319 3.31128 32.8294 3.35178C32.5864 3.35178 32.3434 3.39228 32.1004 3.43278C31.9789 3.43278 31.8169 3.47328 31.6954 3.47328C31.5739 3.47328 31.4929 3.51378 31.3714 3.51378C30.4804 3.67579 29.6704 3.9593 28.8603 4.32381C28.2528 4.60731 27.6453 4.93132 27.0783 5.33633C27.0378 5.33633 27.0378 5.37683 26.9973 5.41733C26.6328 5.66034 26.3088 5.94385 25.9848 6.22736C24.7292 7.32088 23.6762 8.65742 22.8662 10.237C22.8257 10.318 22.7852 10.399 22.7042 10.5205C21.8942 12.1405 21.3271 13.9226 21.0436 15.8666V15.9071C21.0031 16.2311 20.9626 16.5956 20.9221 16.9601C20.8816 17.3651 20.8816 17.8107 20.8816 18.2157C20.9221 18.2562 20.9221 18.3372 20.9221 18.3777Z" fill="#A03000"/>
<path d="M23.9983 47.0157C15.6706 46.5774 9.57091 47.9288 7.56203 48.6593C9.38828 52.8597 13.2599 61.4797 14.1366 62.3563C15.0132 63.2329 29.4771 63.8173 36.5995 63.9999C44.2698 59.9821 59.8295 51.2891 60.7061 48.6593C61.8019 45.372 34.408 47.5635 23.9983 47.0157Z" fill="#070707"/>
<path d="M25.642 41.5371L25.0941 48.6595H40.9825L40.4347 41.5371H25.642Z" fill="#070707"/>
</svg>
