<svg width="65" height="59" viewBox="0 0 65 59" fill="none" xmlns="http://www.w3.org/2000/svg">
<path d="M68.7973 98.1514C65.3968 99.7408 61.2201 97.7449 59.5568 93.79L45.4374 60.1547C43.4045 55.3127 45.3265 49.9532 49.6141 48.4378C53.7169 46.9963 58.3371 49.6576 60.0004 54.3887L72.0499 88.8371C73.3805 92.6072 71.976 96.673 68.7973 98.1514Z" fill="#FFC5BB"/>
<path d="M-3.27828 98.1517C0.122205 99.741 4.29889 97.7451 5.96217 93.7902L20.0816 60.155C22.1145 55.313 20.1925 49.9535 15.9049 48.4381C11.8021 46.9965 7.14495 49.6578 5.51863 54.3889L-6.56788 88.8004C-7.89851 92.6074 -6.457 96.6732 -3.27828 98.1517Z" fill="#FFC5BB"/>
<path d="M59.0763 58.8611L55.3431 67.8059L54.3821 74.6069L52.0905 90.4265L12.6153 90.0939L10.7303 74.7547L9.95405 68.3603L6.25787 58.6763C4.2989 53.5386 8.069 48.0683 13.5763 48.0683L51.8318 48.0683C57.45 48.0313 61.2201 53.7235 59.0763 58.8611Z" fill="#033A38"/>
<path d="M17.4943 63.1862C15.7201 68.1021 13.2806 72.2419 10.7672 74.8292L9.95406 68.3609L6.25788 58.6769C4.29891 53.5392 8.06901 48.0688 13.5763 48.0688L19.4163 48.0688C20.1925 51.765 19.5641 57.3463 17.4943 63.1862Z" fill="#FFC5BB" stroke="#FFC5BB" stroke-width="0.5" stroke-miterlimit="10"/>
<path d="M59.0762 58.8613L55.3431 67.8061L54.3821 74.607C51.9426 72.0197 49.5401 67.9539 47.8029 63.1489C45.733 57.3089 45.1047 51.7277 45.8809 48.0315L51.8317 48.0315C57.4499 48.0315 61.22 53.7236 59.0762 58.8613Z" fill="#FFC5BB" stroke="#FFC5BB" stroke-width="0.5" stroke-miterlimit="10"/>
<path d="M50.6722 14.6375C50.2339 9.81613 43.0019 2.31015 39.7146 3.13204C33.688 -1.25102 26.2368 2.8033 24.9219 3.6799C22.4565 5.32351 18.3474 9.15868 17.2517 12.9938C16.1559 16.829 15.0601 29.978 15.0601 33.8132C15.0601 36.8813 21.2694 39.1093 22.7304 39.2919H43.5498C45.7413 39.2919 52.8637 36.0047 52.8637 31.6216C52.8637 27.2386 51.22 20.6641 50.6722 14.6375Z" fill="#340000"/>
<path d="M41.2689 51.046C41.4309 55.4606 37.8668 59.1462 33.4117 59.1462C29.0781 59.1462 25.5545 55.6226 25.5545 51.289C25.5545 51.208 25.5545 51.127 25.5545 51.0055L26.4455 39.3007L26.6885 36.0201L27.0935 30.5525L39.7299 30.5525L40.1754 36.3441L40.4184 39.7462L41.2689 51.046Z" fill="#FFC5BB"/>
<path d="M40.1349 36.3849C39.0414 38.734 36.4898 40.3945 33.4522 40.3945C30.2931 40.3945 27.6606 38.572 26.6481 36.0609L27.0531 30.5933L39.6894 30.5933L40.1349 36.3849Z" fill="#E59191"/>
<path d="M48.4375 16.7822C48.7615 17.3087 48.964 19.4957 48.0325 21.8448C47.749 22.5333 47.911 23.9914 46.8985 25.0039C44.2659 27.596 43.9014 21.8853 44.2659 20.4678C44.7519 18.6452 46.858 14.3116 48.4375 16.7822Z" fill="#FFC5BB"/>
<path d="M46.5745 17.0656C46.858 16.9846 47.182 17.0251 47.4655 17.1872C47.749 17.3492 47.992 17.5922 48.1135 17.8757C48.235 18.1592 48.2755 18.5237 48.235 18.8477C48.154 19.1717 47.992 19.4552 47.749 19.6172C47.7895 19.3337 47.7895 19.0502 47.749 18.8072C47.7085 18.5642 47.668 18.3212 47.587 18.1187C47.506 17.9162 47.344 17.7137 47.182 17.5517C47.0605 17.3897 46.858 17.2277 46.5745 17.0656Z" fill="#E59191"/>
<path d="M45.8859 19.3337C46.1695 19.5362 46.4125 19.8603 46.4935 20.2248C46.615 20.5893 46.615 20.9943 46.534 21.3588C46.453 21.7233 46.2505 22.0878 46.0075 22.3713C45.7644 22.6548 45.4404 22.8573 45.0759 22.9383C45.3189 22.6548 45.4809 22.3713 45.6429 22.1283C45.8049 21.8448 45.8859 21.5613 45.9669 21.2778C46.048 20.9943 46.048 20.6703 46.048 20.3463C46.048 19.9818 45.967 19.6577 45.8859 19.3337Z" fill="#E59191"/>
<path d="M18.8718 16.7822C18.5478 17.3087 18.3453 19.4957 19.2768 21.8448C19.5603 22.5333 19.3983 23.9914 20.4108 25.0039C23.0434 27.596 23.4079 21.8853 23.0434 20.4678C22.5574 18.6452 20.4513 14.3116 18.8718 16.7822Z" fill="#FFC5BB"/>
<path d="M20.7348 17.0656C20.4513 16.9846 20.1273 17.0251 19.8437 17.1872C19.5602 17.3492 19.3172 17.5922 19.1957 17.8757C19.0742 18.1592 19.0337 18.5237 19.0742 18.8477C19.1552 19.1717 19.3172 19.4552 19.5602 19.6172C19.5197 19.3337 19.5197 19.0502 19.5602 18.8072C19.6007 18.5642 19.6412 18.3212 19.7222 18.1187C19.8032 17.9162 19.9652 17.7137 20.1273 17.5517C20.2488 17.3897 20.4513 17.2277 20.7348 17.0656Z" fill="#E59191"/>
<path d="M21.4233 19.3337C21.1398 19.5362 20.8968 19.8603 20.8158 20.2248C20.6538 20.5893 20.6538 20.9538 20.7348 21.3588C20.8158 21.7233 21.0183 22.0878 21.2613 22.3713C21.5043 22.6548 21.8283 22.8573 22.1928 22.9383C21.9498 22.6548 21.7878 22.3713 21.6258 22.1283C21.4638 21.8448 21.3828 21.5613 21.3018 21.2778C21.2208 20.9943 21.2208 20.6703 21.2208 20.3463C21.2613 19.9818 21.3423 19.6577 21.4233 19.3337Z" fill="#E59191"/>
<path d="M45.8051 18.4021L45.7241 19.2932L45.6836 19.7387L45.6431 20.3867C45.6026 20.7917 45.6026 21.1967 45.5621 21.6017C45.5621 21.8447 45.5216 22.0877 45.5216 22.3713C45.4811 23.3838 45.4001 24.3558 45.2785 25.3683V25.4088C45.238 25.6113 45.2381 25.7733 45.1975 25.9758C45.157 26.1784 45.1165 26.3809 45.076 26.5834C45.0355 26.8669 44.9545 27.1909 44.833 27.4744C44.7925 27.5959 44.7925 27.6769 44.752 27.7984C44.671 28.0009 44.59 28.2439 44.509 28.4869C44.266 29.0539 44.023 29.6209 43.699 30.188C42.403 32.537 40.4184 34.6836 38.4339 36.1416L38.3934 36.1821C38.1504 36.3441 37.9074 36.5466 37.6643 36.6681C35.2343 38.2072 32.3992 38.2882 29.8881 36.9516C29.3616 36.6681 28.8756 36.3441 28.3896 35.9796C28.3896 35.9796 28.3896 35.9796 28.3491 35.9796C26.4456 34.5621 24.785 32.456 23.5295 30.188C23.4485 30.026 23.3675 29.8639 23.2865 29.7019C23.246 29.6209 23.2055 29.5399 23.165 29.4589C23.084 29.2969 23.0435 29.1754 22.9625 29.0134C22.76 28.6084 22.598 28.2034 22.436 27.7984C22.3954 27.6769 22.3549 27.5959 22.3144 27.4744C21.7474 25.8543 21.5044 24.0723 21.3829 22.3307C21.3424 22.0472 21.3424 21.7637 21.3019 21.5207C21.2614 21.1967 21.2614 20.9132 21.2209 20.5892L21.1399 19.7792C21.1399 19.6982 21.0994 19.6172 21.0994 19.4957C21.0589 19.4147 21.0589 19.2932 21.0589 19.2122C21.0184 18.9692 20.9779 18.7667 20.9779 18.5237C20.9779 18.4426 20.9779 18.4021 21.0184 18.3211C21.3019 16.2151 21.9499 14.271 22.8815 12.57C23.1245 12.1245 23.3675 11.7195 23.6105 11.3145C24.5015 9.97793 25.595 8.8439 26.8101 7.95287C26.8911 7.87187 26.9721 7.83137 27.0936 7.75037C27.2151 7.66937 27.2961 7.58836 27.4176 7.50736C27.8631 7.22385 28.3086 6.98085 28.7541 6.73784C30.0907 6.08983 31.5487 5.72532 33.0472 5.68481C33.0472 5.68481 33.0472 5.68481 33.0877 5.68481C33.1687 5.68481 33.2497 5.68481 33.3307 5.68481H33.4117C33.6142 5.68481 33.8167 5.68481 34.0193 5.72532C34.2623 5.72532 34.5053 5.76582 34.7483 5.80632C34.8698 5.80632 35.0318 5.84682 35.1533 5.84682C35.2748 5.84682 35.3558 5.88732 35.4773 5.88732C36.3683 6.04932 37.1783 6.33283 37.9884 6.69734C38.5959 6.98085 39.2034 7.30486 39.7704 7.70987C39.8109 7.70987 39.8109 7.75037 39.8514 7.79087C40.2159 8.03388 40.5399 8.31738 40.8639 8.60089C42.1195 9.69442 43.1725 11.0715 43.9825 12.6105C44.023 12.6915 44.0635 12.7725 44.1445 12.894C44.9545 14.514 45.5216 16.2961 45.8051 18.2401V18.2806C45.8051 18.3211 45.8051 18.3616 45.8051 18.4021Z" fill="#FFC5BB"/>
<path d="M36.0442 32.2945C36.4087 32.0515 37.3402 30.8769 37.3402 30.8769C37.3402 30.8769 35.5986 30.5124 34.5051 30.3099C33.7761 30.1479 33.0066 30.1884 32.2776 30.3504L29.7665 30.9174C29.7665 30.9174 30.6575 32.0515 30.7385 32.1325C31.103 32.4565 31.589 32.578 32.0346 32.659C33.0876 32.821 34.1811 32.821 35.2341 32.6185C35.5986 32.497 35.8417 32.416 36.0442 32.2945Z" fill="#D51A1A"/>
<path d="M36.1657 30.2289C35.7607 29.9454 35.3962 29.4594 34.9507 29.2974C34.5052 29.1354 33.9787 29.1759 33.5737 29.4999C33.1686 29.1759 32.6421 29.1354 32.1966 29.2974C31.7106 29.4594 31.3866 29.9454 30.9816 30.2289C30.4551 30.5934 29.8881 30.7554 29.2805 30.7554C30.3336 31.2819 31.5081 30.8769 32.3586 30.9984C32.4801 30.9984 32.6826 31.1199 32.8446 31.2009C33.0876 31.3629 33.3306 31.4034 33.5737 31.4034C33.8167 31.4034 34.0597 31.3224 34.3027 31.2009C34.5052 31.0794 34.6672 30.9984 34.7887 30.9984C35.5987 30.8769 36.8137 31.2819 37.8668 30.7554C37.2592 30.7554 36.6922 30.5934 36.1657 30.2289Z" fill="#990808"/>
<path d="M31.7917 34.8461C32.0347 34.6434 32.3182 34.4812 32.6017 34.4002C32.8852 34.3191 33.2092 34.2786 33.4927 34.2786C33.8167 34.2786 34.1002 34.3191 34.3837 34.4407C34.6672 34.5623 34.9507 34.6839 35.1938 34.8866C34.8697 34.8866 34.5862 34.8866 34.3027 34.8866H33.4927L32.6827 34.8866C32.3992 34.8461 32.1157 34.8866 31.7917 34.8461Z" fill="#FFE2DE" fill-opacity="0.22"/>
<path d="M30.6981 19.7266C30.5766 19.5646 30.4551 19.4026 30.3336 19.2811L30.0096 18.8356L29.6856 18.3901C29.5641 18.2281 29.4426 18.1066 29.3616 17.9041C29.5641 17.9446 29.7666 18.0256 29.9286 18.1471C30.0906 18.2686 30.2526 18.3901 30.3741 18.5926C30.4956 18.7546 30.5766 18.9571 30.6576 19.1596C30.6981 19.2811 30.7386 19.4836 30.6981 19.7266Z" fill="#FFE2DE" fill-opacity="0.22"/>
<path d="M30.7385 20.9008C30.7385 21.3868 30.3335 21.7918 29.8475 21.7918C29.3615 21.7918 28.9565 21.3868 28.9565 20.9008C28.9565 20.4148 29.3615 20.0098 29.8475 20.0098C30.3335 20.0098 30.7385 20.4148 30.7385 20.9008Z" fill="#FFE2DE" fill-opacity="0.22"/>
<path d="M28.4705 17.6613C28.268 17.6208 28.106 17.5397 27.944 17.4992C27.782 17.4586 27.62 17.4181 27.4175 17.3776C27.0935 17.337 26.729 17.2965 26.405 17.2965C26.081 17.2965 25.7165 17.337 25.3925 17.4181C25.0685 17.4992 24.7039 17.6208 24.3799 17.7424C24.9064 17.2154 25.676 16.9317 26.405 16.8911C26.7695 16.8911 27.1745 16.9317 27.539 17.0533C27.701 17.0938 27.9035 17.2154 28.0655 17.2965C28.187 17.4586 28.349 17.5397 28.4705 17.6613Z" fill="#C96A67"/>
<path d="M30.212 21.1031C30.212 21.1031 29.8475 18.5516 28.106 18.0656C25.5949 17.3365 24.2178 19.8881 24.2178 19.8881C24.2178 19.8881 25.4329 21.3867 27.1339 21.5892C28.7945 21.8322 30.212 21.1031 30.212 21.1031Z" fill="#FF9388"/>
<path d="M30.212 21.1034C30.212 21.1034 28.7944 21.7919 27.1339 21.5894C25.4733 21.3869 24.2178 19.8884 24.2178 19.8884L24.9873 19.4023C26.5669 18.3898 28.6324 18.8353 29.6854 20.3744L30.212 21.1034Z" fill="#FBFBFB"/>
<path d="M30.212 21.1034C29.7259 21.3869 29.1994 21.5894 28.6729 21.711C28.1059 21.8325 27.5389 21.8325 26.9719 21.7515C26.4049 21.6704 25.8783 21.3869 25.3923 21.0629C24.9468 20.7389 24.5418 20.3339 24.2178 19.8479C24.6228 20.2124 25.1088 20.4959 25.5543 20.7794C26.0403 21.0224 26.5264 21.2654 27.0124 21.3464C27.5389 21.4274 28.0654 21.4274 28.5919 21.3869C29.1184 21.3464 29.6854 21.2654 30.212 21.1034Z" fill="#C96A67"/>
<path d="M26.0404 19.929C26.0809 19.281 26.6479 18.795 27.2959 18.876C27.9439 18.9165 28.4299 19.4835 28.3489 20.1316C28.3084 20.7796 27.7414 21.2656 27.0934 21.1846C26.4859 21.1441 25.9999 20.5771 26.0404 19.929Z" fill="#330404"/>
<path d="M26.6884 19.9699C26.7289 19.6861 26.9719 19.4429 27.2959 19.4834C27.5794 19.524 27.8224 19.7672 27.7819 20.0915C27.7414 20.3753 27.4984 20.6185 27.1744 20.5779C26.8504 20.5374 26.6479 20.2942 26.6884 19.9699Z" fill="black"/>
<path d="M26.4488 19.6659C26.4681 19.5309 26.5837 19.4152 26.7379 19.4345C26.8729 19.4538 26.9885 19.5695 26.9693 19.7238C26.95 19.8588 26.8343 19.9745 26.6801 19.9553C26.5259 19.936 26.4295 19.8202 26.4488 19.6659Z" fill="white"/>
<path d="M23.124 19.5643C22.881 19.4832 22.638 19.2807 22.476 19.0782C22.719 19.1997 22.962 19.2402 23.1645 19.2807C23.4075 19.3212 23.6506 19.3212 23.8936 19.3212C24.1366 19.3212 24.3796 19.2807 24.6631 19.2402C24.9466 19.1997 25.2301 19.1187 25.5136 18.9567C25.5946 18.9162 25.6351 18.9162 25.7161 18.8757C26.2831 18.6327 26.9311 18.6327 27.5387 18.7137C28.1462 18.8352 28.7132 19.1187 29.1587 19.5643C29.4017 19.7668 29.5637 20.0098 29.7257 20.2933C29.8877 20.5768 30.0497 20.8198 30.1712 21.1033C29.7662 20.6578 29.4422 20.1313 28.9967 19.7668C28.5512 19.4022 28.0247 19.1592 27.4577 19.0377C26.8906 18.9162 26.3236 18.9567 25.7566 19.1187C25.3921 19.1997 25.0681 19.3617 24.7441 19.5643C24.5821 19.6858 24.3796 19.8478 24.1771 19.9288C23.9746 19.9693 23.7721 20.0503 23.5695 20.0098C23.367 20.0098 23.1645 19.9288 23.0025 19.8073C23.4075 19.8478 23.7316 19.8073 24.0961 19.6453H24.1366C24.0556 19.6453 23.9746 19.6858 23.8936 19.6858C23.6506 19.6858 23.367 19.6453 23.124 19.5643Z" fill="black"/>
<path d="M23.0838 19.6854C22.8003 19.5639 22.5978 19.3614 22.4358 19.1184C22.4358 19.0779 22.4358 19.0374 22.4763 19.0374H22.5168C23.0838 19.3209 23.7723 19.3209 24.4204 19.2399C24.7444 19.2399 25.0684 19.1589 25.3519 18.9969C25.6354 18.8754 25.9594 18.7134 26.3239 18.6729C26.9719 18.5514 27.7009 18.6729 28.3085 18.9564C28.916 19.2399 29.4425 19.7259 29.807 20.2929L30.2525 21.103C30.2525 21.1435 30.2525 21.184 30.212 21.184C30.1715 21.184 30.131 21.184 30.131 21.184C29.7665 20.7789 29.483 20.3334 29.1185 20.0094C28.754 19.6854 28.268 19.4019 27.7819 19.2399C27.2959 19.0779 26.7694 19.0374 26.2429 19.1184C25.9999 19.1589 25.7569 19.1994 25.5139 19.3209C25.2709 19.4019 25.0279 19.5234 24.8254 19.6449C24.6634 19.8069 24.4609 19.9284 24.2179 20.0094C23.8533 20.1309 23.3673 20.1714 23.0028 19.8879C22.9623 19.8474 22.9623 19.8069 23.0028 19.8069L23.0433 19.7664C23.4078 19.7664 23.7318 19.6449 24.0153 19.4829L24.1368 19.9284C23.9343 19.9284 23.7318 19.9284 23.5698 19.9284C23.4483 19.8069 23.2458 19.7664 23.0838 19.6854ZM23.1648 19.4424C23.3268 19.4829 23.4888 19.5234 23.6508 19.4829C23.8128 19.4829 23.9748 19.4424 24.1368 19.4019C24.2584 19.3614 24.3799 19.4424 24.4204 19.5639C24.4609 19.6854 24.3799 19.8069 24.2584 19.8474H24.2179C23.8128 19.9689 23.4078 19.9689 23.0433 19.8474L23.0838 19.7259C23.2458 19.8474 23.4078 19.8879 23.6103 19.8879C23.8128 19.8879 23.9748 19.8474 24.1773 19.8069C24.3799 19.7259 24.5419 19.6044 24.7444 19.4829C24.9874 19.3614 25.1899 19.2399 25.4734 19.1184C25.7164 19.0374 25.9999 18.9564 26.2429 18.9159C26.7694 18.8349 27.2959 18.8754 27.8224 19.0374C28.349 19.1994 28.7945 19.4829 29.1995 19.8069C29.6045 20.1714 29.888 20.6169 30.212 20.9815L30.131 21.1435L29.6855 20.3739C29.321 19.8069 28.835 19.3614 28.268 19.0779C27.6604 18.7944 27.0124 18.7134 26.3644 18.7944C26.0404 18.8349 25.7569 18.9564 25.4329 19.0779C25.1089 19.1994 24.7849 19.2804 24.4609 19.3209C23.8128 19.4019 23.0838 19.4424 22.4763 19.1184L22.5573 19.0374C22.7193 19.2399 22.9218 19.3614 23.1648 19.4424Z" fill="black"/>
<path d="M36.2062 19.7266C36.1657 19.5241 36.2062 19.3216 36.2467 19.1191C36.2872 18.9166 36.4087 18.714 36.5302 18.552C36.6517 18.39 36.8137 18.228 36.9757 18.1065C37.1377 17.985 37.3402 17.904 37.5427 17.8635C37.4212 18.0255 37.2997 18.1875 37.2187 18.3495L36.8947 18.795L36.5707 19.2406C36.4897 19.4026 36.3682 19.5646 36.2062 19.7266Z" fill="#FFE2DE" fill-opacity="0.22"/>
<path d="M37.7858 20.9013C37.7858 21.3873 37.3808 21.7923 36.8948 21.7923C36.4087 21.7923 36.0037 21.3873 36.0037 20.9013C36.0037 20.4153 36.4087 20.0103 36.8948 20.0103C37.3808 20.0103 37.7858 20.4153 37.7858 20.9013Z" fill="#FFE2DE" fill-opacity="0.22"/>
<path d="M38.1098 17.6616C38.2313 17.5399 38.3933 17.4183 38.5553 17.3373C38.7173 17.2562 38.8793 17.1751 39.0818 17.094C39.4464 16.9724 39.8109 16.9319 40.2159 16.9319C40.9854 16.9319 41.7549 17.2156 42.2409 17.7832C41.8764 17.6616 41.5524 17.5399 41.2284 17.4589C40.9044 17.3778 40.5399 17.3373 40.2159 17.3373C39.8919 17.3373 39.5274 17.3373 39.2033 17.4183C39.0413 17.4589 38.8793 17.4994 38.6768 17.5399C38.4743 17.5805 38.3123 17.621 38.1098 17.6616Z" fill="#C96A67"/>
<path d="M36.8138 21.1031C36.8138 21.1031 37.1783 18.5516 38.9198 18.0656C41.4309 17.3365 42.8079 19.8881 42.8079 19.8881C42.8079 19.8881 41.5929 21.3867 39.8919 21.5892C38.2313 21.8322 36.8138 21.1031 36.8138 21.1031Z" fill="#FF9388"/>
<path d="M36.8138 21.1034C36.8138 21.1034 38.2313 21.7919 39.8919 21.5894C41.5524 21.3869 42.808 19.8884 42.808 19.8884L42.0384 19.4023C40.4589 18.3898 38.3933 18.8353 37.3403 20.3744L36.8138 21.1034Z" fill="#FBFBFB"/>
<path d="M36.8138 21.1034C37.3403 21.2654 37.8668 21.3464 38.4338 21.3869C38.9604 21.4274 39.4869 21.4274 40.0134 21.3464C40.5399 21.2654 41.0259 21.0629 41.4714 20.7794C41.9169 20.4959 42.3624 20.2124 42.808 19.8479C42.4839 20.2934 42.1194 20.7389 41.6334 21.0629C41.1879 21.3869 40.6614 21.6299 40.0539 21.7515C39.4869 21.8325 38.9199 21.8325 38.3528 21.711C37.7858 21.6299 37.2593 21.4274 36.8138 21.1034Z" fill="#C96A67"/>
<path d="M40.9449 19.9288C40.9044 19.2808 40.3373 18.7948 39.6893 18.8758C39.0413 18.9163 38.5553 19.4833 38.6363 20.1313C38.6768 20.7793 39.2438 21.2653 39.8918 21.1843C40.5399 21.1438 40.9854 20.5768 40.9449 19.9288Z" fill="#330404"/>
<path d="M40.3373 19.9699C40.2968 19.6861 40.0538 19.4429 39.7298 19.4834C39.4463 19.524 39.2033 19.7672 39.2438 20.0915C39.2843 20.3753 39.5273 20.6185 39.8513 20.5779C40.1348 20.5374 40.3778 20.2942 40.3373 19.9699Z" fill="black"/>
<path d="M39.6605 19.6554C39.6412 19.5203 39.5255 19.4044 39.3712 19.4237C39.2362 19.443 39.1205 19.5589 39.1397 19.7133C39.159 19.8484 39.2748 19.9643 39.4291 19.945C39.5641 19.9257 39.6798 19.8098 39.6605 19.6554Z" fill="white"/>
<path d="M43.861 19.5645C44.104 19.4835 44.347 19.281 44.509 19.0785C44.266 19.2 44.023 19.2405 43.8205 19.281C43.5775 19.3215 43.3345 19.3215 43.0915 19.3215C42.8485 19.3215 42.6054 19.281 42.3219 19.2405C42.0384 19.2 41.7549 19.119 41.4714 18.957C41.3904 18.9165 41.3499 18.9165 41.2689 18.876C40.7019 18.633 40.0539 18.633 39.4464 18.714C38.8389 18.8355 38.2718 19.119 37.8263 19.5645C37.5833 19.767 37.4213 20.01 37.2593 20.2935C37.0973 20.577 36.9353 20.82 36.8138 21.1035C37.2188 20.658 37.5428 20.1315 37.9883 19.767C38.4338 19.4025 38.9604 19.1595 39.5274 19.038C40.0944 18.9165 40.6614 18.957 41.2284 19.119C41.5929 19.2 41.9169 19.362 42.2409 19.5645C42.4029 19.686 42.6054 19.848 42.808 19.929C43.0105 19.9695 43.213 20.0505 43.4155 20.01C43.618 20.01 43.8205 19.929 43.9825 19.8075C43.5775 19.848 43.2535 19.8075 42.889 19.6455H42.8485C42.9295 19.6455 43.0105 19.686 43.0915 19.686C43.3345 19.686 43.618 19.6455 43.861 19.5645Z" fill="black"/>
<path d="M43.8204 19.4428C44.0634 19.3618 44.3064 19.2403 44.4279 19.0378L44.5494 19.1188C43.9419 19.4428 43.2129 19.4023 42.5649 19.3213C42.2409 19.3213 41.8764 19.2403 41.5929 19.0783C41.2688 18.9568 40.9853 18.8353 40.6613 18.7948C40.0133 18.6733 39.3248 18.7948 38.7578 19.0783C38.1503 19.3618 37.6643 19.8074 37.3402 20.3744L36.8542 21.1439L36.7327 21.0629C37.0567 20.6579 37.3807 20.2124 37.7453 19.8884C38.1503 19.5239 38.5958 19.2403 39.1223 19.1188C39.6488 18.9568 40.1753 18.9163 40.7018 18.9973C40.9853 19.0378 41.2283 19.1188 41.4714 19.1998C41.7144 19.2808 41.9574 19.4023 42.2004 19.5644C42.3624 19.6859 42.5649 19.8074 42.7674 19.8884C42.9699 19.9289 43.1319 19.9694 43.3344 19.9694C43.5369 19.9694 43.6989 19.8884 43.8609 19.8074L43.9014 19.9289C43.5369 20.0099 43.1319 20.0099 42.7269 19.9289H42.6864C42.5649 19.8884 42.4839 19.7669 42.5244 19.6454C42.5649 19.5238 42.6864 19.4428 42.8079 19.4833C42.9699 19.5239 43.1319 19.5644 43.2939 19.5644C43.4964 19.4833 43.6584 19.4833 43.8204 19.4428ZM43.9014 19.6859C43.7394 19.7669 43.5369 19.8074 43.3344 19.8479C43.1319 19.8884 42.9294 19.8884 42.7674 19.8479L42.8889 19.4023C43.1724 19.5644 43.4964 19.6859 43.8609 19.6859C43.9014 19.6859 43.9419 19.7264 43.9419 19.7669C43.9419 19.8074 43.9419 19.8074 43.9014 19.8074C43.5369 20.0909 43.0509 20.0504 42.6864 19.9289C42.4839 19.8479 42.2814 19.7264 42.0789 19.5644C41.8359 19.4428 41.6334 19.3213 41.3903 19.2403C41.1473 19.1593 40.9043 19.0783 40.6613 19.0378C40.1348 18.9568 39.6488 18.9973 39.1223 19.1593C38.6363 19.3213 38.1908 19.5644 37.7858 19.9289C37.4212 20.2934 37.1377 20.6984 36.7732 21.1034C36.7327 21.1439 36.6922 21.1439 36.6922 21.1034C36.6517 21.0629 36.6517 21.0629 36.6922 21.0224L37.1377 20.2124C37.5022 19.6454 37.9883 19.1593 38.6363 18.8758C39.2438 18.5923 39.9323 18.4708 40.6208 18.5923C40.9448 18.6328 41.2688 18.7543 41.5929 18.9163C41.8764 19.0378 42.2004 19.1188 42.5244 19.1593C43.1724 19.2403 43.8609 19.2403 44.4279 18.9568C44.4684 18.9568 44.5089 18.9568 44.5089 18.9973V19.0378C44.4279 19.3618 44.1849 19.5644 43.9014 19.6859Z" fill="black"/>
<path d="M36.8138 15.9191C37.3403 15.5545 37.8668 15.271 38.4743 15.028C38.7578 14.9065 39.0818 14.8255 39.3653 14.7445C39.5273 14.704 39.6893 14.6635 39.8514 14.623C40.0134 14.5825 40.2564 14.5825 40.4184 14.5825C41.1474 14.623 41.7144 14.8255 42.3219 15.0685C42.8889 15.3115 43.4559 15.595 43.942 16.0001C43.2939 16.0406 42.6864 16.0001 42.0789 16.0001C41.4714 16.0001 40.9044 15.9191 40.3779 15.9596C39.9729 16.0001 39.4058 16.2026 38.8388 16.3241C38.2718 16.4861 37.7048 16.6076 37.0973 16.6886C36.8543 16.7291 36.6113 16.5266 36.6113 16.2836C36.6113 16.1621 36.6923 16.0001 36.8138 15.9191Z" fill="#340000"/>
<path d="M29.9691 16.7296C29.3615 16.6486 28.7945 16.5271 28.2275 16.3651C27.6605 16.2031 27.0935 16.0411 26.6885 16.0006C26.2025 15.9601 25.5949 16.0411 24.9874 16.0411C24.3799 16.0816 23.7724 16.0816 23.1244 16.0411C23.6104 15.6361 24.1774 15.3526 24.7444 15.1095C25.3114 14.8665 25.9189 14.664 26.648 14.6235C26.81 14.6235 27.053 14.6235 27.215 14.664C27.377 14.7045 27.5795 14.745 27.701 14.7855C28.025 14.8665 28.3085 14.9475 28.592 15.069C29.159 15.3121 29.726 15.5956 30.2526 15.9601C30.4551 16.1221 30.4956 16.4056 30.3336 16.6081C30.2931 16.6891 30.1311 16.7296 29.9691 16.7296Z" fill="#340000"/>
<path d="M35.3962 26.0161C35.4367 26.2591 35.3557 26.5021 35.2342 26.7046C35.1127 26.9071 34.9102 27.0691 34.7077 27.1906C34.3027 27.4337 33.8167 27.5552 33.3306 27.5552C32.8446 27.5552 32.3586 27.4337 31.9536 27.1906C31.7511 27.0691 31.5486 26.9071 31.4271 26.7046C31.3056 26.5021 31.2246 26.2591 31.2651 26.0161C31.3461 26.4616 31.7106 26.7451 32.1156 26.9071C32.4801 27.0691 32.9256 27.1501 33.3306 27.1501C33.7357 27.1501 34.1812 27.0691 34.5457 26.9071C34.9507 26.7451 35.3152 26.5021 35.3962 26.0161Z" fill="#C96A67"/>
<path d="M33.3307 0.946289L33.3307 5.68491H33.2497C33.1687 5.68491 33.0877 5.68491 33.0067 5.68491C33.0067 5.68491 33.0067 5.68491 32.9662 5.68491C31.4272 5.72541 30.0096 6.08992 28.6731 6.73794C28.2276 6.94045 27.7821 7.22395 27.3366 7.50746C27.2151 7.58846 27.1341 7.66947 27.0126 7.75047C26.9316 7.83147 26.8506 7.87197 26.7291 7.95297C25.514 8.844 24.4205 9.97803 23.5295 11.3146C23.246 11.7196 23.003 12.1246 22.8005 12.5701C21.8689 14.2711 21.2209 16.2152 20.9374 18.3212C20.9374 18.4022 20.9374 18.4427 20.8969 18.5238C20.8564 18.3617 20.8564 18.1997 20.8564 18.0782C20.8159 17.4302 20.7754 16.7822 20.7754 16.0937C20.7754 16.0532 20.7754 15.9722 20.7754 15.9317C20.7754 15.4862 20.7754 15.0812 20.8159 14.6761C20.8564 14.3116 20.8969 13.9876 20.9374 13.6231C21.2209 11.5171 21.8689 9.57302 22.8005 7.87197C23.0435 7.42646 23.2865 7.02145 23.5295 6.61644C24.4205 5.2799 25.514 4.14587 26.7291 3.25485C26.8101 3.17385 26.8911 3.13335 27.0126 3.05234C27.1341 2.97134 27.2151 2.89034 27.3366 2.80934C27.7821 2.52583 28.2276 2.28282 28.6731 2.03982C30.0096 1.3918 31.4677 1.02729 32.9662 0.98679C32.9662 0.98679 32.9662 0.98679 33.0067 0.98679C33.0877 0.98679 33.1687 0.98679 33.2497 0.98679L33.3307 0.98679C33.3307 0.946289 33.3307 0.946289 33.3307 0.946289Z" fill="#340000"/>
<path d="M45.886 16.0127C45.886 16.2152 45.886 16.4177 45.886 16.6202C45.8455 17.2277 45.805 17.7947 45.7645 18.4022C45.7645 18.3617 45.7645 18.3212 45.7645 18.2807V18.2402C45.481 16.2962 44.914 14.5141 44.1039 12.8941C44.0634 12.8131 44.023 12.6916 43.9419 12.6106C43.1319 11.0716 42.0384 9.69452 40.8234 8.60099C40.4994 8.31748 40.1348 8.03397 39.8108 7.79097C39.7703 7.75047 39.7703 7.75047 39.7298 7.70997C39.1628 7.30495 38.5553 6.98095 37.9478 6.69744C37.1378 6.33293 36.3277 6.04942 35.4367 5.88742C35.3152 5.88742 35.2342 5.84692 35.1127 5.84692C34.9912 5.80642 34.8292 5.80642 34.7077 5.80642C34.4647 5.76591 34.2217 5.76591 33.9787 5.72541C33.7762 5.72541 33.5737 5.68491 33.3712 5.68491L33.3712 0.946289C33.5737 0.946289 33.7762 0.946289 33.9787 0.98679C34.2217 0.98679 34.4647 1.02729 34.7077 1.06779C34.8292 1.06779 34.9912 1.10829 35.1127 1.10829C35.2342 1.10829 35.3152 1.14879 35.4367 1.14879C36.3277 1.3108 37.1378 1.59431 37.9478 1.95882C38.5553 2.24232 39.1628 2.56633 39.7298 2.97134C39.7703 2.97134 39.7703 3.01184 39.8108 3.05234C40.1753 3.29535 40.4994 3.57886 40.8234 3.86236C42.0789 4.95589 43.1319 6.29243 43.9419 7.87197C43.9824 7.95297 44.0229 8.03397 44.1039 8.15548C44.914 9.77552 45.481 11.5576 45.7645 13.5016V13.5421C45.805 13.8661 45.8455 14.2306 45.886 14.5951C45.9265 15.0002 45.9265 15.4457 45.9265 15.8507C45.886 15.8912 45.886 15.9722 45.886 16.0127Z" fill="#340000"/>
<path d="M41.9377 5.94629C42.5857 10.0369 36.8137 9.65385 33.0471 11.3954C31.2246 12.2459 20.1122 16.0662 18.9377 14.4462C17.6417 16.6738 23.9749 14.595 21.4638 15.162C20.5323 12.4889 21.2208 9.41084 22.9219 7.14278C24.6229 4.87472 27.215 3.37618 29.9285 2.64716C32.6826 1.87764 39.1431 5.62228 41.9377 5.94629Z" fill="#340000"/>
<path d="M36.9405 6.66589C36.981 7.51641 37.386 8.28593 37.9125 9.01495C39.492 11.3235 41.7601 13.1056 44.3522 14.1991C44.6357 14.3206 45.0002 14.4016 45.2432 14.1991C45.4457 13.9966 45.4052 13.6726 45.3242 13.4296C44.7572 11.1615 43.5016 9.05545 41.8816 7.39491C40.7476 6.26088 36.819 2.93979 36.9405 6.66589Z" fill="#340000"/>
<path d="M24.374 46.962C16.0463 46.5237 9.94661 47.8751 7.93773 48.6056C9.76399 52.806 13.6357 61.426 14.5123 62.3026C15.3889 63.1792 29.8528 63.7636 36.9752 63.9462C44.6455 59.9284 60.2052 51.2354 61.0818 48.6056C62.1776 45.3183 34.7837 47.5098 24.374 46.962Z" fill="#070707"/>
<path d="M26.0177 41.4834L25.4698 48.6058H41.3582L40.8104 41.4834H26.0177Z" fill="#070707"/>
</svg>
