<svg width="24" height="35" viewBox="0 0 24 35" fill="none" xmlns="http://www.w3.org/2000/svg">
<path d="M1.94473 26.502L7.65894 23.1687V14.4875L1.94473 17.8208V26.502Z" fill="#181818"/>
<path d="M16.7066 34.9999L23.4282 31.3072V20.0092L16.7066 23.8646V34.9999Z" fill="#222222"/>
<path d="M16.7066 23.8645L23.4839 19.9814L7.3718 10.7148L0.516369 14.524L16.7066 23.8645Z" fill="#F7F7F7"/>
<path d="M0.5163 14.524V25.6594L1.94485 26.5019V17.8207L15.278 25.5129V34.1941L16.7065 34.9999V23.8645L0.5163 14.524Z" fill="#181818"/>
<g opacity="0.5">
<path d="M1.94502 15.916L8.53833 19.7255V21.0807L1.94502 17.2713V15.916ZM2.01828 17.2346L8.46507 20.9709V19.7621L2.01828 16.0625V17.2346Z" fill="white"/>
<path d="M15.2781 23.6082V24.9635L8.68477 21.154V19.7987L15.2781 23.6082ZM15.2048 23.6448L8.75803 19.9453V21.154L15.2048 24.8536V23.6448Z" fill="white"/>
</g>
<path d="M12.3111 22.3993C12.2745 22.2894 12.128 22.1429 12.0181 22.1795L11.7617 22.326C11.7983 22.3627 11.8349 22.3993 11.8349 22.4726C11.8349 22.5458 11.8716 22.6191 11.9082 22.6557C11.9448 22.6923 11.9814 22.729 11.9814 22.729L12.0181 22.7656C12.2379 22.6191 12.3111 22.6191 12.3111 22.5092C12.3477 22.4726 12.3111 22.3627 12.3111 22.3993Z" fill="url(#paint0_linear_101_47754)"/>
<path d="M11.9449 22.2529C12.2746 22.436 12.2746 23.0221 11.9449 22.8389C11.7984 22.7657 11.6885 22.5825 11.6885 22.3994C11.6885 22.2529 11.7984 22.1796 11.9449 22.2529Z" fill="url(#paint1_linear_101_47754)"/>
<path d="M11.9082 22.3262C12.2012 22.5094 12.2012 23.0222 11.9082 22.8391C11.7983 22.7658 11.6884 22.5826 11.6884 22.4728C11.6884 22.2896 11.7983 22.253 11.9082 22.3262Z" fill="url(#paint2_linear_101_47754)"/>
<path d="M5.42473 18.4434C5.3881 18.3335 5.24158 18.187 5.13169 18.2236L4.87529 18.3701C4.91192 18.4068 4.94855 18.4434 4.94855 18.5166C4.94855 18.5899 4.98518 18.6632 5.0218 18.6998C5.05843 18.7364 5.09506 18.7731 5.09506 18.7731L5.13169 18.8097C5.35147 18.6632 5.42473 18.6632 5.42473 18.5533C5.46136 18.48 5.3881 18.4068 5.42473 18.4434Z" fill="url(#paint3_linear_101_47754)"/>
<path d="M5.02179 18.297C5.35146 18.4801 5.35146 19.0662 5.02179 18.8831C4.87528 18.8098 4.76539 18.6266 4.76539 18.4435C4.80202 18.297 4.91191 18.2237 5.02179 18.297Z" fill="url(#paint4_linear_101_47754)"/>
<path d="M5.02192 18.3333C5.31496 18.5165 5.31496 19.0293 5.02192 18.8461C4.91203 18.7729 4.80214 18.5897 4.80214 18.4798C4.80214 18.3333 4.91203 18.2601 5.02192 18.3333Z" fill="url(#paint5_linear_101_47754)"/>
<mask id="mask0_101_47754" style="mask-type:luminance" maskUnits="userSpaceOnUse" x="15" y="18" width="1" height="2">
<path d="M15.8254 19.2632C15.6166 19.1588 15.2686 19.1588 15.0598 19.2632C15.0598 19.1936 15.0598 19.124 15.0598 19.0196C15.2686 18.9152 15.6166 18.9152 15.8254 19.0196C15.8254 19.124 15.8254 19.1936 15.8254 19.2632Z" fill="white"/>
</mask>
<g mask="url(#mask0_101_47754)">
<path d="M15.9995 19.263V19.5066C15.9995 19.437 15.9299 19.3326 15.8255 19.2978C15.7907 19.2978 15.7907 19.263 15.7559 19.263V19.0194C15.7907 19.0194 15.8255 19.0542 15.8255 19.0542C15.9299 19.089 15.9995 19.1934 15.9995 19.263Z" fill="#333534"/>
<path d="M15.7559 19.0197V19.2632C15.7211 19.2632 15.7211 19.2633 15.6863 19.2285V18.9848C15.7211 18.9848 15.7211 18.9849 15.7559 19.0197Z" fill="#353736"/>
<path d="M15.6863 18.9848V19.2285C15.6515 19.2285 15.6515 19.2285 15.6167 19.2285V18.9848C15.6515 18.9848 15.6515 18.9848 15.6863 18.9848Z" fill="#373938"/>
<path d="M15.6167 18.9847V19.2283C15.5819 19.2283 15.5819 19.2283 15.5471 19.2283V18.9847C15.5819 18.9499 15.6167 18.9499 15.6167 18.9847Z" fill="#393B3A"/>
<path d="M15.5818 18.9499V19.1935C15.547 19.1935 15.547 19.1935 15.5122 19.1935V18.9499C15.547 18.9499 15.547 18.9499 15.5818 18.9499Z" fill="#3B3D3C"/>
<path d="M15.5122 18.9499V19.1935C15.4774 19.1935 15.4774 19.1935 15.4426 19.1935V18.9499C15.4774 18.9499 15.5122 18.9499 15.5122 18.9499Z" fill="#3D3F3E"/>
<path d="M15.4776 18.9499V19.1935C15.4428 19.1935 15.4428 19.1935 15.408 19.1935V18.9499C15.4428 18.9499 15.4428 18.9499 15.4776 18.9499Z" fill="#3F4140"/>
<path d="M15.4077 18.9499V19.1935C15.3729 19.1935 15.3729 19.1935 15.3381 19.1935V18.9499C15.3729 18.9499 15.4077 18.9499 15.4077 18.9499Z" fill="#414342"/>
<path d="M15.3386 18.9499V19.1935C15.3038 19.1935 15.3038 19.1935 15.269 19.1935V18.9499C15.3038 18.9499 15.3386 18.9499 15.3386 18.9499Z" fill="#434544"/>
<path d="M15.3036 18.9499V19.1935C15.2688 19.1935 15.234 19.1935 15.1992 19.2283V18.9847C15.234 18.9847 15.2688 18.9847 15.3036 18.9499Z" fill="#454746"/>
<path d="M15.1991 18.9848V19.2285C15.1643 19.2285 15.1295 19.2632 15.0947 19.2632V19.0197C15.0947 19.0197 15.1295 19.0196 15.1991 18.9848Z" fill="#474948"/>
</g>
<mask id="mask1_101_47754" style="mask-type:luminance" maskUnits="userSpaceOnUse" x="15" y="19" width="1" height="1">
<path d="M15.9994 19.5068C15.9994 19.4372 15.9298 19.3328 15.8254 19.298C15.8254 19.2284 15.8254 19.1588 15.8254 19.0544C15.9298 19.124 15.9994 19.1936 15.9994 19.2632C15.9994 19.3328 15.9994 19.4372 15.9994 19.5068Z" fill="white"/>
</mask>
<g mask="url(#mask1_101_47754)">
<path d="M15.9995 19.2632V19.5068C15.9995 19.4372 15.9299 19.3328 15.8255 19.298C15.7907 19.298 15.7907 19.2632 15.7559 19.2632V19.0196C15.7907 19.0196 15.8255 19.0544 15.8255 19.0544C15.9299 19.0892 15.9995 19.1936 15.9995 19.2632Z" fill="#333534"/>
</g>
<mask id="mask2_101_47754" style="mask-type:luminance" maskUnits="userSpaceOnUse" x="14" y="19" width="2" height="1">
<path d="M15.0597 19.2631C14.9553 19.3327 14.8857 19.4023 14.8857 19.4719V19.2283C14.8857 19.1587 14.9205 19.0543 15.0249 19.0195C15.0597 19.1239 15.0597 19.1935 15.0597 19.2631Z" fill="white"/>
</mask>
<g mask="url(#mask2_101_47754)">
<path d="M15.0598 19.0545V19.2981C15.025 19.2981 15.025 19.3329 14.9902 19.3329V19.0893C15.025 19.0893 15.025 19.0545 15.0598 19.0545Z" fill="#454746"/>
<path d="M14.9906 19.0892V19.3328L14.9558 19.3676V19.124C14.9558 19.124 14.9906 19.124 14.9906 19.0892Z" fill="#434544"/>
<path d="M14.9555 19.1241V19.3677C14.9555 19.3677 14.9555 19.4025 14.9207 19.4025L14.9555 19.1241C14.9555 19.1589 14.9555 19.1589 14.9555 19.1241Z" fill="#414342"/>
<path d="M14.9553 19.1588V19.4024V19.4372V19.1588C14.9205 19.1936 14.9205 19.1588 14.9553 19.1588Z" fill="#3F4140"/>
</g>
<mask id="mask3_101_47754" style="mask-type:luminance" maskUnits="userSpaceOnUse" x="14" y="19" width="2" height="1">
<path d="M15.9995 19.2631V19.5068C15.9995 19.5764 15.9299 19.6808 15.8603 19.7156C15.6515 19.82 15.3035 19.8548 15.0947 19.7156C14.9903 19.646 14.9207 19.5764 14.9207 19.5068V19.2631C14.9207 19.3327 14.9555 19.4372 15.0947 19.472C15.3035 19.5764 15.6515 19.5764 15.8603 19.472C15.9299 19.4372 15.9995 19.3327 15.9995 19.2631Z" fill="white"/>
</mask>
<g mask="url(#mask3_101_47754)">
<path d="M15.9647 19.3678V19.6114C15.9647 19.6114 15.9647 19.6462 15.9299 19.6462L15.9647 19.3678Z" fill="#418698"/>
<path d="M15.9298 19.4024V19.646L15.895 19.6808V19.4372C15.9298 19.4024 15.9298 19.4024 15.9298 19.4024Z" fill="#438A9C"/>
<path d="M15.895 19.4373V19.6809C15.8602 19.7157 15.8602 19.7157 15.8254 19.7157V19.4721C15.8602 19.4721 15.895 19.4373 15.895 19.4373Z" fill="#458EA1"/>
<path d="M15.8253 19.472V19.7156C15.7905 19.7504 15.7557 19.7504 15.7209 19.7852V19.5416C15.7557 19.5068 15.7905 19.5068 15.8253 19.472Z" fill="#4792A6"/>
<path d="M15.7211 19.5417V19.7853C15.6863 19.7853 15.6515 19.8201 15.6167 19.8201V19.5765C15.6515 19.5417 15.6863 19.5417 15.7211 19.5417Z" fill="#458EA1"/>
<path d="M15.6167 19.5417V19.7853C15.5819 19.7853 15.5819 19.7853 15.5471 19.7853V19.5417C15.5819 19.5765 15.5819 19.5765 15.6167 19.5417Z" fill="#438A9C"/>
<path d="M15.5471 19.5764V19.82C15.5123 19.82 15.5123 19.82 15.4775 19.82V19.5764C15.5123 19.5764 15.5123 19.5764 15.5471 19.5764Z" fill="#418698"/>
<path d="M15.4776 19.5764V19.82C15.4428 19.82 15.4428 19.82 15.408 19.82V19.5764C15.4428 19.5764 15.4776 19.5764 15.4776 19.5764Z" fill="#3F8293"/>
<path d="M15.4426 19.5764V19.82C15.4078 19.82 15.4078 19.82 15.373 19.82V19.5764C15.4078 19.5764 15.4078 19.5764 15.4426 19.5764Z" fill="#3D7E8F"/>
<path d="M15.3731 19.5764V19.82C15.3731 19.82 15.3383 19.82 15.3035 19.82V19.5764C15.3383 19.5764 15.3731 19.5764 15.3731 19.5764Z" fill="#3B7A8A"/>
<path d="M15.3386 19.5764V19.82C15.3038 19.82 15.3038 19.82 15.269 19.82V19.5764C15.269 19.5416 15.3038 19.5764 15.3386 19.5764Z" fill="#397685"/>
<path d="M15.2688 19.5417V19.7853C15.234 19.7853 15.234 19.7853 15.1992 19.7853V19.5417C15.234 19.5417 15.234 19.5417 15.2688 19.5417Z" fill="#377281"/>
<path d="M15.199 19.5416V19.7852C15.1642 19.7852 15.1642 19.7853 15.1294 19.7505V19.5068C15.1642 19.5416 15.199 19.5416 15.199 19.5416Z" fill="#356E7C"/>
<path d="M15.1643 19.5068V19.7504C15.1295 19.7504 15.0947 19.7156 15.0947 19.7156C14.9903 19.646 14.9207 19.5764 14.9207 19.5068V19.2631C14.9207 19.3327 14.9555 19.4372 15.0947 19.472C15.0947 19.5068 15.1295 19.5068 15.1643 19.5068Z" fill="#336A78"/>
</g>
<mask id="mask4_101_47754" style="mask-type:luminance" maskUnits="userSpaceOnUse" x="16" y="19" width="2" height="1">
<path d="M17.0432 19.9592C16.8344 19.82 16.4864 19.82 16.2776 19.9592C16.2776 19.8896 16.2776 19.82 16.2776 19.7156C16.4864 19.6112 16.8344 19.6112 17.0432 19.7156C17.0432 19.82 17.0432 19.8896 17.0432 19.9592Z" fill="white"/>
</mask>
<g mask="url(#mask4_101_47754)">
<path d="M17.1826 19.9591V20.2027C17.1826 20.1331 17.113 20.0287 17.0086 19.9939C16.9738 19.9939 16.9738 19.9591 16.939 19.9591V19.7155C16.9738 19.7155 17.0086 19.7503 17.0086 19.7503C17.1478 19.8199 17.1826 19.8895 17.1826 19.9591Z" fill="#333534"/>
<path d="M16.9739 19.7158V19.9594C16.9391 19.9594 16.9391 19.9594 16.9043 19.9246V19.681C16.9043 19.681 16.9391 19.681 16.9739 19.7158Z" fill="#353736"/>
<path d="M16.9043 19.681V19.9246C16.8695 19.9246 16.8695 19.9246 16.8347 19.9246V19.681C16.8695 19.681 16.8695 19.681 16.9043 19.681Z" fill="#373938"/>
<path d="M16.8345 19.6808V19.9244C16.8345 19.9244 16.7997 19.9244 16.7649 19.9244V19.6808C16.7997 19.6459 16.8345 19.6808 16.8345 19.6808Z" fill="#393B3A"/>
<path d="M16.7998 19.646V19.8896C16.765 19.8896 16.765 19.8896 16.7302 19.8896V19.646C16.765 19.646 16.765 19.646 16.7998 19.646Z" fill="#3B3D3C"/>
<path d="M16.7302 19.646V19.8896C16.7302 19.8896 16.6954 19.8896 16.6606 19.8896V19.646C16.6954 19.646 16.7302 19.646 16.7302 19.646Z" fill="#3D3F3E"/>
<path d="M16.6953 19.646V19.8896C16.6605 19.8896 16.6605 19.8896 16.6257 19.8896V19.646C16.6605 19.646 16.6605 19.646 16.6953 19.646Z" fill="#3F4140"/>
<path d="M16.6258 19.646V19.8896C16.591 19.8896 16.591 19.8896 16.5562 19.8896V19.646C16.591 19.646 16.591 19.646 16.6258 19.646Z" fill="#414342"/>
<path d="M16.5562 19.646V19.8896C16.5214 19.8896 16.5214 19.8896 16.4866 19.8896V19.646C16.5214 19.646 16.5562 19.646 16.5562 19.646Z" fill="#434544"/>
<path d="M16.4867 19.681V19.9246C16.4519 19.9246 16.4171 19.9246 16.3823 19.9594V19.7158C16.4171 19.681 16.4519 19.681 16.4867 19.681Z" fill="#454746"/>
<path d="M16.382 19.681V19.9246C16.3472 19.9246 16.3124 19.9594 16.2776 19.9594V19.7158C16.3124 19.7158 16.3472 19.7158 16.382 19.681Z" fill="#474948"/>
</g>
<mask id="mask5_101_47754" style="mask-type:luminance" maskUnits="userSpaceOnUse" x="13" y="19" width="2" height="1">
<path d="M14.6076 19.9592C14.3988 19.8548 14.0508 19.82 13.842 19.9592C13.842 19.8896 13.842 19.82 13.842 19.7156C14.0508 19.6112 14.3988 19.6112 14.6076 19.7156C14.6076 19.82 14.6076 19.8896 14.6076 19.9592Z" fill="white"/>
</mask>
<g mask="url(#mask5_101_47754)">
<path d="M14.7814 19.9591V20.2027C14.7814 20.1331 14.7118 20.0287 14.6074 19.9939C14.5726 19.9939 14.5726 19.9591 14.5378 19.9591V19.7155C14.5726 19.7155 14.6074 19.7503 14.6074 19.7503C14.7118 19.8199 14.7814 19.8895 14.7814 19.9591Z" fill="#333534"/>
<path d="M14.5379 19.7158V19.9594C14.5031 19.9594 14.5031 19.9594 14.4683 19.9246V19.681C14.5031 19.681 14.5379 19.681 14.5379 19.7158Z" fill="#353736"/>
<path d="M14.4685 19.681V19.9246C14.4337 19.9246 14.4337 19.9246 14.3989 19.9246V19.681C14.4337 19.681 14.4685 19.681 14.4685 19.681Z" fill="#373938"/>
<path d="M14.4336 19.6808V19.9244C14.3988 19.9244 14.3988 19.9244 14.364 19.9244V19.6808C14.3988 19.6459 14.3988 19.6808 14.4336 19.6808Z" fill="#393B3A"/>
<path d="M14.3638 19.646V19.8896C14.329 19.8896 14.329 19.8896 14.2942 19.8896V19.646C14.329 19.646 14.3638 19.646 14.3638 19.646Z" fill="#3B3D3C"/>
<path d="M14.3294 19.646V19.8896C14.2946 19.8896 14.2946 19.8896 14.2598 19.8896V19.646C14.2946 19.646 14.2946 19.646 14.3294 19.646Z" fill="#3D3F3E"/>
<path d="M14.2598 19.646V19.8896C14.225 19.8896 14.225 19.8896 14.1902 19.8896V19.646C14.225 19.646 14.2598 19.646 14.2598 19.646Z" fill="#3F4140"/>
<path d="M14.2246 19.646V19.8896C14.1898 19.8896 14.1898 19.8896 14.155 19.8896V19.646C14.155 19.646 14.1898 19.646 14.2246 19.646Z" fill="#414342"/>
<path d="M14.1553 19.646V19.8896C14.1205 19.8896 14.1205 19.8896 14.0857 19.8896V19.646C14.1205 19.646 14.1205 19.646 14.1553 19.646Z" fill="#434544"/>
<path d="M14.0856 19.681V19.9246C14.0508 19.9246 14.016 19.9246 13.9812 19.9594V19.7158C14.016 19.681 14.0508 19.681 14.0856 19.681Z" fill="#454746"/>
<path d="M13.9811 19.681V19.9246C13.9463 19.9246 13.9115 19.9594 13.8767 19.9594V19.7158C13.9115 19.7158 13.9463 19.7158 13.9811 19.681Z" fill="#474948"/>
</g>
<mask id="mask6_101_47754" style="mask-type:luminance" maskUnits="userSpaceOnUse" x="16" y="19" width="1" height="2">
<path d="M16.2779 19.9591C16.1735 20.0287 16.1387 20.0983 16.1387 20.1679V19.9243C16.1387 19.8547 16.2083 19.7503 16.2779 19.7155C16.2779 19.8199 16.2779 19.8895 16.2779 19.9591Z" fill="white"/>
</mask>
<g mask="url(#mask6_101_47754)">
<path d="M16.382 19.6809V19.9246C16.3472 19.9246 16.3124 19.9593 16.2776 19.9593V19.7157C16.3124 19.7157 16.3472 19.7157 16.382 19.6809Z" fill="#474948"/>
<path d="M16.2779 19.7505V19.9941C16.2431 19.9941 16.2431 20.0289 16.2083 20.0289V19.7853C16.2083 19.7853 16.2431 19.7505 16.2779 19.7505Z" fill="#454746"/>
<path d="M16.2084 19.7853V20.0289L16.1736 20.0637V19.8201C16.1736 19.8201 16.2084 19.8201 16.2084 19.7853Z" fill="#434544"/>
<path d="M16.1735 19.8203V20.0639C16.1735 20.0639 16.1735 20.0987 16.1387 20.0987L16.1735 19.8203C16.1735 19.8551 16.1735 19.8551 16.1735 19.8203Z" fill="#414342"/>
</g>
<mask id="mask7_101_47754" style="mask-type:luminance" maskUnits="userSpaceOnUse" x="17" y="19" width="1" height="2">
<path d="M17.1828 20.2029C17.1828 20.1333 17.1132 20.0289 17.0088 19.9941C17.0088 19.9245 17.0088 19.8549 17.0088 19.7505C17.1132 19.8201 17.1828 19.8897 17.1828 19.9593C17.1828 20.0289 17.1828 20.1333 17.1828 20.2029Z" fill="white"/>
</mask>
<g mask="url(#mask7_101_47754)">
<path d="M17.1828 19.9592V20.2028C17.1828 20.1332 17.1132 20.0288 17.0088 19.994C16.974 19.994 16.974 19.9592 16.9392 19.9592V19.7156C16.974 19.7156 17.0088 19.7504 17.0088 19.7504C17.148 19.82 17.1828 19.8896 17.1828 19.9592Z" fill="#333534"/>
</g>
<mask id="mask8_101_47754" style="mask-type:luminance" maskUnits="userSpaceOnUse" x="14" y="19" width="1" height="2">
<path d="M14.7817 20.2029C14.7817 20.1333 14.7121 20.0289 14.6077 19.9941C14.6077 19.9245 14.6077 19.8549 14.6077 19.7505C14.7121 19.8201 14.7817 19.8897 14.7817 19.9593C14.7817 20.0289 14.7817 20.1333 14.7817 20.2029Z" fill="white"/>
</mask>
<g mask="url(#mask8_101_47754)">
<path d="M14.7814 19.9592V20.2028C14.7814 20.1332 14.7118 20.0288 14.6074 19.994C14.5726 19.994 14.5726 19.9592 14.5378 19.9592V19.7156C14.5726 19.7156 14.6074 19.7504 14.6074 19.7504C14.7118 19.82 14.7814 19.8896 14.7814 19.9592Z" fill="#333534"/>
</g>
<mask id="mask9_101_47754" style="mask-type:luminance" maskUnits="userSpaceOnUse" x="13" y="19" width="1" height="2">
<path d="M13.8766 19.9591C13.7722 20.0287 13.7026 20.0983 13.7026 20.1679V19.9243C13.7026 19.8547 13.7722 19.7503 13.8766 19.7155C13.8766 19.8199 13.8766 19.8895 13.8766 19.9591Z" fill="white"/>
</mask>
<g mask="url(#mask9_101_47754)">
<path d="M13.8421 19.7505V19.9941C13.8073 19.9941 13.8073 20.0289 13.7725 20.0289V19.7853C13.8073 19.7853 13.8421 19.7505 13.8421 19.7505Z" fill="#454746"/>
<path d="M13.8073 19.7853V20.0289L13.7725 20.0637V19.8201C13.7725 19.8201 13.7725 19.8201 13.8073 19.7853Z" fill="#434544"/>
<path d="M13.7724 19.8203V20.0639C13.7724 20.0639 13.7723 20.0987 13.7375 20.0987L13.7724 19.8203C13.7376 19.8551 13.7376 19.8551 13.7724 19.8203Z" fill="#414342"/>
<path d="M13.7373 19.8896V20.1332V20.168V19.8896C13.7025 19.9244 13.7025 19.8896 13.7373 19.8896Z" fill="#3D3F3E"/>
</g>
<mask id="mask10_101_47754" style="mask-type:luminance" maskUnits="userSpaceOnUse" x="16" y="19" width="2" height="2">
<path d="M17.1826 19.9593V20.2029C17.1826 20.2725 17.1478 20.3769 17.0434 20.4117C16.8346 20.5161 16.4866 20.5161 16.2778 20.4117C16.1734 20.3421 16.1038 20.2725 16.1038 20.2029V19.9593C16.1038 20.0289 16.1734 20.1333 16.2778 20.1681C16.4866 20.2725 16.8346 20.2725 17.0434 20.1681C17.1478 20.1333 17.1826 20.0289 17.1826 19.9593Z" fill="white"/>
</mask>
<g mask="url(#mask10_101_47754)">
<path d="M17.1825 20.0635V20.3071C17.1825 20.3071 17.1825 20.3419 17.1477 20.3419L17.1825 20.0635C17.1477 20.0983 17.1477 20.0635 17.1825 20.0635Z" fill="#A85459"/>
<path d="M17.1476 20.0984V20.342L17.1128 20.3768V20.1332L17.1476 20.0984Z" fill="#AD565C"/>
<path d="M17.1128 20.1331V20.3767C17.078 20.4115 17.078 20.4115 17.0432 20.4115V20.1679C17.078 20.1679 17.1128 20.1331 17.1128 20.1331Z" fill="#B3595F"/>
<path d="M17.0431 20.168V20.4116C17.0083 20.4464 16.9735 20.4464 16.9387 20.4464V20.2028C16.9735 20.2028 17.0083 20.2028 17.0431 20.168Z" fill="#B85B61"/>
<path d="M16.9389 20.2377V20.4813C16.9041 20.4813 16.8693 20.5161 16.8345 20.5161V20.2725C16.8693 20.2377 16.9041 20.2377 16.9389 20.2377Z" fill="#B3595F"/>
<path d="M16.8342 20.2725V20.5161C16.7994 20.5161 16.7994 20.5161 16.7646 20.5161V20.2725C16.7646 20.2725 16.7994 20.2725 16.8342 20.2725Z" fill="#AD565C"/>
<path d="M16.7647 20.2725V20.5161C16.7299 20.5161 16.7299 20.5161 16.6951 20.5161V20.2725C16.7299 20.2725 16.7299 20.2725 16.7647 20.2725Z" fill="#A85459"/>
<path d="M16.6953 20.2725V20.5161C16.6605 20.5161 16.6605 20.5161 16.6257 20.5161V20.2725C16.6605 20.2725 16.6605 20.2725 16.6953 20.2725Z" fill="#A35156"/>
<path d="M16.6258 20.2725V20.5161C16.591 20.5161 16.591 20.5161 16.5562 20.5161V20.2725C16.591 20.2725 16.6258 20.2725 16.6258 20.2725Z" fill="#9E4F54"/>
<path d="M16.5908 20.2725V20.5161C16.556 20.5161 16.556 20.5161 16.5212 20.5161V20.2725C16.556 20.2725 16.556 20.2725 16.5908 20.2725Z" fill="#994C51"/>
<path d="M16.521 20.2725V20.5161C16.4862 20.5161 16.4862 20.5161 16.4514 20.5161V20.2725C16.4862 20.2725 16.521 20.2725 16.521 20.2725Z" fill="#944A4E"/>
<path d="M16.4863 20.2377V20.4813C16.4515 20.4813 16.4515 20.4813 16.4167 20.4813V20.2377C16.4515 20.2377 16.4515 20.2377 16.4863 20.2377Z" fill="#8F474C"/>
<path d="M16.4168 20.2377V20.4813C16.382 20.4813 16.382 20.4813 16.3472 20.4465V20.2029C16.382 20.2377 16.4168 20.2377 16.4168 20.2377Z" fill="#8A4549"/>
<path d="M16.3474 20.2029V20.4465C16.3126 20.4465 16.2778 20.4117 16.2778 20.4117C16.1734 20.3421 16.1038 20.2725 16.1038 20.2029V19.9593C16.1038 20.0289 16.1734 20.1333 16.2778 20.1681C16.3126 20.2029 16.3474 20.2029 16.3474 20.2029Z" fill="#854246"/>
</g>
<path d="M17.0435 19.7504C17.2524 19.8896 17.2524 20.0636 17.0435 20.2028C16.8347 20.3072 16.4867 20.3072 16.2779 20.2028C16.0691 20.0636 16.0691 19.8896 16.2779 19.7504C16.4867 19.6112 16.8347 19.6112 17.0435 19.7504Z" fill="#DC6D74"/>
<mask id="mask11_101_47754" style="mask-type:luminance" maskUnits="userSpaceOnUse" x="13" y="19" width="2" height="2">
<path d="M14.7815 19.9593V20.2029C14.7815 20.2725 14.7119 20.3769 14.6423 20.4117C14.4335 20.5161 14.0854 20.5161 13.8766 20.4117C13.7722 20.3421 13.7026 20.2725 13.7026 20.2029V19.9593C13.7026 20.0289 13.7722 20.1333 13.8766 20.1681C14.0854 20.2725 14.4335 20.2725 14.6423 20.1681C14.7467 20.1333 14.7815 20.0289 14.7815 19.9593Z" fill="white"/>
</mask>
<g mask="url(#mask11_101_47754)">
<path d="M14.7467 20.0635V20.3071C14.7467 20.3071 14.7467 20.3419 14.7119 20.3419L14.7467 20.0635Z" fill="#A8A883"/>
<path d="M14.7467 20.0984V20.342L14.7119 20.3768V20.1332C14.7119 20.1332 14.7119 20.0984 14.7467 20.0984Z" fill="#ADAD87"/>
<path d="M14.7119 20.1331V20.3767C14.6771 20.4115 14.6771 20.4115 14.6423 20.4115V20.1679C14.6423 20.1679 14.6771 20.1331 14.7119 20.1331Z" fill="#B3B38B"/>
<path d="M14.6422 20.168V20.4116C14.6074 20.4464 14.5726 20.4464 14.5378 20.4464V20.2028C14.5378 20.2028 14.5726 20.2028 14.6422 20.168Z" fill="#B8B88F"/>
<path d="M14.5031 20.2377V20.4813C14.4683 20.4813 14.4335 20.5161 14.3987 20.5161V20.2725C14.4335 20.2377 14.4683 20.2377 14.5031 20.2377Z" fill="#B3B38B"/>
<path d="M14.3987 20.2725V20.5161C14.3639 20.5161 14.3639 20.5161 14.3291 20.5161V20.2725C14.3639 20.2725 14.3987 20.2725 14.3987 20.2725Z" fill="#ADAD87"/>
<path d="M14.3291 20.2725V20.5161C14.2943 20.5161 14.2943 20.5161 14.2595 20.5161V20.2725C14.2943 20.2725 14.3291 20.2725 14.3291 20.2725Z" fill="#A8A883"/>
<path d="M14.2945 20.2725V20.5161C14.2597 20.5161 14.2597 20.5161 14.2249 20.5161V20.2725C14.2249 20.2725 14.2597 20.2725 14.2945 20.2725Z" fill="#A3A37F"/>
<path d="M14.2246 20.2725V20.5161C14.2246 20.5161 14.1898 20.5161 14.155 20.5161V20.2725C14.1898 20.2725 14.1898 20.2725 14.2246 20.2725Z" fill="#9E9E7B"/>
<path d="M14.1553 20.2725V20.5161C14.1553 20.5161 14.1205 20.5161 14.0857 20.5161V20.2725C14.1205 20.2725 14.1553 20.2725 14.1553 20.2725Z" fill="#999977"/>
<path d="M14.1201 20.2725V20.5161C14.0853 20.5161 14.0853 20.5161 14.0505 20.5161V20.2725C14.0853 20.2725 14.0853 20.2725 14.1201 20.2725Z" fill="#949473"/>
<path d="M14.0508 20.2377V20.4813C14.016 20.4813 14.016 20.4813 13.9812 20.4813V20.2377C14.016 20.2377 14.0508 20.2377 14.0508 20.2377Z" fill="#8F8F6F"/>
<path d="M14.0159 20.2377V20.4813C13.9811 20.4813 13.9811 20.4813 13.9463 20.4465V20.2029C13.9811 20.2377 13.9811 20.2377 14.0159 20.2377Z" fill="#8A8A6B"/>
<path d="M13.9462 20.2029V20.4465C13.9114 20.4465 13.8766 20.4117 13.8766 20.4117C13.7722 20.3421 13.7026 20.2725 13.7026 20.2029V19.9593C13.7026 20.0289 13.7722 20.1333 13.8766 20.1681C13.8766 20.2029 13.9114 20.2029 13.9462 20.2029Z" fill="#858567"/>
</g>
<path d="M14.6073 19.7504C14.8161 19.8896 14.8161 20.0636 14.6073 20.2028C14.3985 20.3072 14.0505 20.3072 13.8417 20.2028C13.6329 20.0984 13.6329 19.8896 13.8417 19.7504C14.0853 19.6112 14.3985 19.6112 14.6073 19.7504Z" fill="#DCDCAB"/>
<mask id="mask12_101_47754" style="mask-type:luminance" maskUnits="userSpaceOnUse" x="17" y="20" width="2" height="1">
<path d="M18.2615 20.6899C18.0527 20.5855 17.7047 20.5855 17.4958 20.6899C17.4958 20.6203 17.4958 20.5507 17.4958 20.4463C17.7047 20.3419 18.0527 20.3419 18.2615 20.4463C18.2615 20.5159 18.2615 20.5855 18.2615 20.6899Z" fill="white"/>
</mask>
<g mask="url(#mask12_101_47754)">
<path d="M18.4008 20.6551V20.8987C18.4008 20.8291 18.3312 20.7247 18.2268 20.6899C18.192 20.6899 18.192 20.6551 18.1572 20.6551V20.4115C18.192 20.4115 18.2268 20.4463 18.2268 20.4463C18.366 20.5159 18.4008 20.5855 18.4008 20.6551Z" fill="#333534"/>
<path d="M18.157 20.4115V20.6551C18.1222 20.6551 18.1222 20.6551 18.0874 20.6203V20.3767C18.1222 20.3767 18.157 20.4115 18.157 20.4115Z" fill="#353736"/>
<path d="M18.1226 20.3767V20.6203C18.0878 20.6203 18.0878 20.6203 18.053 20.6203V20.3767C18.053 20.3767 18.0878 20.3767 18.1226 20.3767Z" fill="#373938"/>
<path d="M18.0527 20.3767V20.6203C18.0179 20.6203 18.018 20.6203 17.9832 20.6203V20.3767C18.018 20.3767 18.0179 20.3767 18.0527 20.3767Z" fill="#393B3A"/>
<path d="M17.9832 20.3768V20.6204C17.9484 20.6204 17.9484 20.6204 17.9136 20.6204V20.3768C17.9484 20.342 17.9832 20.342 17.9832 20.3768Z" fill="#3B3D3C"/>
<path d="M17.9483 20.3421V20.5857C17.9135 20.5857 17.9135 20.5857 17.8787 20.5857V20.3421C17.9135 20.3421 17.9135 20.3421 17.9483 20.3421Z" fill="#3D3F3E"/>
<path d="M17.8787 20.3421V20.5857C17.8439 20.5857 17.8439 20.5857 17.8091 20.5857V20.3421C17.8439 20.3421 17.8787 20.3421 17.8787 20.3421Z" fill="#3F4140"/>
<path d="M17.844 20.3421V20.5857C17.8092 20.5857 17.8092 20.5857 17.7744 20.5857V20.3421C17.8092 20.3421 17.8092 20.3421 17.844 20.3421Z" fill="#414342"/>
<path d="M17.7744 20.3421V20.5857C17.7396 20.5857 17.7396 20.5857 17.7048 20.5857V20.3421C17.7396 20.3769 17.7396 20.3421 17.7744 20.3421Z" fill="#434544"/>
<path d="M17.7047 20.3767V20.6203C17.6699 20.6203 17.6351 20.6203 17.6003 20.6551V20.4115C17.6351 20.3767 17.6699 20.3767 17.7047 20.3767Z" fill="#454746"/>
<path d="M17.6002 20.3767V20.6203C17.5654 20.6203 17.5307 20.6551 17.4958 20.6551V20.4115C17.5307 20.4115 17.5654 20.4115 17.6002 20.3767Z" fill="#474948"/>
</g>
<mask id="mask13_101_47754" style="mask-type:luminance" maskUnits="userSpaceOnUse" x="18" y="20" width="1" height="1">
<path d="M18.4006 20.8988C18.4006 20.8292 18.331 20.7248 18.2266 20.69C18.2266 20.6204 18.2266 20.5508 18.2266 20.4464C18.331 20.516 18.4006 20.5856 18.4006 20.6552C18.4006 20.7248 18.4006 20.8292 18.4006 20.8988Z" fill="white"/>
</mask>
<g mask="url(#mask13_101_47754)">
<path d="M18.4008 20.6552V20.8988C18.4008 20.8292 18.3312 20.7248 18.2268 20.69C18.192 20.69 18.192 20.6552 18.1572 20.6552V20.4116C18.192 20.4116 18.2268 20.4464 18.2268 20.4464C18.366 20.516 18.4008 20.5856 18.4008 20.6552Z" fill="#333534"/>
</g>
<mask id="mask14_101_47754" style="mask-type:luminance" maskUnits="userSpaceOnUse" x="17" y="20" width="1" height="1">
<path d="M17.4959 20.69C17.3915 20.7596 17.3567 20.8292 17.3567 20.8988V20.6552C17.3567 20.5856 17.4263 20.4812 17.4959 20.4464C17.4959 20.516 17.4959 20.5856 17.4959 20.69Z" fill="white"/>
</mask>
<g mask="url(#mask14_101_47754)">
<path d="M17.4961 20.4462V20.6898C17.4613 20.6898 17.4613 20.7246 17.4265 20.7246V20.481C17.4265 20.481 17.4613 20.4462 17.4961 20.4462Z" fill="#454746"/>
<path d="M17.4264 20.4812V20.7248L17.3916 20.7596V20.516C17.3916 20.516 17.3916 20.516 17.4264 20.4812Z" fill="#434544"/>
<path d="M17.3917 20.5159V20.7595C17.3917 20.7595 17.3917 20.7943 17.3569 20.7943L17.3917 20.5159C17.3917 20.5507 17.3569 20.5507 17.3917 20.5159Z" fill="#414342"/>
</g>
<mask id="mask15_101_47754" style="mask-type:luminance" maskUnits="userSpaceOnUse" x="14" y="20" width="2" height="1">
<path d="M15.0597 20.6899C14.9553 20.7595 14.9205 20.8291 14.8857 20.8987V20.6551C14.8857 20.5855 14.9553 20.4811 15.0249 20.4463C15.2337 20.3419 15.5817 20.3419 15.7905 20.4463C15.895 20.5159 15.9646 20.5855 15.9646 20.6551V20.8987C15.9646 20.8291 15.895 20.7247 15.7905 20.6899C15.6165 20.5507 15.2685 20.5507 15.0597 20.6899ZM15.8254 20.4463V20.4811V20.4463Z" fill="white"/>
</mask>
<g mask="url(#mask15_101_47754)">
<path d="M15.9995 20.6551V20.8987C15.9995 20.8291 15.9299 20.7247 15.8255 20.6899C15.7907 20.6899 15.7907 20.6551 15.7559 20.6551V20.4115C15.7907 20.4115 15.8255 20.4463 15.8255 20.4463C15.9299 20.5159 15.9995 20.5855 15.9995 20.6551Z" fill="#333534"/>
<path d="M15.7559 20.4115V20.6551C15.7211 20.6551 15.7211 20.6551 15.6863 20.6203V20.3767C15.7211 20.3767 15.7211 20.4115 15.7559 20.4115Z" fill="#353736"/>
<path d="M15.6863 20.3767V20.6203C15.6515 20.6203 15.6515 20.6203 15.6167 20.6203V20.3767C15.6515 20.3767 15.6863 20.3767 15.6863 20.3767Z" fill="#373938"/>
<path d="M15.6167 20.3767V20.6203C15.5819 20.6203 15.5819 20.6203 15.5471 20.6203V20.3767C15.5819 20.3767 15.6167 20.3767 15.6167 20.3767Z" fill="#393B3A"/>
<path d="M15.5818 20.3421V20.5857C15.547 20.5857 15.547 20.5857 15.5122 20.5857V20.3421C15.547 20.3421 15.547 20.3421 15.5818 20.3421Z" fill="#3B3D3C"/>
<path d="M15.5122 20.3421V20.5857C15.4774 20.5857 15.4774 20.5857 15.4426 20.5857V20.3421C15.4774 20.3421 15.5122 20.3421 15.5122 20.3421Z" fill="#3D3F3E"/>
<path d="M15.4776 20.3421V20.5857C15.4428 20.5857 15.4428 20.5857 15.408 20.5857V20.3421C15.4428 20.3421 15.4428 20.3421 15.4776 20.3421Z" fill="#3F4140"/>
<path d="M15.408 20.3421V20.5857C15.3732 20.5857 15.3732 20.5857 15.3384 20.5857V20.3421C15.3732 20.3421 15.408 20.3421 15.408 20.3421Z" fill="#414342"/>
<path d="M15.3731 20.3421V20.5857C15.3383 20.5857 15.3383 20.5857 15.3035 20.5857V20.3421C15.3035 20.3769 15.3383 20.3421 15.3731 20.3421Z" fill="#434544"/>
<path d="M15.3036 20.3767V20.6203C15.2688 20.6203 15.234 20.6203 15.1992 20.6551V20.4115C15.234 20.3767 15.2688 20.3767 15.3036 20.3767Z" fill="#454746"/>
<path d="M15.1991 20.3767V20.6203C15.1643 20.6203 15.1295 20.6551 15.0947 20.6551V20.4115C15.0947 20.4115 15.1643 20.4115 15.1991 20.3767Z" fill="#474948"/>
<path d="M15.0598 20.4464V20.69C15.025 20.69 15.025 20.7248 14.9902 20.7248V20.4811C15.025 20.4811 15.0598 20.4464 15.0598 20.4464Z" fill="#454746"/>
<path d="M14.9906 20.4812V20.7248L14.9558 20.7596V20.516C14.9906 20.516 14.9906 20.516 14.9906 20.4812Z" fill="#434544"/>
<path d="M14.9555 20.5159V20.7595C14.9555 20.7595 14.9555 20.7943 14.9207 20.7943L14.9555 20.5159C14.9555 20.5507 14.9555 20.5507 14.9555 20.5159Z" fill="#414342"/>
<path d="M14.9554 20.5508V20.7945V20.8292V20.5508C14.9554 20.5856 14.9206 20.5856 14.9554 20.5508Z" fill="#3F4140"/>
</g>
<mask id="mask16_101_47754" style="mask-type:luminance" maskUnits="userSpaceOnUse" x="17" y="20" width="2" height="2">
<path d="M18.4008 20.6553V20.8989C18.4008 20.9685 18.3312 21.0729 18.2616 21.1077C18.0528 21.2121 17.7048 21.2121 17.496 21.1077C17.3916 21.0381 17.322 20.9685 17.322 20.8989V20.6553C17.322 20.7249 17.3916 20.8293 17.496 20.8641C17.7048 20.9685 18.0528 20.9685 18.2616 20.8641C18.366 20.8293 18.4008 20.7249 18.4008 20.6553Z" fill="white"/>
</mask>
<g mask="url(#mask16_101_47754)">
<path d="M18.3659 20.7595V21.0031C18.3659 21.0031 18.3659 21.0379 18.3311 21.0379L18.3659 20.7595Z" fill="#4D9677"/>
<path d="M18.3659 20.7945V21.0381L18.3311 21.0729V20.8293L18.3659 20.7945Z" fill="#509A7B"/>
<path d="M18.3311 20.8291V21.0727C18.2963 21.0727 18.2963 21.1075 18.2615 21.1075V20.8639C18.2963 20.8639 18.2963 20.8291 18.3311 20.8291Z" fill="#529F7F"/>
<path d="M18.2616 20.864V21.1076C18.2268 21.1424 18.192 21.1424 18.1572 21.1772V20.9336C18.192 20.9336 18.2268 20.8988 18.2616 20.864Z" fill="#54A382"/>
<path d="M18.1227 20.9337V21.1773C18.0879 21.1773 18.0531 21.2121 18.0183 21.2121V20.9685C18.0531 20.9685 18.0879 20.9337 18.1227 20.9337Z" fill="#529F7F"/>
<path d="M18.0181 20.9685V21.2121C17.9833 21.2121 17.9833 21.2121 17.9485 21.2121V20.9685C17.9833 20.9685 18.0181 20.9685 18.0181 20.9685Z" fill="#509A7B"/>
<path d="M17.9485 20.9685V21.2121C17.9137 21.2121 17.9137 21.2121 17.8789 21.2121V20.9685C17.9137 20.9685 17.9485 20.9685 17.9485 20.9685Z" fill="#4D9677"/>
<path d="M17.9136 20.9685V21.2121C17.8788 21.2121 17.8788 21.2121 17.844 21.2121V20.9685C17.8788 20.9685 17.8788 20.9685 17.9136 20.9685Z" fill="#4B9174"/>
<path d="M17.844 20.9685V21.2121C17.8092 21.2121 17.8092 21.2121 17.7744 21.2121V20.9685C17.8092 20.9685 17.844 20.9685 17.844 20.9685Z" fill="#498D70"/>
<path d="M17.8094 20.9685V21.2121C17.7746 21.2121 17.7745 21.2121 17.7397 21.2121V20.9685C17.7745 20.9685 17.7746 20.9685 17.8094 20.9685Z" fill="#46886D"/>
<path d="M17.7398 20.9685V21.2121C17.705 21.2121 17.705 21.2121 17.6702 21.2121V20.9685C17.705 20.9685 17.7398 20.9685 17.7398 20.9685Z" fill="#448469"/>
<path d="M17.7048 20.9683V21.2119C17.67 21.2119 17.6701 21.2119 17.6353 21.2119V20.9683C17.6701 20.9335 17.67 20.9335 17.7048 20.9683Z" fill="#427F65"/>
<path d="M17.635 20.9335V21.1771C17.6002 21.1771 17.6002 21.1771 17.5654 21.1423V20.8987C17.6002 20.9335 17.6002 20.9335 17.635 20.9335Z" fill="#3F7B62"/>
<path d="M17.5656 20.9336V21.1772C17.5308 21.1772 17.496 21.1424 17.496 21.1424C17.3916 21.0728 17.322 21.0032 17.322 20.9336V20.69C17.322 20.7596 17.3916 20.864 17.496 20.8988C17.5308 20.8988 17.5308 20.8988 17.5656 20.9336Z" fill="#3D765E"/>
</g>
<path d="M18.2616 20.4464C18.4704 20.5508 18.4704 20.7596 18.2616 20.8988C18.0528 21.0032 17.7048 21.0032 17.496 20.8988C17.2872 20.7944 17.2872 20.5856 17.496 20.4464C17.7048 20.3072 18.0528 20.3072 18.2616 20.4464Z" fill="#65C49C"/>
<mask id="mask17_101_47754" style="mask-type:luminance" maskUnits="userSpaceOnUse" x="14" y="20" width="2" height="2">
<path d="M15.9995 20.6553V20.8989C15.9995 20.9685 15.9647 21.0729 15.8603 21.1077C15.6515 21.2469 15.3035 21.2469 15.0947 21.1077C14.9903 21.0381 14.9207 20.9685 14.9207 20.8989V20.6553C14.9207 20.7249 14.9903 20.8293 15.0947 20.8641C15.3035 20.9685 15.6515 20.9685 15.8603 20.8641C15.9299 20.8293 15.9995 20.7597 15.9995 20.6553Z" fill="white"/>
</mask>
<g mask="url(#mask17_101_47754)">
<path d="M15.9647 20.7595V21.0031C15.9647 21.0031 15.9647 21.0379 15.9299 21.0379L15.9647 20.7595Z" fill="#A8517C"/>
<path d="M15.9298 20.7945V21.0381L15.895 21.0729V20.8293C15.9298 20.8293 15.9298 20.7945 15.9298 20.7945Z" fill="#AD5380"/>
<path d="M15.9297 20.8291V21.0727C15.8949 21.1075 15.8949 21.1075 15.8601 21.1075V20.8639C15.8601 20.8639 15.8949 20.8291 15.9297 20.8291Z" fill="#B35584"/>
<path d="M15.8603 20.864V21.1076C15.8255 21.1424 15.7907 21.1424 15.7559 21.1424V20.8988C15.7559 20.9336 15.7907 20.8988 15.8603 20.864Z" fill="#B85887"/>
<path d="M15.7211 20.9337V21.1773C15.6863 21.1773 15.6515 21.2121 15.6167 21.2121V20.9685C15.6515 20.9685 15.6863 20.9337 15.7211 20.9337Z" fill="#B35584"/>
<path d="M15.6167 20.9685V21.2121C15.5819 21.2121 15.5819 21.2121 15.5471 21.2121V20.9685C15.5819 20.9685 15.5819 20.9685 15.6167 20.9685Z" fill="#AD5380"/>
<path d="M15.5471 20.9685V21.2121C15.5123 21.2121 15.5123 21.2121 15.4775 21.2121V20.9685C15.5123 20.9685 15.5471 20.9685 15.5471 20.9685Z" fill="#A8517C"/>
<path d="M15.4776 20.9685V21.2121C15.4428 21.2121 15.4428 21.2121 15.408 21.2121V20.9685C15.4428 20.9685 15.4776 20.9685 15.4776 20.9685Z" fill="#A34E78"/>
<path d="M15.4426 20.9685V21.2121C15.4078 21.2121 15.4078 21.2121 15.373 21.2121V20.9685C15.4078 20.9685 15.4078 20.9685 15.4426 20.9685Z" fill="#9E4C75"/>
<path d="M15.3732 20.9685V21.2121H15.3384V20.9685H15.3732Z" fill="#994971"/>
<path d="M15.3386 20.9685V21.2121C15.3038 21.2121 15.3038 21.2121 15.269 21.2121V20.9685C15.3038 20.9685 15.3038 20.9685 15.3386 20.9685Z" fill="#94476D"/>
<path d="M15.2688 20.9683V21.2119C15.234 21.2119 15.234 21.2119 15.1992 21.2119V20.9683C15.234 20.9335 15.2688 20.9335 15.2688 20.9683Z" fill="#8F4469"/>
<path d="M15.2342 20.9335V21.1771C15.1994 21.1771 15.1994 21.1771 15.1646 21.1423V20.8987C15.1646 20.9335 15.1994 20.9335 15.2342 20.9335Z" fill="#8A4266"/>
<path d="M15.1643 20.9336V21.1772C15.1295 21.1772 15.0947 21.1424 15.0947 21.1424C14.9903 21.0728 14.9207 21.0032 14.9207 20.9336V20.69C14.9207 20.7596 14.9903 20.864 15.0947 20.8988C15.0947 20.8988 15.1295 20.8988 15.1643 20.9336Z" fill="#853F62"/>
</g>
<path d="M15.8255 20.4464C16.0343 20.5508 16.0343 20.7596 15.8255 20.8988C15.6167 21.0032 15.2687 21.0032 15.0599 20.8988C14.8511 20.7944 14.8511 20.5856 15.0599 20.4464C15.2687 20.3072 15.6167 20.3072 15.8255 20.4464Z" fill="#DC69A2"/>
<mask id="mask18_101_47754" style="mask-type:luminance" maskUnits="userSpaceOnUse" x="16" y="21" width="2" height="1">
<path d="M16.2779 21.386C16.1735 21.4556 16.1387 21.5252 16.1387 21.5948V21.3512C16.1387 21.2816 16.2083 21.1772 16.2779 21.1424C16.4867 21.0032 16.8347 21.038 17.0435 21.1424C17.1479 21.212 17.2175 21.2816 17.2175 21.3512V21.5948C17.2175 21.5252 17.1479 21.4208 17.0435 21.386C16.8347 21.2468 16.4867 21.2468 16.2779 21.386ZM17.0435 21.1424V21.1772V21.1424Z" fill="white"/>
</mask>
<g mask="url(#mask18_101_47754)">
<path d="M17.2175 21.3513V21.5949C17.2175 21.5253 17.1479 21.4209 17.0435 21.3861C17.0087 21.3861 17.0087 21.3513 16.9739 21.3513V21.1077C17.0087 21.1077 17.0435 21.1425 17.0435 21.1425C17.1479 21.2121 17.2175 21.2817 17.2175 21.3513Z" fill="#333534"/>
<path d="M16.9739 21.1076V21.3512C16.9391 21.3512 16.9391 21.3512 16.9043 21.3164V21.0728C16.9391 21.0728 16.9391 21.1076 16.9739 21.1076Z" fill="#353736"/>
<path d="M16.9043 21.0728V21.3164C16.8695 21.3164 16.8695 21.3164 16.8347 21.3164V21.0728C16.8695 21.0728 16.8695 21.0728 16.9043 21.0728Z" fill="#373938"/>
<path d="M16.8347 21.0728V21.3164C16.7999 21.3164 16.7999 21.3164 16.7651 21.3164V21.0728C16.7999 21.0728 16.8347 21.0728 16.8347 21.0728Z" fill="#393B3A"/>
<path d="M16.7998 21.0728V21.3164C16.7998 21.3164 16.765 21.3164 16.7302 21.3164V21.0728C16.765 21.038 16.765 21.0728 16.7998 21.0728Z" fill="#3B3D3C"/>
<path d="M16.7302 21.0382V21.2818C16.7302 21.2818 16.6954 21.2818 16.6606 21.2818V21.0382C16.6954 21.0382 16.7302 21.0382 16.7302 21.0382Z" fill="#3D3F3E"/>
<path d="M16.6953 21.0382V21.2818C16.6953 21.2818 16.6605 21.2818 16.6257 21.2818V21.0382C16.6605 21.0382 16.6605 21.0382 16.6953 21.0382Z" fill="#3F4140"/>
<path d="M16.626 21.0382V21.2818C16.5912 21.2818 16.5912 21.2818 16.5564 21.2818V21.0382C16.5912 21.0382 16.626 21.0382 16.626 21.0382Z" fill="#414342"/>
<path d="M16.5911 21.0382V21.2818C16.5563 21.2818 16.5563 21.2818 16.5215 21.2818V21.0382C16.5215 21.073 16.5563 21.073 16.5911 21.0382Z" fill="#434544"/>
<path d="M16.5214 21.0728V21.3164C16.4866 21.3164 16.4518 21.3164 16.417 21.3512V21.1076C16.4518 21.0728 16.4866 21.0728 16.5214 21.0728Z" fill="#454746"/>
<path d="M16.4172 21.0728V21.3164C16.3824 21.3164 16.3475 21.3512 16.3127 21.3512V21.1076C16.3127 21.1076 16.3476 21.1076 16.4172 21.0728Z" fill="#474948"/>
<path d="M16.2779 21.1425V21.3861C16.2431 21.3861 16.2431 21.4209 16.2083 21.4209V21.1773C16.2431 21.1773 16.2431 21.1773 16.2779 21.1425Z" fill="#454746"/>
<path d="M16.2084 21.2121V21.4557L16.1736 21.4905V21.2469C16.1736 21.2121 16.2084 21.2121 16.2084 21.2121Z" fill="#434544"/>
<path d="M16.1735 21.247V21.4906C16.1735 21.4906 16.1735 21.5254 16.1387 21.5254L16.1735 21.247Z" fill="#414342"/>
<path d="M16.1736 21.247V21.4906V21.5254V21.247C16.1388 21.2818 16.1388 21.2818 16.1736 21.247Z" fill="#3F4140"/>
</g>
<mask id="mask19_101_47754" style="mask-type:luminance" maskUnits="userSpaceOnUse" x="16" y="21" width="2" height="1">
<path d="M17.2175 21.3512V21.5948C17.2175 21.6644 17.1479 21.7688 17.0783 21.8036C16.8695 21.908 16.5215 21.908 16.3127 21.8036C16.2083 21.734 16.1387 21.6644 16.1387 21.5948V21.3512C16.1387 21.4208 16.2083 21.5252 16.3127 21.56C16.5215 21.6644 16.8695 21.6644 17.0783 21.56C17.1479 21.5252 17.2175 21.4556 17.2175 21.3512Z" fill="white"/>
</mask>
<g mask="url(#mask19_101_47754)">
<path d="M17.2173 21.3859V21.6295V21.6643V21.3859C17.1825 21.4207 17.1825 21.4207 17.2173 21.3859Z" fill="#426E6E"/>
<path d="M17.1827 21.4555V21.6991C17.1827 21.6991 17.1827 21.7339 17.1479 21.7339L17.1827 21.4555Z" fill="#477575"/>
<path d="M17.1478 21.4904V21.734L17.113 21.7688V21.5252C17.1478 21.5252 17.1478 21.4904 17.1478 21.4904Z" fill="#497978"/>
<path d="M17.1131 21.5252V21.7688C17.0783 21.8036 17.0783 21.8036 17.0435 21.8036V21.56C17.0783 21.56 17.1131 21.56 17.1131 21.5252Z" fill="#4B7D7C"/>
<path d="M17.0439 21.56V21.8036C17.0091 21.8384 16.9743 21.8384 16.9395 21.8384V21.5948C16.9743 21.6296 17.0091 21.5948 17.0439 21.56C17.0439 21.5948 17.0439 21.5948 17.0439 21.56Z" fill="#4D807F"/>
<path d="M16.9391 21.6297V21.8733C16.9043 21.8733 16.8695 21.9081 16.8347 21.9081V21.6645C16.8695 21.6645 16.9043 21.6297 16.9391 21.6297Z" fill="#4B7D7C"/>
<path d="M16.8347 21.6645V21.9081C16.7999 21.9081 16.7999 21.9081 16.7651 21.9081V21.6645C16.7999 21.6645 16.7999 21.6645 16.8347 21.6645Z" fill="#497978"/>
<path d="M16.7652 21.6645V21.9081C16.7304 21.9081 16.7304 21.9081 16.6956 21.9081V21.6645C16.7304 21.6645 16.7304 21.6645 16.7652 21.6645Z" fill="#477575"/>
<path d="M16.6953 21.6645V21.9081C16.6605 21.9081 16.6605 21.9081 16.6257 21.9081V21.6645C16.6605 21.6645 16.6953 21.6645 16.6953 21.6645Z" fill="#447271"/>
<path d="M16.6607 21.6645V21.9081C16.6607 21.9081 16.6259 21.9081 16.5911 21.9081V21.6645C16.6259 21.6645 16.6259 21.6645 16.6607 21.6645Z" fill="#426E6E"/>
<path d="M16.591 21.6645V21.9081H16.5562V21.6645H16.591Z" fill="#406B6A"/>
<path d="M16.5562 21.6645V21.9081C16.5214 21.9081 16.5214 21.9081 16.4866 21.9081V21.6645C16.4866 21.6645 16.5214 21.6645 16.5562 21.6645Z" fill="#3E6767"/>
<path d="M16.4866 21.6643V21.9079C16.4518 21.9079 16.4518 21.9079 16.417 21.9079V21.6643C16.4518 21.6295 16.4518 21.6643 16.4866 21.6643Z" fill="#3C6463"/>
<path d="M16.4173 21.6295V21.8731C16.3825 21.8731 16.3825 21.8731 16.3477 21.8383V21.5947C16.3825 21.6295 16.4173 21.6295 16.4173 21.6295Z" fill="#3A6060"/>
<path d="M16.3823 21.6295V21.8731C16.3475 21.8731 16.3127 21.8383 16.3127 21.8383C16.2083 21.7687 16.1387 21.6991 16.1387 21.6295V21.3859C16.1387 21.4555 16.2083 21.5599 16.3127 21.5947C16.3127 21.5947 16.3475 21.5947 16.3823 21.6295Z" fill="#385D5C"/>
</g>
<path d="M17.0435 21.1424C17.2524 21.2468 17.2524 21.4556 17.0435 21.5948C16.8347 21.6992 16.4867 21.6992 16.2779 21.5948C16.0691 21.4904 16.0691 21.2816 16.2779 21.1424C16.4867 21.0032 16.8347 21.0032 17.0435 21.1424Z" fill="#5C9999"/>
<path d="M15.3729 18.4279L19.1662 20.6203L16.6954 22.0472L12.9021 19.8547L15.3729 18.4279ZM15.0945 20.8987C15.3033 21.0031 15.6513 21.0031 15.8601 20.8987C16.069 20.7943 16.069 20.5855 15.8601 20.4463C15.6513 20.3419 15.3033 20.3071 15.0945 20.4463C14.8509 20.5507 14.8509 20.7595 15.0945 20.8987ZM16.2778 20.1679C16.4866 20.2723 16.8346 20.2723 17.0434 20.1679C17.2522 20.0635 17.2522 19.8547 17.0434 19.7155C16.8346 19.6111 16.4866 19.6111 16.2778 19.7155C16.069 19.8547 16.069 20.0635 16.2778 20.1679ZM15.0597 19.4719C15.2685 19.5763 15.6165 19.5763 15.8253 19.4719C16.0342 19.3675 16.0342 19.1587 15.8253 19.0195C15.6165 18.9151 15.2685 18.9151 15.0597 19.0195C14.8509 19.1587 14.8509 19.3675 15.0597 19.4719ZM13.8765 20.1679C14.0853 20.2723 14.4333 20.2723 14.6421 20.1679C14.8509 20.0287 14.8509 19.8547 14.6421 19.7155C14.4333 19.6111 14.0853 19.6111 13.8765 19.7155C13.6677 19.8547 13.6677 20.0635 13.8765 20.1679ZM17.4958 20.8987C17.7046 21.0031 18.0526 21.0031 18.2614 20.8987C18.4702 20.7943 18.4702 20.5855 18.2614 20.4463C18.0526 20.3419 17.7046 20.3419 17.4958 20.4463C17.287 20.5507 17.287 20.7595 17.4958 20.8987ZM16.2778 21.5948C16.4866 21.6992 16.8346 21.6992 17.0434 21.5948C17.2522 21.4556 17.2522 21.2816 17.0434 21.1424C16.8346 21.038 16.4866 21.0032 16.2778 21.1424C16.069 21.2468 16.069 21.4556 16.2778 21.5948Z" fill="#4A4A4A"/>
<path d="M15.8255 19.0544C16.0343 19.1936 16.0343 19.3676 15.8255 19.5068C15.6167 19.6112 15.2687 19.6112 15.0599 19.5068C14.8511 19.4024 14.8511 19.1936 15.0599 19.0544C15.2687 18.9152 15.6167 18.9152 15.8255 19.0544Z" fill="#55AFC6"/>
<path d="M19.2011 20.6204V20.864L16.7302 22.2908V22.082L19.2011 20.6204Z" fill="#4C4E4D"/>
<path d="M16.7303 22.0819V22.2907L12.937 20.0983V19.8547L16.7303 22.0819Z" fill="#353636"/>
<mask id="mask20_101_47754" style="mask-type:luminance" maskUnits="userSpaceOnUse" x="6" y="15" width="2" height="2">
<path d="M7.22992 15.2448V16.3933C7.22992 16.4281 7.19513 16.4976 7.12552 16.5325C7.02112 16.6021 6.81231 16.6021 6.70791 16.5325C6.63831 16.4976 6.60352 16.4629 6.60352 16.3933V15.2448C6.60352 15.2796 6.63831 15.3492 6.70791 15.384C6.81231 15.4536 7.02112 15.4536 7.12552 15.384C7.19513 15.3144 7.22992 15.2796 7.22992 15.2448Z" fill="white"/>
</mask>
<g mask="url(#mask20_101_47754)">
<path d="M7.19545 15.3143V16.4627C7.19545 16.4627 7.19545 16.4627 7.16064 16.4975L7.19545 15.3143Z" fill="#281825"/>
<path d="M7.19545 15.3143V16.4627L7.16064 16.4975V15.3491C7.16064 15.3491 7.16065 15.3491 7.19545 15.3143Z" fill="#291926"/>
<path d="M7.12576 15.3491V16.4975C7.09096 16.4975 7.09095 16.5323 7.05615 16.5323V15.3839C7.09095 15.3839 7.12576 15.3839 7.12576 15.3491Z" fill="#2A1A27"/>
<path d="M7.05617 15.3841V16.5325C7.02137 16.5325 7.02137 16.5325 6.98657 16.5325V15.3841C7.02137 15.3841 7.05617 15.3841 7.05617 15.3841Z" fill="#291926"/>
<path d="M7.02137 15.3841V16.5325H6.98657V15.3841C6.98657 15.4189 6.98657 15.4189 7.02137 15.3841Z" fill="#281825"/>
<path d="M6.98646 15.4188V16.5672H6.95166L6.98646 15.4188C6.95166 15.4188 6.95166 15.4188 6.98646 15.4188Z" fill="#271824"/>
<path d="M6.95155 15.4188V16.5672H6.91675L6.95155 15.4188C6.91675 15.4188 6.91675 15.4188 6.95155 15.4188Z" fill="#261723"/>
<path d="M6.91688 15.4188V16.5672H6.88208L6.91688 15.4188C6.88208 15.4188 6.88208 15.4188 6.91688 15.4188Z" fill="#251621"/>
<path d="M6.88196 15.4188V16.5672H6.84717L6.88196 15.4188Z" fill="#231620"/>
<path d="M6.8473 15.4188V16.5672H6.8125L6.8473 15.4188Z" fill="#22151F"/>
<path d="M6.81263 15.3841V16.5325H6.77783L6.81263 15.3841Z" fill="#21141E"/>
<path d="M6.77797 15.3841V16.5325H6.74316V15.3841C6.77796 15.3841 6.77797 15.3841 6.77797 15.3841Z" fill="#20131D"/>
<path d="M6.74272 15.3841V16.5325C6.74272 16.5325 6.70791 16.5325 6.70791 16.4977C6.63831 16.4629 6.60352 16.4281 6.60352 16.3585V15.2101C6.60352 15.2449 6.63831 15.3145 6.70791 15.3493L6.74272 15.3841Z" fill="#1F131C"/>
</g>
<path d="M7.1258 15.1056C7.2302 15.1752 7.2302 15.2795 7.1258 15.3492C7.02139 15.4188 6.81259 15.4188 6.70818 15.3492C6.60378 15.2795 6.60378 15.1752 6.70818 15.1056C6.81259 15.036 7.02139 15.036 7.1258 15.1056Z" fill="#331F2F"/>
<path d="M6.70801 14.3051V15.2099C6.70801 15.2447 6.74281 15.2795 6.77761 15.3143H6.81242H6.84722C6.84722 15.3143 6.84721 15.3143 6.88201 15.3143C6.88201 15.3143 6.88201 15.3143 6.91681 15.3143C6.91681 15.3143 6.91682 15.3143 6.95162 15.3143C6.95162 15.3143 6.95162 15.3143 6.98642 15.3143C6.98642 15.3143 6.98642 15.3143 7.02122 15.3143H7.05601H7.09082C7.12562 15.3143 7.12562 15.3144 7.12562 15.2796C7.12562 15.2796 7.16042 15.2796 7.16042 15.2448V14.8619C7.09082 14.8271 6.98641 14.7923 6.88201 14.6879C6.77761 14.5487 6.70801 14.4095 6.70801 14.3051Z" fill="#B92C2D"/>
<path d="M7.12559 14.5835L7.1604 15.0011L6.81239 14.6531L6.77759 14.4443L7.12559 14.5835Z" fill="#B92C2D"/>
<path d="M7.05617 14.3399C7.16057 14.4443 7.19538 14.6183 7.09097 14.6531C7.02137 14.7227 6.88217 14.6879 6.77777 14.5487C6.67337 14.4443 6.63857 14.2703 6.74297 14.2355C6.81257 14.1659 6.95177 14.2007 7.05617 14.3399Z" fill="#9F2627"/>
<mask id="mask21_101_47754" style="mask-type:luminance" maskUnits="userSpaceOnUse" x="7" y="15" width="2" height="3">
<path d="M8.29975 15.9061V17.0545C8.29975 17.0893 8.26495 17.1589 8.19535 17.1937C8.09095 17.2633 7.88214 17.2633 7.77774 17.1937C7.70814 17.1589 7.67334 17.1241 7.67334 17.0545V15.9061C7.67334 15.9409 7.70814 16.0105 7.77774 16.0453C7.88214 16.1149 8.09095 16.1149 8.19535 16.0453C8.29975 15.9757 8.29975 15.9409 8.29975 15.9061Z" fill="white"/>
</mask>
<g mask="url(#mask21_101_47754)">
<path d="M8.29968 15.9756V17.124C8.29968 17.124 8.29969 17.124 8.26489 17.1588L8.29968 15.9756C8.26488 15.9756 8.26488 15.9756 8.29968 15.9756Z" fill="#281825"/>
<path d="M8.26503 15.9756V17.124L8.23022 17.1588V16.0104C8.23022 16.0104 8.26503 16.0104 8.26503 15.9756Z" fill="#291926"/>
<path d="M8.23049 16.0104V17.1588C8.19569 17.1588 8.19569 17.1936 8.16089 17.1936V16.0452C8.19569 16.0452 8.19569 16.0452 8.23049 16.0104Z" fill="#2A1A27"/>
<path d="M8.16066 16.0452V17.1936C8.12586 17.1936 8.12587 17.1936 8.09106 17.1936V16.0452C8.12587 16.0452 8.12586 16.0452 8.16066 16.0452Z" fill="#291926"/>
<path d="M8.09096 16.0452V17.1936H8.05615V16.0452C8.09095 16.08 8.09096 16.08 8.09096 16.0452Z" fill="#281825"/>
<path d="M8.05604 16.08V17.2285H8.02124L8.05604 16.08Z" fill="#271824"/>
<path d="M8.02162 16.08V17.2285H7.98682L8.02162 16.08Z" fill="#261723"/>
<path d="M7.98671 16.08V17.2285H7.9519L7.98671 16.08Z" fill="#251621"/>
<path d="M7.95178 16.08V17.2285H7.91699L7.95178 16.08Z" fill="#231620"/>
<path d="M7.95178 16.0798V17.2283H7.91699L7.95178 16.0798C7.91698 16.0798 7.91698 16.045 7.95178 16.0798Z" fill="#22151F"/>
<path d="M7.91688 16.0452V17.1936H7.88208L7.91688 16.0452C7.88208 16.0452 7.88208 16.0452 7.91688 16.0452Z" fill="#21141E"/>
<path d="M7.88197 16.0452V17.1936H7.84717V16.0452H7.88197Z" fill="#20131D"/>
<path d="M7.84721 16.0453V17.1937C7.84721 17.1937 7.81241 17.1937 7.81241 17.1589C7.7428 17.1241 7.70801 17.0893 7.70801 17.0197V15.8713C7.70801 15.9061 7.7428 15.9757 7.81241 16.0105C7.81241 16.0105 7.81241 16.0453 7.84721 16.0453Z" fill="#1F131C"/>
</g>
<path d="M8.23029 15.7668C8.33469 15.8364 8.33469 15.9408 8.23029 16.0104C8.12589 16.08 7.91708 16.08 7.81268 16.0104C7.70827 15.9408 7.70827 15.8364 7.81268 15.7668C7.91708 15.6972 8.09109 15.6972 8.23029 15.7668Z" fill="#331F2F"/>
<path d="M7.77759 14.9664V15.8712C7.77759 15.906 7.81239 15.9408 7.84719 15.9756H7.882H7.9168C7.9168 15.9756 7.91679 15.9756 7.95159 15.9756C7.95159 15.9756 7.95159 15.9756 7.98639 15.9756C7.98639 15.9756 7.9864 15.9756 8.0212 15.9756C8.0212 15.9756 8.0212 15.9756 8.056 15.9756C8.056 15.9756 8.056 15.9756 8.0908 15.9756H8.12559H8.1604C8.1952 15.9756 8.1952 15.9756 8.1952 15.9408C8.1952 15.9408 8.23 15.9408 8.23 15.906V15.5232C8.1604 15.4884 8.05599 15.4536 7.95159 15.3492C7.84719 15.21 7.77759 15.0708 7.77759 14.9664Z" fill="#CE5B9A"/>
<path d="M8.23009 15.245V15.6626L7.88208 15.3146V15.1058L8.23009 15.245Z" fill="#CE5B9A"/>
<path d="M8.12575 15.0012C8.23015 15.1056 8.26496 15.2448 8.16055 15.3144C8.09095 15.384 7.95175 15.3492 7.84735 15.21C7.74295 15.1056 7.70815 14.9316 7.81255 14.8968C7.91695 14.8272 8.05615 14.862 8.12575 15.0012Z" fill="#DC69A2"/>
<mask id="mask22_101_47754" style="mask-type:luminance" maskUnits="userSpaceOnUse" x="8" y="16" width="2" height="2">
<path d="M9.37836 16.4279V17.5763C9.37836 17.6111 9.34356 17.6808 9.27396 17.7156C9.16956 17.7852 8.96075 17.7852 8.85635 17.7156C8.78675 17.6808 8.75195 17.6459 8.75195 17.5763V16.4279C8.75195 16.4627 8.78675 16.5323 8.85635 16.5671C8.96075 16.6367 9.16956 16.6367 9.27396 16.5671C9.34356 16.4975 9.37836 16.4627 9.37836 16.4279Z" fill="white"/>
</mask>
<g mask="url(#mask22_101_47754)">
<path d="M9.37815 16.4628V17.6112C9.37815 17.6112 9.37815 17.6112 9.37815 17.646V16.4628C9.34335 16.4628 9.34335 16.4628 9.37815 16.4628Z" fill="#271824"/>
<path d="M9.34364 16.4975V17.6459C9.34364 17.6459 9.34364 17.6459 9.30884 17.6807L9.34364 16.4975Z" fill="#281825"/>
<path d="M9.34364 16.4975V17.6459L9.30884 17.6807V16.5323C9.30884 16.5323 9.30884 16.4975 9.34364 16.4975Z" fill="#291926"/>
<path d="M9.27395 16.5324V17.6808C9.23915 17.6808 9.23915 17.7156 9.20435 17.7156V16.5672C9.23915 16.5672 9.27395 16.5324 9.27395 16.5324Z" fill="#2A1A27"/>
<path d="M9.23928 16.5671V17.7155C9.20448 17.7155 9.20448 17.7155 9.16968 17.7155V16.5671C9.16968 16.5671 9.20448 16.5671 9.23928 16.5671Z" fill="#291926"/>
<path d="M9.16957 16.5671V17.7155H9.13477V16.5671C9.13477 16.5671 9.13477 16.5671 9.16957 16.5671Z" fill="#281825"/>
<path d="M9.13465 16.5671V17.7155H9.09985L9.13465 16.5671C9.09985 16.6019 9.09985 16.6019 9.13465 16.5671Z" fill="#271824"/>
<path d="M9.09974 16.6019V17.7504H9.06494L9.09974 16.6019C9.06494 16.6019 9.06494 16.6019 9.09974 16.6019Z" fill="#261723"/>
<path d="M9.06483 16.6019V17.7504H9.03003L9.06483 16.6019Z" fill="#251621"/>
<path d="M9.03016 16.602V17.7504H8.99536L9.03016 16.602C9.03016 16.5672 8.99536 16.5672 9.03016 16.602Z" fill="#231620"/>
<path d="M8.9955 16.5671V17.7155H8.96069L8.9955 16.5671Z" fill="#22151F"/>
<path d="M8.96057 16.5671V17.7155H8.92578L8.96057 16.5671Z" fill="#21141E"/>
<path d="M8.92592 16.5671V17.7155H8.89111V16.5671C8.92591 16.5671 8.92592 16.5671 8.92592 16.5671Z" fill="#20131D"/>
<path d="M8.89115 16.5671V17.7156C8.89115 17.7156 8.85635 17.7156 8.85635 17.6808C8.78675 17.646 8.75195 17.6112 8.75195 17.5416V16.3931C8.75195 16.4279 8.78675 16.4975 8.85635 16.5323C8.89115 16.5323 8.89115 16.5671 8.89115 16.5671Z" fill="#1F131C"/>
</g>
<path d="M9.27374 16.2887C9.37815 16.3583 9.37815 16.4626 9.27374 16.5322C9.16934 16.6019 8.96054 16.6019 8.85613 16.5322C8.75173 16.4626 8.75173 16.3583 8.85613 16.2887C8.96054 16.219 9.16934 16.219 9.27374 16.2887Z" fill="#331F2F"/>
<path d="M8.8562 15.4885V16.3933C8.8562 16.4281 8.89101 16.4629 8.92581 16.4977H8.9606H8.9954C8.9954 16.4977 8.9954 16.4977 9.0302 16.4977C9.0302 16.4977 9.03021 16.4977 9.06501 16.4977C9.06501 16.4977 9.06501 16.4977 9.09981 16.4977C9.09981 16.4977 9.0998 16.4977 9.1346 16.4977C9.1346 16.4977 9.1346 16.4977 9.1694 16.4977H9.20421H9.23901C9.27381 16.4977 9.27381 16.4977 9.27381 16.4629C9.27381 16.4629 9.3086 16.4629 9.3086 16.4281V16.0453C9.239 16.0105 9.13461 15.9757 9.0302 15.8713C8.9258 15.7321 8.8562 15.5929 8.8562 15.4885Z" fill="#DC6D74"/>
<path d="M9.30858 15.7668V16.1844L8.96057 15.8364L8.92578 15.6276L9.30858 15.7668Z" fill="#DC6D74"/>
<path d="M9.20412 15.4882C9.30852 15.5926 9.34333 15.7318 9.23892 15.8014C9.16932 15.871 9.03012 15.8362 8.92572 15.697C8.82132 15.5926 8.78652 15.4186 8.89092 15.3838C8.96052 15.349 9.09972 15.3838 9.20412 15.4882Z" fill="#E87C87"/>
<mask id="mask23_101_47754" style="mask-type:luminance" maskUnits="userSpaceOnUse" x="11" y="15" width="2" height="3">
<path d="M11.7919 17.3485L12.0054 17.379C12.1274 17.4095 12.2495 17.3485 12.341 17.2265C12.5545 16.952 12.646 16.4944 12.5545 16.1588C12.4935 16.0063 12.402 15.8843 12.28 15.8843L12.0664 15.8538C12.1885 15.8843 12.28 15.9758 12.341 16.1283C12.463 16.4639 12.3715 16.9214 12.1275 17.196C12.0359 17.318 11.9139 17.379 11.7919 17.3485Z" fill="white"/>
</mask>
<g mask="url(#mask23_101_47754)">
<path d="M11.7916 17.379L12.0051 17.4095H12.0356L11.8221 17.379C11.8221 17.379 11.8221 17.379 11.7916 17.379Z" fill="#170E16"/>
<path d="M11.8529 17.379L12.0664 17.4095H12.0969L11.8834 17.379H11.8529Z" fill="#180F16"/>
<path d="M11.8832 17.3485L12.0967 17.379C12.1272 17.379 12.1272 17.379 12.1577 17.379L11.9442 17.3485C11.9137 17.3485 11.9137 17.3485 11.8832 17.3485Z" fill="#190F17"/>
<path d="M11.9442 17.3484L12.1577 17.379C12.1882 17.379 12.1882 17.3789 12.2188 17.3484L12.0052 17.3179C11.9747 17.3484 11.9442 17.3484 11.9442 17.3484Z" fill="#1A1018"/>
<path d="M11.9747 17.3179L12.1883 17.3484C12.2188 17.3484 12.2188 17.3179 12.2493 17.3179L12.0357 17.2874C12.0357 17.3179 12.0052 17.3179 11.9747 17.3179Z" fill="#1B1018"/>
<path d="M12.0355 17.2875L12.2491 17.318C12.2796 17.2875 12.3101 17.257 12.3406 17.2265L12.1271 17.196C12.0965 17.257 12.066 17.257 12.0355 17.2875Z" fill="#1B1119"/>
<path d="M12.1271 17.196L12.3406 17.2265C12.3711 17.196 12.4016 17.135 12.4321 17.074L12.2186 17.0435C12.2186 17.1045 12.1881 17.1655 12.1271 17.196Z" fill="#1C111A"/>
<path d="M12.2491 17.0433L12.4627 17.0738C12.4932 17.0433 12.4932 16.9823 12.5237 16.9517L12.3101 16.9212C12.2796 16.9517 12.2797 17.0128 12.2491 17.0433Z" fill="#1B1119"/>
<path d="M12.3102 16.9212L12.5237 16.9517C12.5237 16.9212 12.5542 16.8907 12.5542 16.8602L12.3407 16.8297C12.3407 16.8602 12.3102 16.8907 12.3102 16.9212Z" fill="#1B1018"/>
<path d="M12.3407 16.8298L12.5542 16.8603C12.5542 16.8298 12.5847 16.7993 12.5847 16.7688L12.3712 16.7383C12.3407 16.7688 12.3407 16.7993 12.3407 16.8298Z" fill="#1A1018"/>
<path d="M12.3712 16.7383L12.5847 16.7688C12.5847 16.7383 12.5847 16.7078 12.6152 16.6773L12.4017 16.6468C12.3712 16.6773 12.3712 16.7078 12.3712 16.7383Z" fill="#190F17"/>
<path d="M12.3712 16.6772L12.5847 16.7077C12.5847 16.6772 12.5847 16.6467 12.5847 16.6467L12.3712 16.6162C12.3712 16.6162 12.3712 16.6467 12.3712 16.6772Z" fill="#180F16"/>
<path d="M12.4017 16.5857L12.6152 16.6162C12.6152 16.5857 12.6152 16.5552 12.6152 16.5552L12.4017 16.5247C12.4017 16.5247 12.4017 16.5552 12.4017 16.5857Z" fill="#170E16"/>
<path d="M12.4017 16.5248L12.6152 16.5553C12.6152 16.5248 12.6152 16.4943 12.6152 16.4638L12.4017 16.4333C12.4017 16.4638 12.4017 16.4943 12.4017 16.5248Z" fill="#170E15"/>
<path d="M12.4017 16.4333L12.6152 16.4638C12.6152 16.4333 12.6152 16.4027 12.6152 16.3722L12.4017 16.3417C12.4017 16.3722 12.4017 16.4027 12.4017 16.4333Z" fill="#160D14"/>
<path d="M12.4017 16.3419L12.6152 16.3724C12.6152 16.3418 12.6152 16.3113 12.6152 16.2808L12.4017 16.2503C12.3712 16.2808 12.4017 16.3113 12.4017 16.3419Z" fill="#150D13"/>
<path d="M12.3712 16.2503L12.5847 16.2808C12.5847 16.2503 12.5542 16.1893 12.5542 16.1588C12.4932 16.0063 12.4017 15.8843 12.2797 15.8843L12.0661 15.8538C12.1882 15.8843 12.2797 15.9758 12.3407 16.1283C12.3712 16.1893 12.3712 16.2198 12.3712 16.2503Z" fill="#140C13"/>
</g>
<path d="M11.5173 17.0739C11.6393 17.4094 11.9138 17.4704 12.1274 17.1959C12.3409 16.9214 12.4324 16.4638 12.3409 16.1282C12.2189 15.7927 11.9443 15.7622 11.7308 16.0062C11.5173 16.2808 11.4258 16.7688 11.5173 17.0739Z" fill="#22151F"/>
<mask id="mask24_101_47754" style="mask-type:luminance" maskUnits="userSpaceOnUse" x="10" y="17" width="2" height="2">
<path d="M10.4496 17.4095V17.623C10.4496 17.745 10.5106 17.8365 10.6632 17.928C10.9682 18.111 11.4563 18.111 11.7308 17.928C11.8833 17.8365 11.9443 17.7145 11.9443 17.623V17.4095C11.9443 17.5315 11.8833 17.623 11.7308 17.7145C11.4258 17.8975 10.9377 17.8975 10.6632 17.7145C10.5106 17.623 10.4496 17.501 10.4496 17.4095Z" fill="white"/>
</mask>
<g mask="url(#mask24_101_47754)">
<path d="M10.4497 17.501V17.7146C10.4497 17.7146 10.4497 17.7451 10.4802 17.7451V17.5315L10.4497 17.501Z" fill="#190F17"/>
<path d="M10.4802 17.5315V17.745C10.4802 17.7755 10.5107 17.7755 10.5107 17.806V17.5925C10.5107 17.562 10.4802 17.562 10.4802 17.5315Z" fill="#1A1018"/>
<path d="M10.5108 17.5926V17.8061C10.5108 17.8366 10.5413 17.8366 10.5718 17.8671V17.6536C10.5413 17.6231 10.5108 17.5926 10.5108 17.5926Z" fill="#1B1018"/>
<path d="M10.5718 17.6229V17.8364C10.6023 17.8669 10.6328 17.8974 10.6633 17.8974V17.6839C10.6023 17.6839 10.5718 17.6534 10.5718 17.6229Z" fill="#1B1119"/>
<path d="M10.6632 17.7145V17.9281C10.7242 17.9586 10.7852 17.9891 10.8157 17.9891V17.7755C10.7852 17.7755 10.7242 17.745 10.6632 17.7145Z" fill="#1C111A"/>
<path d="M10.8157 17.7755V17.989C10.8767 17.989 10.9073 18.0195 10.9683 18.0195V17.806C10.9378 17.806 10.8767 17.806 10.8157 17.7755Z" fill="#1B1119"/>
<path d="M10.9683 17.8061V18.0196C10.9988 18.0196 11.0293 18.0196 11.0598 18.0196V17.8061C11.0293 17.8366 10.9988 17.8366 10.9683 17.8061Z" fill="#1B1018"/>
<path d="M11.0599 17.8365V18.05C11.0904 18.05 11.1209 18.05 11.1514 18.05V17.8365C11.1209 17.8365 11.0904 17.8365 11.0599 17.8365Z" fill="#1A1018"/>
<path d="M11.1514 17.8365V18.05C11.1819 18.05 11.2124 18.05 11.2429 18.05V17.8365C11.2124 17.8365 11.1819 17.8365 11.1514 17.8365Z" fill="#190F17"/>
<path d="M11.2429 17.8365V18.05C11.2734 18.05 11.304 18.05 11.304 18.05V17.8365C11.2735 17.8365 11.2734 17.8365 11.2429 17.8365Z" fill="#180F16"/>
<path d="M11.3037 17.8365V18.05C11.3342 18.05 11.3647 18.05 11.3647 18.05V17.8365C11.3647 17.8365 11.3342 17.8365 11.3037 17.8365Z" fill="#170E16"/>
<path d="M11.3953 17.8366V18.0501C11.4258 18.0501 11.4563 18.0501 11.4563 18.0501V17.8366C11.4258 17.8061 11.4258 17.8366 11.3953 17.8366Z" fill="#170E15"/>
<path d="M11.4563 17.8061V18.0196C11.4868 18.0196 11.5173 18.0196 11.5479 17.9891V17.8061C11.5173 17.8061 11.4868 17.8061 11.4563 17.8061Z" fill="#160D14"/>
<path d="M11.5479 17.806V18.0195C11.5784 18.0195 11.6089 17.989 11.6394 17.989V17.7755C11.6089 17.7755 11.5784 17.7755 11.5479 17.806Z" fill="#150D13"/>
<path d="M11.6393 17.7756V17.9891C11.6698 17.9586 11.7003 17.9586 11.7613 17.9281C11.9138 17.8366 11.9749 17.7146 11.9749 17.6231V17.4095C11.9749 17.5316 11.9138 17.6231 11.7613 17.7146C11.7003 17.7451 11.6698 17.7451 11.6393 17.7756Z" fill="#140C13"/>
</g>
<path d="M10.6633 17.0739C10.3582 17.257 10.3582 17.5315 10.6633 17.7145C10.9683 17.8976 11.4564 17.8976 11.7309 17.7145C12.036 17.5315 12.036 17.257 11.7309 17.0739C11.4564 16.9214 10.9683 16.9214 10.6633 17.0739Z" fill="#22151F"/>
<path d="M10.7546 17.135C10.5106 17.2875 10.5106 17.501 10.7546 17.6535C10.9987 17.8061 11.3952 17.8061 11.6392 17.6535C11.8833 17.501 11.8833 17.2875 11.6392 17.135C11.3952 17.0129 10.9987 17.0129 10.7546 17.135Z" fill="#DCDCAB"/>
<mask id="mask25_101_47754" style="mask-type:luminance" maskUnits="userSpaceOnUse" x="13" y="16" width="2" height="3">
<path d="M13.5002 18.2636L13.7137 18.2941C13.8357 18.3246 13.9577 18.2636 14.0492 18.1415C14.2628 17.867 14.3543 17.4094 14.2628 17.0739C14.2018 16.9214 14.1102 16.7994 13.9882 16.7994L13.7747 16.7689C13.8967 16.7994 13.9882 16.8909 14.0492 17.0434C14.1712 17.3789 14.0797 17.8365 13.8357 18.111C13.7442 18.2331 13.6222 18.2636 13.5002 18.2636Z" fill="white"/>
</mask>
<g mask="url(#mask25_101_47754)">
<path d="M13.5306 18.2636L13.7442 18.2941H13.7747L13.5611 18.2636C13.5306 18.2636 13.5306 18.2636 13.5306 18.2636Z" fill="#170E16"/>
<path d="M13.5611 18.2636L13.7747 18.2941H13.8052L13.5916 18.2636H13.5611Z" fill="#180F16"/>
<path d="M13.5917 18.2637L13.8052 18.2942C13.8357 18.2942 13.8357 18.2942 13.8662 18.2942L13.6527 18.2637C13.6222 18.2332 13.6222 18.2637 13.5917 18.2637Z" fill="#190F17"/>
<path d="M13.6522 18.2331L13.8657 18.2636C13.8962 18.2636 13.8963 18.2636 13.9268 18.2331L13.7132 18.2026C13.6827 18.2331 13.6827 18.2331 13.6522 18.2331Z" fill="#1A1018"/>
<path d="M13.7135 18.2331L13.927 18.2636C13.9575 18.2636 13.9575 18.2331 13.988 18.2331L13.7745 18.2026C13.744 18.2026 13.7135 18.2026 13.7135 18.2331Z" fill="#1B1018"/>
<path d="M13.7745 18.1722L13.9881 18.2027C14.0186 18.1722 14.0491 18.1417 14.0796 18.1112L13.8661 18.0807C13.8356 18.1417 13.8051 18.1722 13.7745 18.1722Z" fill="#1B1119"/>
<path d="M13.8356 18.1112L14.0491 18.1417C14.0796 18.1112 14.1101 18.0502 14.1406 17.9892L13.9271 17.9587C13.9271 17.9892 13.8966 18.0502 13.8356 18.1112C13.8661 18.1112 13.8661 18.1112 13.8356 18.1112Z" fill="#1C111A"/>
<path d="M13.9576 17.9282L14.1712 17.9587C14.2017 17.9282 14.2017 17.8672 14.2322 17.8367L14.0186 17.8062C14.0186 17.8672 13.9881 17.8977 13.9576 17.9282Z" fill="#1B1119"/>
<path d="M14.0187 17.8062L14.2322 17.8367C14.2322 17.8062 14.2627 17.7757 14.2627 17.7451L14.0492 17.7147C14.0492 17.7452 14.0492 17.7757 14.0187 17.8062Z" fill="#1B1018"/>
<path d="M14.0492 17.7146L14.2627 17.7451C14.2627 17.7146 14.2627 17.6841 14.2932 17.6536L14.0797 17.6231C14.0797 17.6536 14.0492 17.6841 14.0492 17.7146Z" fill="#1A1018"/>
<path d="M14.0797 17.6231L14.2932 17.6536C14.2932 17.6231 14.2932 17.5926 14.2932 17.5621L14.0797 17.5316C14.0797 17.5926 14.0797 17.5926 14.0797 17.6231Z" fill="#190F17"/>
<path d="M14.0797 17.5622L14.2932 17.5927C14.2932 17.5622 14.2932 17.5317 14.2932 17.5317L14.0797 17.5012C14.1102 17.5012 14.1102 17.5317 14.0797 17.5622Z" fill="#180F16"/>
<path d="M14.1102 17.4706L14.3237 17.5011C14.3237 17.4706 14.3237 17.4401 14.3237 17.4401L14.1102 17.4096C14.1102 17.4401 14.1102 17.4401 14.1102 17.4706Z" fill="#170E16"/>
<path d="M14.1102 17.4096L14.3237 17.4401C14.3237 17.4096 14.3237 17.3791 14.3237 17.3486L14.1102 17.3181C14.1102 17.3486 14.1102 17.3791 14.1102 17.4096Z" fill="#170E15"/>
<path d="M14.1102 17.3182L14.3237 17.3487C14.3237 17.3182 14.3237 17.2877 14.3237 17.2572L14.1102 17.2267C14.1102 17.2877 14.1102 17.2877 14.1102 17.3182Z" fill="#160D14"/>
<path d="M14.1102 17.2571L14.3237 17.2876C14.3237 17.2571 14.3237 17.2266 14.3237 17.1961L14.1102 17.1656C14.1102 17.1656 14.1102 17.2266 14.1102 17.2571Z" fill="#150D13"/>
<path d="M14.0797 17.1349L14.2932 17.1654C14.2932 17.1349 14.2627 17.0739 14.2627 17.0434C14.2017 16.8908 14.1102 16.7688 13.9882 16.7688L13.7746 16.7383C13.8967 16.7688 13.9882 16.8603 14.0492 17.0129C14.0797 17.0739 14.0797 17.1044 14.0797 17.1349Z" fill="#140C13"/>
</g>
<path d="M13.2558 17.9585C13.3778 18.2941 13.6523 18.3551 13.8659 18.0806C14.0794 17.806 14.1709 17.3485 14.0794 17.0129C13.9574 16.6774 13.6829 16.6469 13.4693 16.8909C13.2253 17.1654 13.1338 17.6535 13.2558 17.9585Z" fill="#22151F"/>
<mask id="mask26_101_47754" style="mask-type:luminance" maskUnits="userSpaceOnUse" x="12" y="18" width="2" height="1">
<path d="M12.1579 18.294V18.5075C12.1579 18.6295 12.2189 18.721 12.3714 18.8125C12.6765 18.9956 13.1645 18.9956 13.4391 18.8125C13.5916 18.721 13.6526 18.599 13.6526 18.5075V18.294C13.6526 18.416 13.5916 18.5075 13.4391 18.599C13.134 18.782 12.6459 18.782 12.3714 18.599C12.2189 18.5075 12.1579 18.416 12.1579 18.294Z" fill="white"/>
</mask>
<g mask="url(#mask26_101_47754)">
<path d="M12.1577 18.3856V18.5991C12.1577 18.5991 12.1577 18.6296 12.1882 18.6296V18.4161C12.1882 18.4161 12.1882 18.3856 12.1577 18.3856Z" fill="#190F17"/>
<path d="M12.1882 18.416V18.6295C12.1882 18.66 12.2188 18.66 12.2188 18.6905V18.477C12.2188 18.4465 12.1882 18.4465 12.1882 18.416Z" fill="#1A1018"/>
<path d="M12.2185 18.477V18.6905C12.2185 18.721 12.249 18.721 12.2795 18.7515V18.538C12.249 18.5075 12.249 18.477 12.2185 18.477Z" fill="#1B1018"/>
<path d="M12.2796 18.5381V18.7516C12.3101 18.7821 12.3406 18.8126 12.3711 18.8126V18.5991C12.3406 18.5686 12.3101 18.5381 12.2796 18.5381Z" fill="#1B1119"/>
<path d="M12.3712 18.5991V18.8126C12.4322 18.8431 12.4932 18.8736 12.5542 18.8736V18.6601C12.4932 18.6601 12.4322 18.6296 12.3712 18.5991Z" fill="#1C111A"/>
<path d="M12.5543 18.6906V18.9041C12.6153 18.9041 12.6458 18.9346 12.7068 18.9346V18.7211C12.6458 18.6906 12.5848 18.6906 12.5543 18.6906Z" fill="#1B1119"/>
<path d="M12.6763 18.721V18.9345C12.7068 18.9345 12.7373 18.9345 12.7678 18.9345V18.721C12.7678 18.721 12.7068 18.721 12.6763 18.721Z" fill="#1B1018"/>
<path d="M12.7981 18.721V18.9345C12.8286 18.9345 12.8591 18.9345 12.8896 18.9345V18.721C12.8286 18.721 12.8286 18.721 12.7981 18.721Z" fill="#1A1018"/>
<path d="M12.8594 18.721V18.9345C12.8899 18.9345 12.9204 18.9345 12.9509 18.9345V18.721C12.9204 18.721 12.8899 18.721 12.8594 18.721Z" fill="#190F17"/>
<path d="M12.9507 18.721V18.9345C12.9812 18.9345 13.0117 18.9345 13.0117 18.9345V18.721C13.0117 18.721 12.9812 18.721 12.9507 18.721Z" fill="#180F16"/>
<path d="M13.012 18.721V18.9345C13.0425 18.9345 13.073 18.9345 13.073 18.9345V18.721C13.073 18.721 13.0425 18.721 13.012 18.721Z" fill="#170E16"/>
<path d="M13.1033 18.721V18.9345C13.1338 18.9345 13.1643 18.9345 13.1643 18.9345V18.721C13.1643 18.721 13.1338 18.721 13.1033 18.721Z" fill="#170E15"/>
<path d="M13.1644 18.7211V18.9346C13.1949 18.9346 13.2254 18.9346 13.2559 18.9041V18.6906C13.2254 18.6906 13.1949 18.6906 13.1644 18.7211Z" fill="#160D14"/>
<path d="M13.2559 18.6904V18.9039C13.2864 18.9039 13.3169 18.8734 13.3474 18.8734V18.6599C13.3169 18.6599 13.2864 18.6904 13.2559 18.6904Z" fill="#150D13"/>
<path d="M13.3476 18.66V18.8735C13.3781 18.843 13.4086 18.843 13.4696 18.8125C13.6221 18.721 13.6831 18.599 13.6831 18.5075V18.2939C13.6831 18.4159 13.6221 18.5075 13.4696 18.599C13.4391 18.6295 13.3781 18.6295 13.3476 18.66Z" fill="#140C13"/>
</g>
<path d="M12.3715 17.9891C12.0665 18.1722 12.0665 18.4467 12.3715 18.6297C12.6766 18.8128 13.1646 18.8128 13.4392 18.6297C13.7442 18.4467 13.7442 18.1722 13.4392 17.9891C13.1646 17.8061 12.6766 17.8061 12.3715 17.9891Z" fill="#22151F"/>
<path d="M12.4934 18.0196C12.2494 18.1721 12.2494 18.3856 12.4934 18.5382C12.7374 18.6907 13.134 18.6907 13.378 18.5382C13.622 18.3856 13.622 18.1721 13.378 18.0196C13.1035 17.8976 12.7374 17.8976 12.4934 18.0196Z" fill="#DC69A2"/>
<path d="M9.88778 12.3929L9.05285 4.04356C9.05285 0.759483 12.1978 -1.02171 15.0365 0.620327C17.931 2.23453 20.241 6.24222 20.241 9.52629V18.3488L19.406 18.8219L9.88778 12.3929Z" fill="#181818"/>
<path d="M9.08066 12.8659V4.01565C9.08066 0.759406 11.3906 -0.576489 14.2572 1.06555C17.096 2.73542 19.406 6.71527 19.406 9.99934V18.8496L9.08066 12.8659Z" fill="#222222"/>
<path d="M11.6412 0.369913C12.4762 0.28642 13.3111 0.564731 14.0347 0.954367C14.7583 1.344 15.4263 1.87279 16.0107 2.45725C17.1796 3.62616 18.0981 5.07337 18.7104 6.63192C19.0165 7.41119 19.2391 8.21829 19.3505 9.0254C19.4061 9.44286 19.434 9.86033 19.434 10.2778C19.434 9.86033 19.4618 9.44286 19.4061 9.0254C19.2948 8.19046 19.0722 7.38336 18.766 6.60409C18.1537 5.04554 17.2353 3.59832 16.0386 2.42942C15.4541 1.84496 14.7862 1.31617 14.0347 0.926536C13.3111 0.564731 12.4762 0.28642 11.6412 0.369913Z" fill="white"/>
<path d="M10.0702 5.08896V13.1785L18.2927 17.9151V9.8522C18.2927 7.05812 16.5897 3.78506 14.4875 2.5876L13.902 2.24166C11.7732 1.01759 10.0702 2.29488 10.0702 5.08896Z" fill="url(#paint6_linear_101_47754)"/>
<path d="M18.5989 17.0963C18.7102 17.0128 18.9329 17.1519 19.0442 17.3467C19.1555 17.5694 19.1555 17.792 19.0442 17.8755L19.239 17.7642C19.3503 17.6807 19.3503 17.4581 19.239 17.2354C19.1277 17.0128 18.905 16.9014 18.7937 16.9849L18.5989 17.0963Z" fill="#9C9C9C"/>
<path d="M18.5989 17.0962C18.4876 17.1797 18.4876 17.4024 18.5989 17.625C18.7102 17.8477 18.9329 17.959 19.0442 17.8755C19.1555 17.792 19.1555 17.5694 19.0442 17.3467C18.9329 17.1519 18.7102 17.0128 18.5989 17.0962Z" fill="white"/>
<path d="M18.6544 17.2076C18.5709 17.2632 18.5709 17.4302 18.6544 17.5694C18.7379 17.7085 18.8771 17.792 18.9606 17.7364C19.0441 17.6807 19.0441 17.5137 18.9606 17.3746C18.8771 17.2354 18.7379 17.1797 18.6544 17.2076Z" fill="white"/>
<path d="M18.6269 14.3689C18.7382 14.2854 18.9608 14.4245 19.0722 14.6194C19.1835 14.842 19.1835 15.0647 19.0722 15.1481L19.267 15.0368C19.4061 14.9533 19.4061 14.7307 19.267 14.508C19.1556 14.2854 18.933 14.1741 18.8217 14.2575L18.6269 14.3689Z" fill="#9C9C9C"/>
<path d="M18.6267 14.3688C18.5154 14.4523 18.5154 14.6749 18.6267 14.8976C18.7381 15.1202 18.9607 15.2316 19.072 15.1481C19.1833 15.0646 19.1833 14.8419 19.072 14.6193C18.9607 14.3966 18.7381 14.2853 18.6267 14.3688Z" fill="white"/>
<path d="M18.6823 14.4802C18.5988 14.5359 18.5988 14.7029 18.6823 14.842C18.7658 14.9812 18.9049 15.0647 18.9884 15.009C19.0719 14.9533 19.0719 14.7863 18.9884 14.6472C18.9049 14.508 18.7658 14.4245 18.6823 14.4802Z" fill="white"/>
<path d="M18.6546 11.6135C18.7659 11.53 18.9885 11.6692 19.0999 11.864C19.2112 12.0867 19.2112 12.3093 19.0999 12.3928L19.2947 12.2815C19.406 12.198 19.406 11.9753 19.2947 11.7527C19.1834 11.53 18.9607 11.4187 18.8494 11.5022L18.6546 11.6135Z" fill="#9C9C9C"/>
<path d="M18.6546 11.6137C18.5432 11.6972 18.5432 11.9198 18.6546 12.1425C18.7659 12.3651 18.9885 12.4764 19.0999 12.3929C19.2112 12.3094 19.2112 12.0868 19.0999 11.8641C18.9885 11.6693 18.7659 11.558 18.6546 11.6137Z" fill="white"/>
<path d="M18.7103 11.7527C18.6268 11.8084 18.6268 11.9754 18.7103 12.1145C18.7938 12.2537 18.9329 12.3372 19.0164 12.2815C19.1277 12.2258 19.1277 12.0867 19.0442 11.9197C18.9329 11.7805 18.7938 11.697 18.7103 11.7527Z" fill="white"/>
<path d="M18.6546 8.85818C18.7659 8.77468 18.9885 8.91384 19.0999 9.10866C19.2112 9.33131 19.2112 9.55396 19.0999 9.63745L19.2947 9.52612C19.406 9.44263 19.406 9.21998 19.2947 8.99733C19.1834 8.77468 18.9607 8.66336 18.8494 8.74685L18.6546 8.85818Z" fill="#9C9C9C"/>
<path d="M18.6546 8.85825C18.5432 8.94174 18.5432 9.16439 18.6546 9.38704C18.7659 9.60969 18.9885 9.72101 19.0999 9.63752C19.2112 9.55402 19.2112 9.33137 19.0999 9.10873C18.9607 8.91391 18.7659 8.77475 18.6546 8.85825Z" fill="white"/>
<path d="M18.7101 8.96956C18.6266 9.02522 18.6266 9.19221 18.7101 9.33136C18.7936 9.47052 18.9327 9.55401 19.0162 9.49835C19.0997 9.44269 19.0997 9.2757 19.0162 9.13655C18.9327 9.02522 18.7936 8.94173 18.7101 8.96956Z" fill="white"/>
<path d="M17.9312 6.01958C18.0425 5.93609 18.2651 6.07525 18.3765 6.27007C18.4878 6.49271 18.4878 6.71536 18.3765 6.79886L18.5713 6.68753C18.6826 6.60404 18.6826 6.38139 18.5713 6.15874C18.46 5.93609 18.2373 5.82477 18.126 5.90826L17.9312 6.01958Z" fill="#9C9C9C"/>
<path d="M17.9309 6.01945C17.8196 6.10294 17.8196 6.32559 17.9309 6.54824C18.0422 6.77089 18.2649 6.88222 18.3762 6.79872C18.4875 6.71523 18.4875 6.49258 18.3762 6.26993C18.2371 6.04728 18.0422 5.93596 17.9309 6.01945Z" fill="white"/>
<path d="M17.9867 6.13073C17.9032 6.18639 17.9032 6.35338 17.9867 6.49254C18.0702 6.63169 18.2094 6.71519 18.2928 6.65952C18.3763 6.60386 18.3763 6.43687 18.2928 6.29772C18.2094 6.15856 18.0702 6.07507 17.9867 6.13073Z" fill="white"/>
<path d="M16.5393 3.57043C16.6507 3.48693 16.8733 3.62609 16.9846 3.82091C17.096 4.04356 17.096 4.26621 16.9846 4.3497L17.1794 4.23837C17.2908 4.15488 17.2908 3.93223 17.1794 3.70958C17.0681 3.48693 16.8455 3.37561 16.7341 3.4591L16.5393 3.57043Z" fill="#9C9C9C"/>
<path d="M16.5393 3.57035C16.428 3.65385 16.428 3.8765 16.5393 4.09915C16.6506 4.3218 16.8733 4.43312 16.9846 4.34963C17.0959 4.26613 17.0959 4.04348 16.9846 3.82083C16.8455 3.59819 16.6506 3.48686 16.5393 3.57035Z" fill="white"/>
<path d="M16.5949 3.68176C16.5114 3.73743 16.5114 3.90441 16.5949 4.04357C16.6784 4.18273 16.8175 4.26622 16.901 4.21056C16.9845 4.15489 16.9845 3.98791 16.901 3.84875C16.8175 3.7096 16.6784 3.6261 16.5949 3.68176Z" fill="white"/>
<path d="M14.7859 1.92825C14.8972 1.84475 15.1199 1.98391 15.2312 2.17873C15.3425 2.37354 15.3425 2.62402 15.2312 2.70752L15.426 2.59619C15.5374 2.5127 15.5374 2.29005 15.426 2.0674C15.3147 1.84475 15.0921 1.73343 14.9807 1.81692L14.7859 1.92825Z" fill="#9C9C9C"/>
<path d="M14.7859 1.92821C14.6746 2.0117 14.6746 2.23435 14.7859 2.457C14.8972 2.67965 15.1199 2.79098 15.2312 2.70748C15.3425 2.62399 15.3425 2.40134 15.2312 2.17869C15.1199 1.95604 14.9251 1.84472 14.7859 1.92821Z" fill="white"/>
<path d="M14.8695 2.03963C14.786 2.09529 14.786 2.26228 14.8695 2.40143C14.953 2.54059 15.0922 2.62408 15.1757 2.56842C15.2592 2.51276 15.2592 2.34577 15.1757 2.20662C15.0922 2.06746 14.953 1.98397 14.8695 2.03963Z" fill="white"/>
<path d="M9.1365 12.3095C9.24782 12.226 9.47047 12.3652 9.5818 12.56C9.69312 12.7826 9.69312 13.0053 9.5818 13.0888L9.77661 12.9775C9.88794 12.894 9.88794 12.6713 9.77661 12.4487C9.66529 12.226 9.44264 12.1147 9.33132 12.1982L9.1365 12.3095Z" fill="#9C9C9C"/>
<path d="M9.13674 12.3094C9.02541 12.3929 9.02541 12.6156 9.13674 12.8382C9.24806 13.0609 9.47071 13.1722 9.58203 13.0887C9.69336 13.0052 9.69336 12.7826 9.58203 12.5599C9.47071 12.3373 9.24806 12.2259 9.13674 12.3094Z" fill="white"/>
<path d="M9.19227 12.4207C9.10878 12.4764 9.10878 12.6434 9.19227 12.7825C9.27577 12.9217 9.41492 13.0052 9.49842 12.9495C9.58191 12.8938 9.58191 12.7269 9.49842 12.5877C9.41492 12.4485 9.27577 12.365 9.19227 12.4207Z" fill="white"/>
<path d="M9.16433 9.86024C9.27565 9.77674 9.4983 9.9159 9.60963 10.1107C9.72095 10.3334 9.72095 10.556 9.60963 10.6395L9.80445 10.5282C9.91577 10.4447 9.91577 10.222 9.80445 9.99939C9.69312 9.77674 9.47047 9.66542 9.35915 9.74891L9.16433 9.86024Z" fill="#9C9C9C"/>
<path d="M9.16457 9.86015C9.05324 9.94365 9.05324 10.1663 9.16457 10.3889C9.27589 10.6116 9.49854 10.7229 9.60987 10.6394C9.72119 10.5559 9.72119 10.3333 9.60987 10.1106C9.47071 9.91582 9.27589 9.80449 9.16457 9.86015Z" fill="white"/>
<path d="M9.22011 9.99946C9.13661 10.0551 9.13661 10.2221 9.22011 10.3613C9.3036 10.5004 9.44275 10.5839 9.52625 10.5283C9.60974 10.4726 9.60974 10.3056 9.52625 10.1664C9.44275 10.0273 9.3036 9.9438 9.22011 9.99946Z" fill="white"/>
<path d="M9.19216 7.43891C9.30349 7.35542 9.52614 7.49457 9.63746 7.68939C9.74879 7.91204 9.74879 8.13469 9.63746 8.21818L9.83228 8.10686C9.9436 8.02337 9.9436 7.80072 9.83228 7.57807C9.72095 7.35542 9.4983 7.24409 9.38698 7.32759L9.19216 7.43891Z" fill="#9C9C9C"/>
<path d="M9.19216 7.43902C9.08083 7.52251 9.08083 7.74516 9.19216 7.96781C9.30348 8.19046 9.52613 8.30178 9.63745 8.21829C9.74878 8.1348 9.74878 7.91215 9.63745 7.6895C9.4983 7.49468 9.30348 7.38336 9.19216 7.43902Z" fill="white"/>
<path d="M9.24794 7.57807C9.16444 7.63373 9.16444 7.80072 9.24794 7.93987C9.33143 8.07903 9.47059 8.16252 9.55408 8.10686C9.63757 8.0512 9.63757 7.88421 9.55408 7.74505C9.47059 7.6059 9.33143 7.5224 9.24794 7.57807Z" fill="white"/>
<path d="M9.19216 5.01772C9.30349 4.93423 9.52614 5.07339 9.63746 5.2682C9.74879 5.49085 9.74879 5.7135 9.63746 5.79699L9.83228 5.68567C9.9436 5.60218 9.9436 5.37953 9.83228 5.15688C9.72095 4.93423 9.4983 4.82291 9.38698 4.9064L9.19216 5.01772Z" fill="#9C9C9C"/>
<path d="M9.19216 5.01768C9.08083 5.10118 9.08083 5.32383 9.19216 5.54648C9.30348 5.76913 9.52613 5.88045 9.63745 5.79696C9.74878 5.71346 9.74878 5.49081 9.63745 5.26816C9.52613 5.07335 9.33131 4.93419 9.19216 5.01768Z" fill="white"/>
<path d="M9.27577 5.12888C9.19227 5.18454 9.19227 5.35152 9.27577 5.49068C9.35926 5.62984 9.49842 5.71333 9.58191 5.65767C9.6654 5.602 9.6654 5.43502 9.58191 5.29586C9.49842 5.15671 9.35926 5.10104 9.27577 5.12888Z" fill="white"/>
<path d="M9.38699 2.79125C9.49831 2.70776 9.72096 2.84691 9.83228 3.04173C9.94361 3.26438 9.94361 3.48703 9.83228 3.57052L10.0271 3.4592C10.1384 3.37571 10.1384 3.15306 10.0271 2.93041C9.91578 2.70776 9.69313 2.59643 9.5818 2.67993L9.38699 2.79125Z" fill="#9C9C9C"/>
<path d="M9.38674 2.79115C9.27541 2.87465 9.27541 3.0973 9.38674 3.31994C9.49806 3.54259 9.72071 3.65392 9.83203 3.57043C9.94336 3.48693 9.94336 3.26428 9.83203 3.04163C9.72071 2.84682 9.52589 2.73549 9.38674 2.79115Z" fill="white"/>
<path d="M9.47035 2.93033C9.38685 2.98599 9.38685 3.15298 9.47035 3.29213C9.55384 3.43129 9.693 3.51478 9.77649 3.45912C9.85998 3.40346 9.85998 3.23647 9.77649 3.09732C9.693 2.95816 9.55384 2.87467 9.47035 2.93033Z" fill="white"/>
<path d="M11.2239 0.731667C11.3352 0.648173 11.5579 0.787329 11.6692 0.982147C11.7805 1.2048 11.7805 1.42744 11.6692 1.51094L11.864 1.39961C11.9753 1.31612 11.9753 1.09347 11.864 0.870822C11.7527 0.648173 11.53 0.536849 11.4187 0.620342L11.2239 0.731667Z" fill="#9C9C9C"/>
<path d="M11.2241 0.731545C11.1128 0.815038 11.1128 1.03769 11.2241 1.26034C11.3355 1.48299 11.5581 1.59431 11.6694 1.51082C11.7808 1.42732 11.7808 1.20467 11.6694 0.982025C11.5581 0.787207 11.3633 0.675883 11.2241 0.731545Z" fill="white"/>
<path d="M11.3075 0.870852C11.224 0.926514 11.224 1.0935 11.3075 1.23266C11.391 1.37181 11.5302 1.45531 11.6136 1.39964C11.6971 1.34398 11.6971 1.17699 11.6136 1.03784C11.5302 0.898683 11.391 0.815189 11.3075 0.870852Z" fill="white"/>
<path d="M13.2835 1.0099C13.3948 0.926402 13.6174 1.06556 13.7288 1.26038C13.8401 1.45519 13.8401 1.70567 13.7288 1.78917L13.9236 1.67784C14.0349 1.59435 14.0349 1.3717 13.9236 1.14905C13.8123 0.926402 13.5896 0.815077 13.4783 0.898571L13.2835 1.0099Z" fill="#9C9C9C"/>
<path d="M13.2837 1.00987C13.1724 1.09336 13.1724 1.31601 13.2837 1.53866C13.395 1.76131 13.6177 1.87263 13.729 1.78914C13.8403 1.70565 13.8403 1.483 13.729 1.26035C13.6177 1.0377 13.395 0.926375 13.2837 1.00987Z" fill="white"/>
<path d="M13.3392 1.12129C13.2558 1.17695 13.2558 1.34394 13.3392 1.48309C13.4227 1.62225 13.5619 1.70574 13.6732 1.65008C13.7567 1.59442 13.7567 1.42743 13.6732 1.28827C13.5619 1.14912 13.4227 1.06562 13.3392 1.12129Z" fill="white"/>
<mask id="mask27_101_47754" style="mask-type:luminance" maskUnits="userSpaceOnUse" x="7" y="13" width="2" height="3">
<path d="M8.61762 13.8421V14.9905C8.61762 15.0253 8.58282 15.0949 8.51322 15.1297C8.40882 15.1993 8.20001 15.1993 8.09561 15.1297C8.02601 15.0949 7.99121 15.0601 7.99121 14.9905V13.8421C7.99121 13.8769 8.02601 13.9465 8.09561 13.9813C8.20001 14.0509 8.40882 14.0509 8.51322 13.9813C8.58282 13.9117 8.61762 13.8769 8.61762 13.8421Z" fill="white"/>
</mask>
<g mask="url(#mask27_101_47754)">
<path d="M8.58314 13.9117V15.0601C8.58314 15.0601 8.58314 15.0601 8.54834 15.0949L8.58314 13.9117Z" fill="#281825"/>
<path d="M8.58314 13.9117V15.0601L8.54834 15.0949V13.9465C8.54834 13.9465 8.54834 13.9465 8.58314 13.9117Z" fill="#291926"/>
<path d="M8.51321 13.9465V15.0949C8.47841 15.0949 8.4784 15.1297 8.4436 15.1297V13.9813C8.4784 13.9813 8.51321 13.9813 8.51321 13.9465Z" fill="#2A1A27"/>
<path d="M8.44386 13.9813V15.1297C8.40906 15.1297 8.40907 15.1297 8.37427 15.1297V13.9813C8.40907 13.9813 8.44386 13.9813 8.44386 13.9813Z" fill="#291926"/>
<path d="M8.40907 13.9813V15.1297H8.37427V13.9813C8.37427 14.0161 8.37427 14.0161 8.40907 13.9813Z" fill="#281825"/>
<path d="M8.3744 14.016V15.1644H8.3396L8.3744 14.016C8.3396 14.016 8.3396 14.016 8.3744 14.016Z" fill="#271824"/>
<path d="M8.33925 14.016V15.1644H8.30444L8.33925 14.016C8.30445 14.016 8.30445 14.016 8.33925 14.016Z" fill="#261723"/>
<path d="M8.30458 14.016V15.1644H8.26978L8.30458 14.016C8.26978 14.016 8.26978 14.016 8.30458 14.016Z" fill="#251621"/>
<path d="M8.26941 14.016V15.1644H8.23462L8.26941 14.016Z" fill="#231620"/>
<path d="M8.235 14.0161V15.1645H8.2002L8.235 14.0161Z" fill="#22151F"/>
<path d="M8.20009 13.9813V15.1297H8.16528L8.20009 13.9813Z" fill="#21141E"/>
<path d="M8.16517 13.9813V15.1297H8.13037V13.9813C8.16517 13.9813 8.16517 13.9813 8.16517 13.9813Z" fill="#20131D"/>
<path d="M8.13041 13.9813V15.1297C8.13041 15.1297 8.09561 15.1297 8.09561 15.0949C8.02601 15.0601 7.99121 15.0253 7.99121 14.9557V13.8073C7.99121 13.8421 8.02601 13.9117 8.09561 13.9465L8.13041 13.9813Z" fill="#1F131C"/>
</g>
<path d="M8.51349 13.7028C8.61789 13.7724 8.61789 13.8768 8.51349 13.9464C8.40909 14.016 8.20028 14.016 8.09588 13.9464C7.99148 13.8768 7.99148 13.7724 8.09588 13.7028C8.20028 13.6332 8.40909 13.6332 8.51349 13.7028Z" fill="#331F2F"/>
<path d="M8.0957 12.9024V13.8072C8.0957 13.842 8.13051 13.8768 8.16531 13.9116H8.20011H8.23491C8.23491 13.9116 8.23491 13.9116 8.26971 13.9116C8.26971 13.9116 8.26971 13.9116 8.30451 13.9116C8.30451 13.9116 8.30451 13.9116 8.33931 13.9116C8.33931 13.9116 8.33931 13.9116 8.37411 13.9116C8.37411 13.9116 8.37412 13.9116 8.40892 13.9116H8.44371H8.47851C8.51331 13.9116 8.51331 13.9116 8.51331 13.8768C8.51331 13.8768 8.54812 13.8768 8.54812 13.842V13.4592C8.47852 13.4244 8.37411 13.3896 8.26971 13.2852C8.1653 13.146 8.0957 13.0068 8.0957 12.9024Z" fill="#B92C2D"/>
<path d="M8.51329 13.1808L8.54809 13.5984L8.20009 13.2504L8.16528 13.0416L8.51329 13.1808Z" fill="#B92C2D"/>
<path d="M8.44387 12.9371C8.54827 13.0416 8.58307 13.2156 8.47867 13.2504C8.40907 13.32 8.26987 13.2852 8.16547 13.146C8.06106 13.0416 8.02626 12.8676 8.13066 12.8328C8.20026 12.7632 8.33946 12.7979 8.44387 12.9371Z" fill="#9F2627"/>
<mask id="mask28_101_47754" style="mask-type:luminance" maskUnits="userSpaceOnUse" x="9" y="14" width="1" height="2">
<path d="M9.68744 14.5033V15.6517C9.68744 15.6865 9.65265 15.7561 9.58304 15.7909C9.47864 15.8605 9.26983 15.8605 9.16543 15.7909C9.09583 15.7561 9.06104 15.7213 9.06104 15.6517V14.5033C9.06104 14.5381 9.09583 14.6077 9.16543 14.6425C9.26983 14.7121 9.47864 14.7121 9.58304 14.6425C9.68745 14.5729 9.68744 14.5381 9.68744 14.5033Z" fill="white"/>
</mask>
<g mask="url(#mask28_101_47754)">
<path d="M9.68787 14.573V15.7214C9.68787 15.7214 9.68788 15.7214 9.65308 15.7562L9.68787 14.573C9.65307 14.573 9.65307 14.573 9.68787 14.573Z" fill="#281825"/>
<path d="M9.65272 14.573V15.7214L9.61792 15.7562V14.6078C9.61792 14.6078 9.65272 14.6078 9.65272 14.573Z" fill="#291926"/>
<path d="M9.61843 14.6077V15.7561C9.58363 15.7561 9.58363 15.7909 9.54883 15.7909V14.6425C9.58363 14.6425 9.58363 14.6425 9.61843 14.6077Z" fill="#2A1A27"/>
<path d="M9.54835 14.6425V15.7909C9.51355 15.7909 9.51356 15.7909 9.47876 15.7909V14.6425C9.51356 14.6425 9.51355 14.6425 9.54835 14.6425Z" fill="#291926"/>
<path d="M9.47889 14.6425V15.7909H9.44409V14.6425C9.47889 14.6773 9.47889 14.6773 9.47889 14.6425Z" fill="#281825"/>
<path d="M9.44374 14.6773V15.8258H9.40894L9.44374 14.6773Z" fill="#271824"/>
<path d="M9.40956 14.6773V15.8258H9.37476L9.40956 14.6773Z" fill="#261723"/>
<path d="M9.37465 14.6773V15.8258H9.33984L9.37465 14.6773Z" fill="#251621"/>
<path d="M9.33972 14.6773V15.8258H9.30493L9.33972 14.6773Z" fill="#231620"/>
<path d="M9.33972 14.6774V15.8258H9.30493L9.33972 14.6774C9.30492 14.6774 9.30492 14.6426 9.33972 14.6774Z" fill="#22151F"/>
<path d="M9.30482 14.6425V15.7909H9.27002L9.30482 14.6425C9.27002 14.6425 9.27002 14.6425 9.30482 14.6425Z" fill="#21141E"/>
<path d="M9.26991 14.6425V15.7909H9.23511V14.6425H9.26991Z" fill="#20131D"/>
<path d="M9.23515 14.6425V15.7909C9.23515 15.7909 9.20034 15.7909 9.20034 15.7561C9.13074 15.7213 9.09595 15.6865 9.09595 15.6169V14.4685C9.09595 14.5033 9.13074 14.5729 9.20034 14.6077C9.20034 14.6077 9.20035 14.6425 9.23515 14.6425Z" fill="#1F131C"/>
</g>
<path d="M9.61774 14.364C9.72214 14.4336 9.72214 14.538 9.61774 14.6076C9.51334 14.6772 9.30453 14.6772 9.20013 14.6076C9.09573 14.538 9.09573 14.4336 9.20013 14.364C9.30453 14.2944 9.47854 14.2944 9.61774 14.364Z" fill="#331F2F"/>
<path d="M9.16528 13.5637V14.4686C9.16528 14.5034 9.20009 14.5382 9.23489 14.573H9.26969H9.30449C9.30449 14.573 9.30449 14.573 9.33929 14.573C9.33929 14.573 9.33929 14.573 9.37409 14.573C9.37409 14.573 9.37409 14.573 9.40889 14.573C9.40889 14.573 9.40889 14.573 9.44369 14.573C9.44369 14.573 9.4437 14.573 9.4785 14.573H9.51329H9.54809C9.58289 14.573 9.58289 14.573 9.58289 14.5382C9.58289 14.5382 9.6177 14.5382 9.6177 14.5034V14.1206C9.5481 14.0858 9.44369 14.051 9.33929 13.9466C9.23488 13.8073 9.16528 13.6681 9.16528 13.5637Z" fill="#CE5B9A"/>
<path d="M9.61754 13.8421V14.2597L9.26953 13.9117V13.7029L9.61754 13.8421Z" fill="#CE5B9A"/>
<path d="M9.51345 13.5985C9.61785 13.7029 9.65265 13.8421 9.54825 13.9117C9.47865 13.9813 9.33945 13.9465 9.23505 13.8073C9.13064 13.7029 9.09584 13.5289 9.20024 13.4941C9.30465 13.4245 9.44385 13.4593 9.51345 13.5985Z" fill="#DC69A2"/>
<mask id="mask29_101_47754" style="mask-type:luminance" maskUnits="userSpaceOnUse" x="10" y="15" width="1" height="2">
<path d="M10.7663 15.0251V16.1736C10.7663 16.2084 10.7315 16.278 10.6619 16.3128C10.5575 16.3824 10.3487 16.3824 10.2443 16.3128C10.1747 16.278 10.1399 16.2432 10.1399 16.1736V15.0251C10.1399 15.0599 10.1747 15.1295 10.2443 15.1643C10.3487 15.2339 10.5575 15.2339 10.6619 15.1643C10.7315 15.0947 10.7663 15.0599 10.7663 15.0251Z" fill="white"/>
</mask>
<g mask="url(#mask29_101_47754)">
<path d="M10.7663 15.0601V16.2085C10.7663 16.2085 10.7663 16.2085 10.7663 16.2433V15.0601C10.7315 15.0601 10.7315 15.0601 10.7663 15.0601Z" fill="#271824"/>
<path d="M10.7316 15.0948V16.2432C10.7316 16.2432 10.7316 16.2432 10.6968 16.278L10.7316 15.0948Z" fill="#281825"/>
<path d="M10.7316 15.0948V16.2432L10.6968 16.278V15.1296C10.6968 15.1296 10.6968 15.0948 10.7316 15.0948Z" fill="#291926"/>
<path d="M10.6619 15.1296V16.278C10.6271 16.278 10.6271 16.3128 10.5923 16.3128V15.1644C10.6271 15.1644 10.6619 15.1296 10.6619 15.1296Z" fill="#2A1A27"/>
<path d="M10.6272 15.1643V16.3127C10.5924 16.3127 10.5924 16.3127 10.5576 16.3127V15.1643C10.5576 15.1643 10.5924 15.1643 10.6272 15.1643Z" fill="#291926"/>
<path d="M10.5578 15.1643V16.3127H10.5229V15.1643C10.5229 15.1643 10.523 15.1643 10.5578 15.1643Z" fill="#281825"/>
<path d="M10.5228 15.1643V16.3127H10.488L10.5228 15.1643C10.488 15.1991 10.488 15.1991 10.5228 15.1643Z" fill="#271824"/>
<path d="M10.4879 15.1992V16.3477H10.4531L10.4879 15.1992C10.4531 15.1992 10.4531 15.1992 10.4879 15.1992Z" fill="#261723"/>
<path d="M10.453 15.1992V16.3477H10.4182L10.453 15.1992Z" fill="#251621"/>
<path d="M10.4183 15.1991V16.3475H10.3835L10.4183 15.1991C10.4183 15.1643 10.3835 15.1643 10.4183 15.1991Z" fill="#231620"/>
<path d="M10.3837 15.1643V16.3127H10.3489L10.3837 15.1643Z" fill="#22151F"/>
<path d="M10.3488 15.1643V16.3127H10.314L10.3488 15.1643Z" fill="#21141E"/>
<path d="M10.3141 15.1643V16.3127H10.2793V15.1643C10.3141 15.1643 10.3141 15.1643 10.3141 15.1643Z" fill="#20131D"/>
<path d="M10.2793 15.1644V16.3128C10.2793 16.3128 10.2445 16.3128 10.2445 16.278C10.1749 16.2432 10.1401 16.2084 10.1401 16.1388V14.9904C10.1401 15.0252 10.1749 15.0948 10.2445 15.1296C10.2793 15.1296 10.2793 15.1644 10.2793 15.1644Z" fill="#1F131C"/>
</g>
<path d="M10.6614 14.8859C10.7658 14.9555 10.7658 15.0599 10.6614 15.1295C10.557 15.1991 10.3482 15.1991 10.2438 15.1295C10.1394 15.0599 10.1394 14.9555 10.2438 14.8859C10.3482 14.8163 10.557 14.8163 10.6614 14.8859Z" fill="#331F2F"/>
<path d="M10.2439 14.0856V14.9904C10.2439 15.0252 10.2787 15.06 10.3135 15.0948H10.3483H10.3831C10.3831 15.0948 10.3831 15.0948 10.4179 15.0948C10.4179 15.0948 10.4179 15.0948 10.4527 15.0948C10.4527 15.0948 10.4527 15.0948 10.4875 15.0948C10.4875 15.0948 10.4875 15.0948 10.5223 15.0948C10.5223 15.0948 10.5223 15.0948 10.5571 15.0948H10.5919H10.6267C10.6615 15.0948 10.6615 15.0948 10.6615 15.06C10.6615 15.06 10.6963 15.06 10.6963 15.0252V14.6424C10.6267 14.6076 10.5223 14.5728 10.4179 14.4684C10.3135 14.3292 10.2439 14.19 10.2439 14.0856Z" fill="#DC6D74"/>
<path d="M10.6963 14.3641V14.7817L10.3483 14.4337L10.3135 14.2249L10.6963 14.3641Z" fill="#DC6D74"/>
<path d="M10.5918 14.0856C10.6962 14.19 10.731 14.3292 10.6266 14.3988C10.557 14.4684 10.4178 14.4336 10.3134 14.2944C10.209 14.19 10.1742 14.016 10.2786 13.9812C10.3482 13.9464 10.4874 13.9812 10.5918 14.0856Z" fill="#E87C87"/>
<path d="M6.25194 12.8288C6.32748 12.854 6.32748 12.9295 6.25194 12.9547C6.20157 12.9799 6.07567 12.9799 6.0253 12.9547C5.94976 12.9044 5.94976 12.854 6.0253 12.8288C6.07567 12.7784 6.17639 12.7784 6.25194 12.8288Z" fill="#FFCE01"/>
<path d="M5.37036 12.5519C5.37036 12.5771 5.37036 12.6023 5.34518 12.6526C5.32 12.6778 5.29482 12.703 5.24445 12.7282C5.21927 12.7534 5.16891 12.7785 5.11855 12.7785H5.09336C5.043 12.7785 4.99264 12.8037 4.94228 12.8037C4.89192 12.8037 4.84155 12.8037 4.79119 12.7785C4.74082 12.7785 4.69046 12.7534 4.66528 12.7282C4.58974 12.6778 4.53937 12.6275 4.53937 12.5519V13.6851C4.53937 13.7606 4.58974 13.811 4.66528 13.8613C4.69046 13.8613 4.71564 13.8865 4.71564 13.8865C4.74082 13.8865 4.74082 13.8865 4.766 13.9117H4.79119C4.79119 13.9117 4.79119 13.9117 4.81637 13.9117C4.84155 13.9117 4.84155 13.9117 4.86673 13.9117C4.89191 13.9117 4.89191 13.9117 4.9171 13.9117C4.94228 13.9117 4.94227 13.9117 4.96745 13.9117C4.96745 13.9117 4.96746 13.9117 4.99264 13.9117H5.01782C5.043 13.9117 5.04301 13.9117 5.06819 13.9117C5.09337 13.9117 5.09336 13.9117 5.11855 13.9117H5.14373H5.16891H5.19409C5.21928 13.9117 5.26964 13.8865 5.29482 13.8613C5.32 13.8613 5.34518 13.8362 5.34518 13.811L5.37036 13.7858C5.37036 13.7858 5.37036 13.7858 5.37036 13.7606V13.7354V13.7103V13.6851V13.5844V12.5519Z" fill="#8DC6D6"/>
<path d="M5.24451 12.3755C5.42078 12.4763 5.42078 12.6273 5.24451 12.7281C5.09342 12.8288 4.81642 12.8288 4.64015 12.7281C4.46388 12.6273 4.46388 12.4763 4.64015 12.3755C4.81642 12.3 5.06823 12.3 5.24451 12.3755Z" fill="#5DA0B1"/>
<path d="M5.09354 11.8719L5.06837 11.8971C5.04319 11.9223 4.99282 11.9223 4.94246 11.9223C4.8921 11.9223 4.86692 11.9223 4.81655 11.8971C4.79137 11.8719 4.76619 11.8468 4.76619 11.8216V12.5015C4.76619 12.5267 4.79137 12.5518 4.81655 12.577H4.84173H4.86691C4.86691 12.577 4.86691 12.577 4.89209 12.577C4.89209 12.577 4.8921 12.577 4.91728 12.577C4.91728 12.577 4.91728 12.577 4.94246 12.577C4.94246 12.577 4.94245 12.577 4.96764 12.577C4.96764 12.577 4.96764 12.577 4.99282 12.577H5.018H5.04319C5.04319 12.577 5.06837 12.577 5.06837 12.5518C5.06837 12.5518 5.09354 12.5518 5.09354 12.5267V11.8468C5.11873 11.8468 5.09354 11.8719 5.09354 11.8719Z" fill="#F7E1A0"/>
<path d="M5.0681 11.7713C5.14364 11.7965 5.14364 11.8721 5.0681 11.8972C5.01773 11.9224 4.89182 11.9224 4.84146 11.8972C4.76591 11.8721 4.76591 11.7965 4.84146 11.7713C4.89182 11.7461 4.99255 11.7461 5.0681 11.7713Z" fill="#FFF3BF"/>
<path d="M6.55396 13.6094C6.55396 13.6346 6.55395 13.6598 6.52877 13.7101C6.50359 13.7353 6.47841 13.7605 6.42805 13.7857C6.37768 13.8109 6.3525 13.8361 6.30214 13.8361H6.27696C6.22659 13.8361 6.17623 13.8612 6.12587 13.8612C6.0755 13.8612 6.02514 13.8612 5.97477 13.8361C5.92441 13.8361 5.87405 13.8109 5.84887 13.7857C5.77332 13.7353 5.72296 13.685 5.72296 13.6094V14.7426C5.72296 14.8181 5.77332 14.8685 5.84887 14.9189C5.87405 14.9189 5.89923 14.944 5.89923 14.944C5.92441 14.944 5.92442 14.944 5.9496 14.9692H5.97477C5.97477 14.9692 5.97478 14.9692 5.99996 14.9692C6.02514 14.9692 6.02514 14.9692 6.05032 14.9692C6.0755 14.9692 6.0755 14.9692 6.10068 14.9692C6.12586 14.9692 6.12587 14.9692 6.15105 14.9692C6.15105 14.9692 6.15105 14.9692 6.17623 14.9692H6.20141C6.2266 14.9692 6.22659 14.9692 6.25177 14.9692C6.27695 14.9692 6.27696 14.9692 6.30214 14.9692H6.32732H6.3525H6.37768C6.40286 14.9692 6.45322 14.944 6.47841 14.9189C6.50359 14.9189 6.52877 14.8937 6.52877 14.8685L6.55396 14.8433C6.55396 14.8433 6.55396 14.8433 6.55396 14.8181V14.793V14.7678V14.7426V14.6419V13.6094Z" fill="#8DC6D6"/>
<path d="M6.42786 13.4333C6.60413 13.534 6.60413 13.6851 6.42786 13.7858C6.27677 13.8865 5.99977 13.8865 5.8235 13.7858C5.64723 13.6851 5.64723 13.534 5.8235 13.4333C5.99977 13.3325 6.25158 13.3325 6.42786 13.4333Z" fill="#5DA0B1"/>
<path d="M6.27714 12.9296L6.25196 12.9548C6.22677 12.9799 6.17641 12.9799 6.12605 12.9799C6.07568 12.9799 6.0505 12.9799 6.00014 12.9548C5.97496 12.9296 5.94978 12.9044 5.94978 12.8792V13.5591C5.94978 13.5843 5.97496 13.6095 6.00014 13.6347H6.02532H6.05051C6.05051 13.6347 6.05051 13.6347 6.07569 13.6347C6.07569 13.6347 6.07568 13.6347 6.10086 13.6347C6.10086 13.6347 6.10087 13.6347 6.12605 13.6347C6.12605 13.6347 6.12605 13.6347 6.15123 13.6347C6.15123 13.6347 6.15123 13.6347 6.17641 13.6347H6.2016H6.22677C6.22677 13.6347 6.25196 13.6347 6.25196 13.6095C6.25196 13.6095 6.27714 13.6095 6.27714 13.5843V12.9044C6.30232 12.9044 6.27714 12.9044 6.27714 12.9296Z" fill="#F7E1A0"/>
<path d="M4.23706 13.131C4.23706 13.1562 4.23706 13.1814 4.21188 13.2317C4.1867 13.2569 4.16152 13.2821 4.11115 13.3073C4.06079 13.3325 4.03561 13.3576 3.98524 13.3576H3.96006C3.9097 13.3576 3.85934 13.3828 3.80898 13.3828C3.75861 13.3828 3.70825 13.3828 3.65789 13.3576C3.60752 13.3576 3.55716 13.3325 3.53198 13.3073C3.45643 13.2569 3.40607 13.2065 3.40607 13.131V14.2642C3.40607 14.3145 3.45643 14.3901 3.53198 14.4404C3.55716 14.4404 3.58234 14.4656 3.58234 14.4656C3.60752 14.4656 3.60752 14.4656 3.6327 14.4908H3.65789C3.65789 14.4908 3.65789 14.4908 3.68307 14.4908C3.70825 14.4908 3.70825 14.4908 3.73343 14.4908C3.75861 14.4908 3.75861 14.4908 3.7838 14.4908C3.80898 14.4908 3.80897 14.4908 3.83415 14.4908C3.83415 14.4908 3.83416 14.4908 3.85934 14.4908H3.88452C3.9097 14.4908 3.9097 14.4908 3.93489 14.4908C3.96007 14.4908 3.96006 14.4908 3.98524 14.4908H4.01043H4.03561C4.06079 14.4908 4.06079 14.4908 4.06079 14.4908C4.08598 14.4908 4.13634 14.4656 4.16152 14.4404C4.1867 14.4404 4.21188 14.4153 4.21188 14.3901L4.23706 14.3649C4.23706 14.3649 4.23706 14.3649 4.23706 14.3397V14.3145V14.2894V14.2642V14.1634V13.131Z" fill="#FFAFC1"/>
<path d="M4.1112 12.9547C4.28748 13.0555 4.28748 13.2065 4.1112 13.3073C3.93493 13.408 3.68312 13.408 3.50685 13.3073C3.33058 13.2065 3.33058 13.0555 3.50685 12.9547C3.68312 12.854 3.96012 12.854 4.1112 12.9547Z" fill="#E28397"/>
<path d="M3.98535 12.4512C3.96017 12.4512 3.96017 12.4512 3.98535 12.4512L3.96017 12.4763C3.93499 12.5015 3.88462 12.5015 3.83426 12.5015C3.7839 12.5015 3.75872 12.5015 3.70835 12.4763C3.68317 12.4511 3.65799 12.426 3.65799 12.4008V13.0807C3.65799 13.1059 3.68317 13.1311 3.70835 13.1562H3.73354H3.75872C3.75872 13.1562 3.75872 13.1562 3.7839 13.1562C3.7839 13.1562 3.7839 13.1562 3.80909 13.1562C3.80909 13.1562 3.80908 13.1562 3.83426 13.1562C3.83426 13.1562 3.83426 13.1562 3.85944 13.1562C3.85944 13.1562 3.85945 13.1562 3.88463 13.1562H3.90981H3.93499C3.96017 13.1562 3.96017 13.1562 3.96017 13.1311C3.96017 13.1311 3.98535 13.1311 3.98535 13.1059V12.426C3.98535 12.426 3.98535 12.4512 3.98535 12.4512Z" fill="#F7E1A0"/>
<path d="M3.93504 12.3504C4.01059 12.3756 4.01059 12.4511 3.93504 12.4763C3.88468 12.5015 3.75876 12.5015 3.7084 12.4763C3.63286 12.4511 3.63286 12.3756 3.7084 12.3504C3.75876 12.3 3.88468 12.3 3.93504 12.3504Z" fill="#FFF3BF"/>
<path d="M5.42065 14.1886C5.42065 14.2138 5.42065 14.239 5.39547 14.2893C5.37029 14.3145 5.34511 14.3397 5.29475 14.3649C5.24438 14.3901 5.2192 14.4153 5.16884 14.4153H5.14366C5.09329 14.4153 5.04293 14.4404 4.99256 14.4404C4.9422 14.4404 4.89184 14.4404 4.84147 14.4153C4.79111 14.4153 4.74075 14.3901 4.71557 14.3649C4.64002 14.3145 4.58966 14.2642 4.58966 14.1886V15.3218C4.58966 15.3722 4.64002 15.4477 4.71557 15.4981C4.74075 15.4981 4.76593 15.5232 4.76593 15.5232C4.79111 15.5232 4.79112 15.5232 4.8163 15.5484H4.84147C4.84147 15.5484 4.84147 15.5484 4.86666 15.5484C4.89184 15.5484 4.89184 15.5484 4.91702 15.5484C4.9422 15.5484 4.9422 15.5484 4.96738 15.5484C4.99256 15.5484 4.99257 15.5484 5.01775 15.5484C5.01775 15.5484 5.01775 15.5484 5.04293 15.5484H5.06811C5.0933 15.5484 5.09329 15.5484 5.11847 15.5484C5.14365 15.5484 5.14366 15.5484 5.16884 15.5484H5.19402H5.2192H5.24438C5.26956 15.5484 5.31992 15.5232 5.3451 15.4981C5.37029 15.4981 5.39547 15.4729 5.39547 15.4477L5.42065 15.4225C5.42065 15.4225 5.42065 15.4225 5.42065 15.3973V15.3722V15.347V15.3218V15.2211V14.1886Z" fill="#FFAFC1"/>
<path d="M5.29455 14.0125C5.47083 14.1132 5.47083 14.2643 5.29455 14.365C5.11828 14.4657 4.86647 14.4657 4.6902 14.365C4.51393 14.2643 4.51393 14.1132 4.6902 14.0125C4.86647 13.9118 5.14346 13.9118 5.29455 14.0125Z" fill="#E28397"/>
<path d="M5.14371 13.4835L5.11853 13.5087C5.09335 13.5339 5.04298 13.5339 4.99262 13.5339C4.94226 13.5339 4.91708 13.5339 4.86671 13.5087C4.84153 13.4835 4.81635 13.4584 4.81635 13.4332V14.1131C4.81635 14.1383 4.84153 14.1634 4.86671 14.1886H4.8919H4.91708C4.91708 14.1886 4.91708 14.1886 4.94226 14.1886C4.94226 14.1886 4.94226 14.1886 4.96744 14.1886C4.96744 14.1886 4.96744 14.1886 4.99262 14.1886C4.99262 14.1886 4.99262 14.1886 5.0178 14.1886C5.0178 14.1886 5.01781 14.1886 5.04299 14.1886H5.06817H5.09335C5.09335 14.1886 5.11853 14.1886 5.11853 14.1634C5.11853 14.1634 5.14371 14.1634 5.14371 14.1383V13.4584C5.16889 13.4835 5.16889 13.4835 5.14371 13.4835Z" fill="#F7E1A0"/>
<path d="M5.11839 13.3828C5.19394 13.408 5.19394 13.4835 5.11839 13.5087C5.06803 13.5339 4.94212 13.5339 4.89176 13.5087C4.81621 13.4583 4.81621 13.408 4.89176 13.3828C4.94212 13.3576 5.04285 13.3576 5.11839 13.3828Z" fill="#FFF3BF"/>
<defs>
<linearGradient id="paint0_linear_101_47754" x1="11.9483" y1="22.2349" x2="12.2227" y2="22.7103" gradientUnits="userSpaceOnUse">
<stop stop-color="#ADB7B7"/>
<stop offset="0.2653" stop-color="#9DA7A8"/>
<stop offset="1" stop-color="#B8C2C2"/>
</linearGradient>
<linearGradient id="paint1_linear_101_47754" x1="12.1206" y1="22.8549" x2="11.7702" y2="22.248" gradientUnits="userSpaceOnUse">
<stop stop-color="#ADB7B7"/>
<stop offset="0.2653" stop-color="#9DA7A8"/>
<stop offset="1" stop-color="#B8C2C2"/>
</linearGradient>
<linearGradient id="paint2_linear_101_47754" x1="12.0833" y1="22.8373" x2="11.7682" y2="22.2915" gradientUnits="userSpaceOnUse">
<stop stop-color="#E2E8E8"/>
<stop offset="0.1609" stop-color="#E9EFEF"/>
<stop offset="0.4031" stop-color="#EEF5F5"/>
<stop offset="0.7595" stop-color="#E9EFEF"/>
<stop offset="1" stop-color="#E2E8E8"/>
</linearGradient>
<linearGradient id="paint3_linear_101_47754" x1="5.04367" y1="18.2679" x2="5.31814" y2="18.7432" gradientUnits="userSpaceOnUse">
<stop stop-color="#ADB7B7"/>
<stop offset="0.2653" stop-color="#9DA7A8"/>
<stop offset="1" stop-color="#B8C2C2"/>
</linearGradient>
<linearGradient id="paint4_linear_101_47754" x1="5.21593" y1="18.8878" x2="4.86557" y2="18.2809" gradientUnits="userSpaceOnUse">
<stop stop-color="#ADB7B7"/>
<stop offset="0.2653" stop-color="#9DA7A8"/>
<stop offset="1" stop-color="#B8C2C2"/>
</linearGradient>
<linearGradient id="paint5_linear_101_47754" x1="5.17884" y1="18.8698" x2="4.86372" y2="18.324" gradientUnits="userSpaceOnUse">
<stop stop-color="#E2E8E8"/>
<stop offset="0.1609" stop-color="#E9EFEF"/>
<stop offset="0.4031" stop-color="#EEF5F5"/>
<stop offset="0.7595" stop-color="#E9EFEF"/>
<stop offset="1" stop-color="#E2E8E8"/>
</linearGradient>
<linearGradient id="paint6_linear_101_47754" x1="18.2927" y1="6.06936" x2="9.23957" y2="14.4742" gradientUnits="userSpaceOnUse">
<stop stop-color="#EDEDED"/>
<stop offset="1" stop-color="white" stop-opacity="0.17"/>
</linearGradient>
</defs>
</svg>
