<svg width="31" height="26" viewBox="0 0 31 26" fill="none" xmlns="http://www.w3.org/2000/svg">
<path d="M22.8263 2.40928C22.8263 1.91306 27.1269 0.424383 28.1194 0.722118C29.1118 1.01985 30.5343 0.887527 30.9975 3.36865C31.0636 3.66639 29.7734 7.53695 28.7479 7.27229C26.8953 6.80915 22.8925 4.65884 22.8263 2.40928Z" fill="#A7A7A7"/>
<path d="M22.8264 2.40929C22.8925 1.94614 26.3992 -0.270331 27.3916 0.0274039C28.3841 0.325139 30.3359 1.51608 30.4352 1.74765C30.5344 1.97922 29.542 6.21368 28.5164 5.88286C27.4909 5.58513 22.7602 2.90551 22.8264 2.40929Z" fill="#E9E9E9"/>
<path d="M14.6551 23.383C14.3243 23.1846 13.8281 23.4823 13.4973 24.0447C13.1665 24.6071 13.1665 25.2025 13.4973 25.401L12.571 24.8717C12.2402 24.6732 12.2402 24.0778 12.571 23.5154C12.9018 22.953 13.398 22.6553 13.7288 22.8537L14.6551 23.383Z" fill="#161616"/>
<path d="M14.6321 24.7102C14.9518 24.1564 14.9545 23.5594 14.6381 23.3767C14.3216 23.194 13.8059 23.4948 13.4862 24.0486C13.1664 24.6024 13.1638 25.1994 13.4802 25.3821C13.7966 25.5648 14.3124 25.264 14.6321 24.7102Z" fill="#2B2B2B"/>
<path d="M14.4566 23.7139C14.6551 23.8462 14.6551 24.2432 14.4566 24.6071C14.2581 24.971 13.8942 25.1695 13.6957 25.0371C13.4973 24.9048 13.4973 24.5078 13.6957 24.1439C13.8942 23.78 14.225 23.5815 14.4566 23.7139Z" fill="#474747"/>
<path d="M22.4956 18.8178C22.1648 18.6193 21.6685 18.9171 21.3377 19.4794C21.0069 20.0418 21.0069 20.6373 21.3377 20.8358L20.4114 20.3065C20.0806 20.108 20.0806 19.5125 20.4114 18.9501C20.7423 18.3877 21.2385 18.09 21.5693 18.2885L22.4956 18.8178Z" fill="#161616"/>
<path d="M22.4956 18.8178C22.8264 19.0163 22.8264 19.6118 22.4956 20.1742C22.1648 20.7366 21.6685 21.0343 21.3377 20.8358C21.0069 20.6373 21.0069 20.0419 21.3377 19.4795C21.6685 18.9502 22.1978 18.6524 22.4956 18.8178Z" fill="#2B2B2B"/>
<path d="M22.2971 19.1817C22.4956 19.314 22.4956 19.711 22.2971 20.0749C22.0986 20.4388 21.7347 20.6373 21.5362 20.505C21.3377 20.3726 21.3377 19.9757 21.5362 19.6118C21.7678 19.2479 22.0986 19.0494 22.2971 19.1817Z" fill="#474747"/>
<path d="M16.3346 6.95876C16.3346 6.92557 16.3014 6.92557 16.3014 6.89239C16.3014 6.92557 16.3346 6.95876 16.3346 6.95876Z" fill="#848484"/>
<path d="M16.1361 5.56911L15.2098 5.03981C15.0113 4.90748 14.7467 4.8744 14.482 4.8744C14.2174 4.8744 13.9527 4.94056 13.7542 5.03981L11.4385 6.36307C11.3393 6.39615 11.2731 6.46232 11.24 6.52848L9.4867 8.57955C9.42053 8.67879 9.38745 8.74495 9.38745 8.8442V9.53892C9.38745 9.70432 9.4867 9.83665 9.68519 9.96898L9.75135 10.0021C9.94984 10.1344 10.2145 10.1675 10.4791 10.1675C10.7438 10.1675 11.0085 10.1013 11.2069 10.0021L16.1361 7.09087C16.3346 6.95854 16.4339 6.82622 16.4339 6.66081V5.96609C16.4339 5.83377 16.3346 5.70144 16.1361 5.56911ZM16.3015 6.92546C16.3346 6.95854 16.3346 6.95854 16.3346 6.99163C16.3346 6.95854 16.3015 6.92546 16.3015 6.92546Z" fill="#848484"/>
<path d="M16.3346 6.95876C16.3346 6.92557 16.3014 6.92557 16.3014 6.89239C16.3014 6.92557 16.3346 6.95876 16.3346 6.95876Z" fill="#848484"/>
<path d="M10.446 9.43968C10.7107 9.43968 10.9753 9.37351 11.1738 9.27427L16.1361 6.42924C16.5331 6.19767 16.5331 5.80069 16.1361 5.56912L15.2098 5.03981C15.0113 4.90749 14.7466 4.8744 14.482 4.8744C14.2173 4.8744 13.9527 4.94057 13.7542 5.03981L11.4385 6.36308C11.3392 6.39616 11.2731 6.46233 11.24 6.52849L9.48665 8.57955C9.28816 8.81113 9.35432 9.07578 9.68514 9.27427L9.7513 9.30735C9.91671 9.4066 10.1814 9.43968 10.446 9.43968Z" fill="#E9E9E9"/>
<path d="M16.4343 4.66655C16.3351 4.60039 16.2358 4.63347 16.1035 4.69964L15.8389 4.86504C15.5742 5.03045 15.3757 5.39435 15.3757 5.69209V5.72517C15.3757 6.0229 15.1772 6.3868 14.9126 6.55221L12.3322 8.04089C12.0675 8.2063 11.869 8.57019 11.869 8.86793V9.06642C11.869 9.36415 11.6706 9.72805 11.4059 9.89346L11.042 10.092C10.9097 10.1581 10.7774 10.1912 10.7112 10.125L10.2811 9.86038C10.3804 9.92654 10.4796 9.89346 10.6119 9.8273L10.9097 9.66189C11.1743 9.49648 11.3728 9.13258 11.3728 8.83485V8.63636C11.3728 8.33862 11.5713 7.97472 11.836 7.80931L14.4163 6.32064C14.681 6.15523 14.8795 5.79133 14.8795 5.4936V5.46052C14.8795 5.16278 15.078 4.79888 15.3426 4.63347L15.6073 4.46807C15.7396 4.4019 15.8719 4.36882 15.9381 4.43498L16.4343 4.66655Z" fill="#EFEFEF"/>
<path d="M10.4135 8.14013C10.3142 8.07396 10.215 8.10704 10.0827 8.17321C9.81801 8.33862 9.61952 8.70251 9.61952 9.00025V13.7971C9.61952 13.9625 9.68568 14.0617 9.75184 14.0948L9.32178 13.8302C9.22253 13.764 9.18945 13.6648 9.18945 13.5324V8.76868C9.18945 8.47094 9.38794 8.10705 9.6526 7.94164C9.78492 7.87547 9.91725 7.84239 9.98341 7.90855L10.4135 8.14013Z" fill="#EFEFEF"/>
<path d="M16.4343 4.66657C16.5336 4.73274 16.5667 4.83198 16.5667 4.96431V9.76116C16.5667 10.0589 16.3682 10.4228 16.1035 10.5882L10.0827 14.0618C9.95032 14.1279 9.818 14.161 9.75183 14.0949C9.65259 14.0287 9.61951 13.9294 9.61951 13.7971V9.00028C9.61951 8.70254 9.818 8.33864 10.0827 8.17323C10.215 8.10707 10.3473 8.07399 10.4135 8.14015C10.5127 8.20632 10.5458 8.30556 10.5458 8.43789V9.79424C10.5458 9.95964 10.612 10.0589 10.6781 10.092C10.7774 10.1581 10.8766 10.1251 11.0089 10.0589L11.3067 9.89348C11.5713 9.72807 11.7698 9.36417 11.7698 9.06644V8.86795C11.7698 8.57021 11.9683 8.20632 12.233 8.04091L14.8133 6.55223C15.078 6.38682 15.2765 6.02292 15.2765 5.72519V5.69211C15.2765 5.39437 15.475 5.03047 15.7396 4.86506L16.0043 4.69966C16.2358 4.63349 16.3351 4.63349 16.4343 4.66657Z" fill="#D9D9D9"/>
<path d="M22.661 15.6089C22.5618 15.5427 22.3964 15.5427 22.2309 15.642L13.6628 20.6042C13.332 20.8027 13.0673 21.2659 13.0673 21.6628V21.7952C13.0673 21.9937 13.1335 23.6477 13.2327 23.6808L3.83753 18.2223C3.73828 18.1562 3.63904 18.0239 3.63904 17.8254V17.693C3.63904 17.2961 3.90369 16.8329 4.23451 16.6344L12.8027 11.7383C12.9681 11.6391 13.1335 11.6391 13.2327 11.7053L22.661 15.6089Z" fill="#181818"/>
<path d="M22.661 15.6089C22.7602 15.6751 22.8264 17.3291 22.8264 17.4946V17.6269C22.8264 18.0239 22.5617 18.487 22.2309 18.6855L13.6627 23.6147C13.4973 23.7139 13.3319 23.7139 13.2327 23.6477C13.1334 23.5816 13.0673 21.9275 13.0673 21.7621V21.6298C13.0673 21.2328 13.3319 20.7696 13.6627 20.5711L22.2309 15.642C22.3963 15.5427 22.5617 15.5427 22.661 15.6089Z" fill="#222222"/>
<path d="M28.5165 7.66928L23.455 4.5596C23.2234 3.79872 22.3302 3.43482 21.6355 3.79872L17.5003 6.61067C16.971 6.9084 16.7063 7.53695 16.8717 8.13242L18.2611 12.6315C18.4927 13.3924 19.3859 13.7563 20.0806 13.3924L28.2849 8.95947C28.8473 8.62865 28.6819 8.23167 28.5165 7.66928Z" fill="#CBCBCB"/>
<path d="M28.3179 6.21368L23.7527 3.86488C23.1572 3.53407 22.1317 3.50098 21.6023 3.8318L14.4567 7.43771C14.0597 7.70236 14.5559 8.76097 15.0191 9.02563L20.2791 12.6977C20.8745 13.0285 21.9662 11.9368 22.4956 11.606L28.4503 8.09934C29.3104 7.57003 29.2773 6.77607 28.3179 6.21368Z" fill="#A7A7A7"/>
<path d="M28.351 6.1806L23.6534 3.40174C22.9917 3.00476 21.8008 3.00476 21.2053 3.36866L14.6552 7.20613C14.192 7.50387 14.2251 7.90085 14.7213 8.19858L19.4189 10.9774C20.0806 11.3744 21.2715 11.3744 21.867 11.0105L28.3841 7.17305C28.8803 6.87531 28.8472 6.47833 28.351 6.1806Z" fill="#E9E9E9"/>
<path d="M21.9 11.0105C22.6609 10.4812 25.8367 8.49631 26.6638 7.96701C27.4577 7.47078 28.1855 7.23921 28.1855 7.23921C28.2848 7.17305 28.384 7.10688 28.4833 7.04072C28.6487 6.90839 28.7479 6.74299 28.7149 6.57758C28.6818 6.41217 28.5825 6.24676 28.351 6.11443C28.8141 6.37909 28.9133 6.77607 28.5825 7.04072C28.4833 7.10688 28.384 7.17305 28.2848 7.23921C28.2848 7.30537 22.7601 10.5474 21.9 11.0105Z" fill="#848484"/>
<path d="M6.78174 11.3744C6.78174 11.4737 6.8479 11.5729 6.98023 11.6721L13.3319 15.3442C13.5966 15.5096 14.0597 15.5096 14.3244 15.3442L20.5437 11.7383C20.676 11.6721 20.7422 11.5398 20.7422 11.4406V12.6646C20.7422 12.7638 20.676 12.8631 20.5437 12.9623L14.3244 16.5352C14.0597 16.7006 13.5966 16.7006 13.3319 16.5352L6.98023 12.8631C6.8479 12.7969 6.78174 12.6646 6.78174 12.5654V11.3744Z" fill="#A7A7A7"/>
<path d="M6.78174 11.3744C6.78174 11.2751 6.8479 11.1759 6.98023 11.0767L13.2327 8.23163C13.4973 8.06622 13.9605 8.06622 14.2251 8.23163L20.5768 11.9037C20.7091 11.9699 20.7753 12.1022 20.7753 12.2014C20.7753 12.3007 20.7091 12.3999 20.5768 12.4992L14.3244 15.3442C14.0597 15.5096 13.5966 15.5096 13.3319 15.3442L6.98023 11.639C6.8479 11.5729 6.78174 11.4736 6.78174 11.3744Z" fill="#E9E9E9"/>
<path d="M20.5768 12.4661C19.5513 12.9623 15.383 14.881 14.3574 15.3773C14.192 15.4765 14.0266 15.5096 13.8281 15.5096C13.6296 15.5096 13.4642 15.4765 13.2988 15.3773L6.98022 11.639L13.365 15.2449C13.6296 15.4103 14.0266 15.4103 14.2913 15.2449C14.2913 15.278 19.5182 12.9292 20.5768 12.4661Z" fill="#A7A7A7"/>
<path d="M0 15.5758C0 15.675 0.0661634 15.7743 0.19849 15.8735L5.16074 18.7516C5.4254 18.917 12.3064 16.1712 12.3064 16.1712C12.4387 16.1051 13.1996 15.9397 13.1996 15.8404L13.365 16.5682C13.365 16.6675 13.2988 16.7667 13.1665 16.866L7.80728 19.9426C7.54263 20.108 5.45848 20.141 5.16074 19.9756L0.19849 17.0975C0.0661634 16.9983 0 16.899 0 16.7998V15.5758Z" fill="#A7A7A7"/>
<path d="M0 15.5758C0 15.4765 0.19849 14.6826 0.330817 14.6164L5.82238 12.1022C6.08703 11.9368 6.55018 11.9368 6.81483 12.1022L13.1665 15.7743C13.2988 15.8404 13.0011 16.0058 12.8688 16.1051L7.74112 18.7516C7.47646 18.917 5.39232 18.917 5.12766 18.7516L0.165408 15.8735C0.0661634 15.7743 0 15.675 0 15.5758Z" fill="#E9E9E9"/>
<path d="M12.9019 16.072C11.8763 16.5682 8.79972 18.3546 7.74111 18.8509C7.5757 18.9501 5.25998 18.8839 5.09458 18.7847L0.231567 15.8404L5.19382 18.6524C5.45847 18.8178 7.41029 18.8509 7.70803 18.7185C7.67495 18.7185 11.8432 16.5351 12.9019 16.072Z" fill="#848484"/>
<path d="M16.607 15.2781C16.6401 15.4435 16.7393 15.5427 16.8717 15.6089C17.004 15.675 17.1363 15.7412 17.2686 15.7743C17.5664 15.8405 17.831 15.8735 18.1618 15.8735C17.8972 16.0389 17.5333 16.0389 17.2355 15.9728C17.1694 15.9397 17.0701 15.9066 17.004 15.8735C16.9378 15.8405 16.8717 15.8074 16.8055 15.7412C16.6732 15.6089 16.5739 15.4435 16.607 15.2781Z" fill="#848484"/>
<path d="M18.2088 12.5761C18.1095 12.5099 18.0103 12.543 17.8779 12.6091C17.6133 12.7745 17.4148 13.1384 17.4148 13.4362V17.0752C17.4148 17.2406 17.481 17.3398 17.5471 17.3729L17.1171 17.1082C17.0178 17.0421 16.9847 16.9428 16.9847 16.8105V13.1715C16.9847 12.8738 17.1832 12.5099 17.4479 12.3445C17.5802 12.2783 17.7125 12.2452 17.7787 12.3114L18.2088 12.5761Z" fill="#EFEFEF"/>
<path d="M24.2296 9.10246C24.1304 9.0363 24.0311 9.06938 23.8988 9.13554L23.6341 9.30095C23.3695 9.46636 23.171 9.83026 23.171 10.128V10.1611C23.171 10.4588 22.9725 10.8227 22.7079 10.9881L20.1275 12.4768C19.8628 12.6422 19.6643 13.0061 19.6643 13.3038V13.5023C19.6643 13.8001 19.4658 14.164 19.2012 14.3294L18.9035 14.4948C18.7711 14.5609 18.6388 14.594 18.5726 14.5279L18.0433 14.2963C18.1426 14.3624 18.2418 14.3294 18.3742 14.2632L18.6719 14.0978C18.9365 13.9324 19.135 13.5685 19.135 13.2708V13.0723C19.135 12.7745 19.3335 12.4106 19.5982 12.2452L22.1785 10.7565C22.4432 10.5911 22.6417 10.2272 22.6417 9.9295V9.89642C22.6417 9.59868 22.8402 9.23479 23.1048 9.06938L23.3695 8.90397C23.5018 8.83781 23.6341 8.80472 23.7003 8.87089L24.2296 9.10246Z" fill="#EFEFEF"/>
<path d="M24.2296 9.10246C24.3289 9.16862 24.3619 9.26786 24.3619 9.40019V13.0392C24.3619 13.3369 24.1635 13.7008 23.8988 13.8662L17.8779 17.3729C17.7456 17.439 17.6133 17.4721 17.5471 17.406C17.4479 17.3398 17.4148 17.2406 17.4148 17.1082V13.4692C17.4148 13.1715 17.6133 12.8076 17.8779 12.6422C18.0103 12.576 18.1426 12.543 18.2088 12.6091C18.308 12.6753 18.3411 12.7745 18.3411 12.9069V14.2632C18.3411 14.4286 18.4072 14.5279 18.4734 14.5609C18.5727 14.6271 18.6719 14.594 18.8042 14.5279L19.102 14.3624C19.3666 14.197 19.5651 13.8331 19.5651 13.5354V13.3038C19.5651 13.0061 19.7636 12.6422 20.0282 12.4768L22.6417 10.9881C22.9064 10.8227 23.1048 10.4588 23.1048 10.1611V10.128C23.1048 9.83025 23.3033 9.46635 23.568 9.30095L23.8326 9.13554C23.998 9.06937 24.1304 9.03629 24.2296 9.10246Z" fill="#D9D9D9"/>
<path d="M18.4072 13.8662C18.4072 14.0316 18.5065 14.164 18.705 14.2963L18.7711 14.3294C19.0689 14.4948 19.5651 14.5609 19.9621 14.4286L23.5018 13.4362C23.6011 13.4031 23.7003 13.37 23.7995 13.3038L26.0822 11.9475C26.2807 11.8152 26.3799 11.6828 26.3799 11.5174V12.2121C26.3799 12.3775 26.2807 12.5099 26.0822 12.6422L23.7995 13.9985C23.7334 14.0316 23.6341 14.0978 23.5018 14.1309L19.9621 15.1233C19.5651 15.2226 19.0689 15.1895 18.7711 15.0241L18.705 14.991C18.5065 14.8587 18.4072 14.7263 18.4072 14.5609V13.8662Z" fill="#A7A7A7"/>
<path d="M19.9622 14.4617C20.5245 14.2632 21.0869 14.0978 21.6824 13.8993C22.2448 13.7339 22.8403 13.5354 23.4027 13.4031C23.535 13.37 23.6673 13.3369 23.7996 13.2377C23.7996 13.2377 24.6928 12.7084 24.9575 12.576C24.9575 12.576 26.0161 12.0137 26.1484 11.9144C26.2808 11.8483 26.38 11.7159 26.38 11.5505C26.38 11.7159 26.2808 11.8483 26.1815 11.9475C26.0492 12.0467 25.9169 12.1129 25.8176 12.2121L23.8989 13.4031C23.7666 13.5023 23.6011 13.5354 23.4688 13.5685C22.9064 13.7339 22.311 13.8993 21.7486 14.0316C21.12 14.164 20.5576 14.3294 19.9622 14.4617Z" fill="#848484"/>
<path d="M18.4072 13.8662C18.4072 13.7008 18.5065 13.5685 18.705 13.4362L23.6341 10.5911C24.0311 10.3596 24.6927 10.3596 25.0897 10.5911L26.016 11.1204C26.2145 11.2528 26.3137 11.3851 26.3137 11.5505C26.3137 11.7159 26.2145 11.8482 26.016 11.9806L23.7334 13.3369C23.6672 13.37 23.568 13.4362 23.4356 13.4692L19.8959 14.4617C19.4989 14.5609 19.0027 14.5279 18.705 14.3624V14.2963C18.5065 14.164 18.4072 14.0316 18.4072 13.8662Z" fill="#E9E9E9"/>
</svg>
