<svg width="12" height="9" viewBox="0 0 12 9" fill="none" xmlns="http://www.w3.org/2000/svg">
<path id="Vector" fill-rule="evenodd" clip-rule="evenodd" d="M11.0786 0.840211C11.211 0.965229 11.2853 1.13477 11.2853 1.31154C11.2853 1.48832 11.211 1.65786 11.0786 1.78288L4.37274 8.11621C4.24037 8.24119 4.06085 8.3114 3.87368 8.3114C3.6865 8.3114 3.50699 8.24119 3.37462 8.11621L0.19815 5.11621C0.0695677 4.99048 -0.00158161 4.82207 2.66841e-05 4.64728C0.00163498 4.47248 0.075872 4.30527 0.206748 4.18166C0.337625 4.05806 0.514669 3.98795 0.699749 3.98643C0.884829 3.98491 1.06314 4.05211 1.19627 4.17354L3.87368 6.70221L10.0805 0.840211C10.2129 0.71523 10.3924 0.64502 10.5796 0.64502C10.7667 0.64502 10.9462 0.71523 11.0786 0.840211Z" fill="white"/>
</svg>
