<svg width="30" height="24" viewBox="0 0 30 24" fill="none" xmlns="http://www.w3.org/2000/svg">
<path d="M2.21924 5.71572C4.42082 1.09611 11.0256 -1.01795 14.2861 3.15797C14.732 3.73216 15.6795 3.73216 16.1254 3.15797C19.386 -1.01795 25.9907 1.09611 28.1923 5.74182C32.6233 15.0332 17.7139 22.9414 15.2058 22.9414C12.6976 22.9414 -2.21179 15.0071 2.21924 5.71572Z" fill="url(#paint0_radial_36_122471)"/>
<path d="M14.2858 3.15797C14.7317 3.73216 15.6792 3.73216 16.1251 3.15797C19.3856 -1.01795 25.9904 1.09611 28.192 5.74182C28.9723 7.33389 29.1673 8.89985 28.9444 10.3875C28.9444 10.3875 25.6281 15.1115 15.2054 15.1115C4.78276 15.1115 1.46646 10.3875 1.46646 10.3875C1.24351 8.89985 1.43859 7.33389 2.19103 5.71572C4.42048 1.09611 11.0252 -1.01795 14.2858 3.15797Z" fill="url(#paint1_radial_36_122471)"/>
<path opacity="0.44" d="M5.59072 11.014C7.0956 12.0841 9.40865 11.5882 10.7742 9.9178C12.1397 8.24744 12.0561 6.00288 10.5512 4.9328C9.04636 3.86272 6.73331 4.35861 5.36777 6.02898C4.00224 7.69935 4.11371 9.9439 5.59072 11.014Z" fill="url(#paint2_radial_36_122471)"/>
<defs>
<radialGradient id="paint0_radial_36_122471" cx="0" cy="0" r="1" gradientUnits="userSpaceOnUse" gradientTransform="translate(3.58149 6.68705) rotate(29.5022) scale(39.3791 35.3546)">
<stop stop-color="#E95F70"/>
<stop offset="0.765625" stop-color="#E01840"/>
<stop offset="0.9739" stop-color="#D85264"/>
<stop offset="1" stop-color="#E95F70"/>
</radialGradient>
<radialGradient id="paint1_radial_36_122471" cx="0" cy="0" r="1" gradientUnits="userSpaceOnUse" gradientTransform="translate(15.462 26.3542) rotate(-180) scale(27.476 19.7804)">
<stop stop-color="white"/>
<stop offset="1" stop-color="white" stop-opacity="0"/>
</radialGradient>
<radialGradient id="paint2_radial_36_122471" cx="0" cy="0" r="1" gradientUnits="userSpaceOnUse" gradientTransform="translate(8.08074 7.96477) rotate(129.215) scale(3.93131 3.32059)">
<stop stop-color="white"/>
<stop offset="1" stop-color="white" stop-opacity="0"/>
</radialGradient>
</defs>
</svg>
