<svg width="263" height="39" viewBox="0 0 263 39" fill="none" xmlns="http://www.w3.org/2000/svg">
<path d="M72.4936 22.5C70.8077 21 68.616 20.3333 66.4243 20.3333C64.5699 20.3333 63.0525 20.8333 61.5352 21.3333V10.5H57.1519V38.5H61.5352C62.5468 38.6667 63.7269 38.6667 65.2442 38.6667C66.9301 38.6667 69.7961 38.5 72.325 36.8333C74.6852 35.1667 76.034 32.8333 76.034 29.6667C75.6968 26.1667 74.3481 23.8333 72.4936 22.5ZM65.0756 36.8333C63.2211 36.8333 62.2096 36.6667 61.7038 36.3333C61.7038 36.3333 61.7038 36.3333 61.5352 36.3333V22.6667C62.5468 22.1667 63.7269 22 65.2442 22C69.6275 22 71.8192 25.8333 71.8192 29.3333C71.8192 35.5 68.1102 36.8333 65.0756 36.8333Z" fill="black"/>
<path d="M4.38333 32.1667V10.5H0V38.6667H1.18013L20.0622 16.5V38.1667H24.6141V10H23.434L4.38333 32.1667Z" fill="black"/>
<path d="M41.4731 10H40.6301L27.9859 38.1667H30.3462L40.1244 16.5L49.0596 38.1667H54.1173L41.4731 10Z" fill="black"/>
<path d="M245.635 7.16666C249.681 7.16666 253.559 5.66666 256.256 3.16667L253.39 0C251.199 3.33333 247.995 5.33333 244.118 5.33333C243.106 5.33333 241.926 5.16666 240.915 4.83333L240.409 6.5C242.432 6.83333 244.118 7.16666 245.635 7.16666Z" fill="black"/>
<path d="M134.366 9.83325C125.937 9.83325 118.856 16.3332 118.856 24.3332C118.856 33.1666 125.094 38.8332 135.04 38.8332C140.098 38.8332 144.65 36.9999 148.022 33.4999L148.528 30.1666H147.516C144.819 34.4999 139.761 37.1666 134.703 37.1666C127.96 37.1666 123.07 31.8332 123.07 24.4999H149.202C149.708 16.1666 142.795 9.83325 134.366 9.83325ZM123.745 22.4999C124.419 15.8332 128.297 11.4999 134.366 11.4999C139.929 11.4999 144.987 16.3332 145.662 22.4999H123.745Z" fill="black"/>
<path d="M247.321 9.83325C243.612 9.83325 240.578 10.4999 237.88 11.9999L239.397 13.6666C241.758 12.1666 244.792 11.3333 247.321 11.3333C253.053 11.3333 257.437 15.8333 258.279 22.3332H239.735V24.1666H258.279C258.279 31.3332 253.728 36.6666 247.321 36.6666C244.624 36.6666 240.578 35.4999 237.712 32.8332H236.7L237.712 35.6666C240.578 37.4999 243.781 38.4999 247.321 38.4999C251.873 38.4999 255.751 36.9999 258.617 34.4999C261.314 31.8332 263 27.9999 263 23.9999C262.494 15.9999 256.088 9.83325 247.321 9.83325Z" fill="black"/>
<path d="M214.615 12.3333H222.876V38.1667H227.259V12.3333H235.52V10.5H214.615V12.3333Z" fill="black"/>
<path d="M115.821 25.3333V18.1666C115.821 16 115.315 13.1666 114.641 11.5C112.449 6.49996 107.56 3.66663 100.817 3.66663C96.7705 3.66663 93.5673 4.83329 90.7013 7.49996L90.1955 10.3333H91.3756C94.5788 6.66662 97.1077 5.33329 101.322 5.33329C107.897 5.33329 111.438 9.33329 111.944 17C109.246 14.1666 105.874 12.5 101.997 12.5C93.7359 12.5 87.4981 18.1666 87.4981 25.6666C87.4981 32.8333 93.7359 38.8333 101.491 38.8333C104.694 38.8333 108.74 38.3333 112.618 33.9999C114.135 32.4999 115.821 29.6666 115.821 25.3333ZM111.944 25.4999C111.944 28.8333 110.763 32.1666 108.572 34.3333C106.886 36.1666 104.526 37.1666 101.828 37.1666C96.0961 37.1666 91.8814 32.3333 91.7128 25.4999C91.7128 21.8333 92.7244 18.8333 94.916 16.8333C96.6019 15 99.2994 14 101.997 14C106.886 14 111.606 17.6666 111.944 25.4999Z" fill="black"/>
<path d="M200.116 10C191.687 10 184.606 16.5 184.606 24.5C184.606 32.5 191.687 39 200.116 39C208.546 39 215.626 32.5 215.626 24.5C215.626 16.5 208.714 10 200.116 10ZM208.883 33.5C207.197 35.6667 204.837 36.8333 201.802 37.1667C201.296 37.1667 201.128 37.1667 200.622 37.1667C194.553 37.1667 190.169 32.3333 189.495 25.5C188.989 21.6667 190.001 18.1667 192.192 15.5C193.878 13.3333 196.238 11.8333 199.273 11.6667C199.442 11.6667 199.947 11.6667 200.285 11.6667C206.017 11.6667 210.906 16.6667 211.58 23.3333C211.749 27.1667 210.737 30.8333 208.883 33.5Z" fill="black"/>
<path d="M179.211 22.5C177.525 21 175.333 20.3333 173.142 20.3333C171.287 20.3333 169.77 20.8333 168.253 21.3333V12.5C179.548 12.5 180.56 12.5 180.897 12.5V10.5H164.038V38.5H168.421C169.433 38.6667 170.613 38.6667 172.13 38.6667C173.816 38.6667 176.682 38.5 179.211 36.8333C181.571 35.1667 182.92 32.8333 182.92 29.6667C182.245 26.1667 181.065 23.8333 179.211 22.5ZM178.368 29.3333C178.368 33 176.682 37 171.793 37C170.107 37 168.927 36.8333 168.084 36.5H167.915V22.8333C168.927 22.3333 170.107 22.1667 171.624 22.1667C176.682 21.6667 178.368 26.1667 178.368 29.3333Z" fill="black"/>
</svg>
