<svg width="25" height="41" viewBox="0 0 25 41" fill="none" xmlns="http://www.w3.org/2000/svg">
<path d="M1.82065 37.6111L1.82508 37.6186L1.82969 37.626C2.51564 38.7274 3.52235 39.4345 4.80426 39.7325C6.05684 40.0236 7.24147 39.8218 8.30774 39.1255C9.39892 38.4434 10.1039 37.4587 10.3949 36.2068C10.6915 34.9305 10.5039 33.7202 9.82527 32.6226C9.18719 31.4948 8.21723 30.7673 6.95625 30.4742C5.69347 30.1807 4.48933 30.4037 3.38987 31.1204C2.29252 31.8063 1.58783 32.8114 1.2905 34.0906C1.00135 35.3346 1.17715 36.5223 1.82065 37.6111ZM5.05716 7.02326L5.4733 7.6725L6.11071 7.23847C7.97639 5.96809 9.81391 5.58991 11.667 6.02064C12.9945 6.32921 13.9223 6.93125 14.5292 7.7891L14.5338 7.79555L14.5385 7.8019C15.1273 8.59792 15.3176 9.56587 15.0329 10.7911C14.8535 11.5628 14.5141 12.2215 14.0155 12.7812C13.4919 13.3689 12.9173 13.7998 12.2928 14.0882C11.5609 14.4262 10.7663 14.8034 9.90941 15.2196L9.90133 15.2236L9.89334 15.2277C9.06673 15.6539 8.27348 16.0887 7.51371 16.5321C6.66379 16.9967 5.90697 17.6885 5.23532 18.5773C4.544 19.468 4.06386 20.5308 3.78115 21.747C3.47757 23.0531 3.56993 24.3037 4.08371 25.4694C4.59316 26.6253 5.49373 27.6462 6.72376 28.5461L7.2324 28.9183L7.68659 28.4813L9.49727 26.7395L10.0442 26.2133L9.51163 25.6727C8.80061 24.9508 8.58992 24.1998 8.78893 23.3436C8.88488 22.9308 9.07392 22.5712 9.36333 22.2545C9.69701 21.9344 10.1524 21.6455 10.7528 21.4013L10.7661 21.3959L10.7791 21.39C11.4396 21.0915 12.0444 20.8545 12.5944 20.6765C13.1954 20.5014 13.9846 20.2963 14.9657 20.0611C15.9637 19.8219 16.7394 19.6118 17.2794 19.431C20.646 18.3107 22.7657 16.0166 23.5574 12.6103C24.167 9.98788 23.5976 7.60964 21.8666 5.54819C20.1554 3.46651 17.5408 2.06113 14.1237 1.26686C10.1799 0.35017 6.66603 1.13188 3.66186 3.62729L3.15194 4.05086L3.50965 4.60894L5.05716 7.02326Z" fill="white" stroke="url(#paint0_linear_36_41097)" stroke-width="1.5"/>
<defs>
<linearGradient id="paint0_linear_36_41097" x1="-3.49001" y1="23.2792" x2="13.4344" y2="30.398" gradientUnits="userSpaceOnUse">
<stop stop-color="#977C3F"/>
<stop offset="0.498686" stop-color="#E8DDB2"/>
<stop offset="1" stop-color="#977C3F"/>
</linearGradient>
</defs>
</svg>
